<svg width="24" height="24" viewBox="0 0 24 24" fill="none" xmlns="http://www.w3.org/2000/svg">
<path d="M22.5 4V17C22.5 17.663 22.2366 18.2989 21.7678 18.7678C21.2989 19.2366 20.663 19.5 20 19.5H4C3.33696 19.5 2.70107 19.2366 2.23223 18.7678C1.76339 18.2989 1.5 17.663 1.5 17V3.5C1.5 2.96957 1.71071 2.46086 2.08579 2.08579C2.46086 1.71071 2.96957 1.5 3.5 1.5H20C20.663 1.5 21.2989 1.76339 21.7678 2.23223C22.2366 2.70107 22.5 3.33696 22.5 4Z" fill="#E6EAED"/>
<path d="M16.5 18.5H7.5C7.22386 18.5 7 18.7239 7 19V22C7 22.2761 7.22386 22.5 7.5 22.5H16.5C16.7761 22.5 17 22.2761 17 22V19C17 18.7239 16.7761 18.5 16.5 18.5Z" fill="#395763"/>
<path d="M18.5 22.5H5.5C5.36739 22.5 5.24021 22.4473 5.14645 22.3536C5.05268 22.2598 5 22.1326 5 22C5 21.8674 5.05268 21.7402 5.14645 21.6464C5.24021 21.5527 5.36739 21.5 5.5 21.5H18.5C18.6326 21.5 18.7598 21.5527 18.8536 21.6464C18.9473 21.7402 19 21.8674 19 22C19 22.1326 18.9473 22.2598 18.8536 22.3536C18.7598 22.4473 18.6326 22.5 18.5 22.5ZM22.5 15.5V17C22.5 17.663 22.2366 18.2989 21.7678 18.7678C21.2989 19.2366 20.663 19.5 20 19.5H4C3.33696 19.5 2.70107 19.2366 2.23223 18.7678C1.76339 18.2989 1.5 17.663 1.5 17V15.5H22.5Z" fill="#395763"/>
<path d="M10.809 13.0135L10.1665 9.99554C10.1389 9.86585 10.0609 9.75244 9.94972 9.68024C9.83852 9.60804 9.70319 9.58297 9.5735 9.61054L7.29 10.096C7.22574 10.1097 7.16479 10.1359 7.11066 10.1731C7.05652 10.2103 7.01026 10.2579 6.9745 10.313C6.93874 10.3681 6.9142 10.4297 6.90228 10.4944C6.89035 10.559 6.89128 10.6253 6.905 10.6895L7.55 13.7075C7.62198 14.0434 7.80681 14.3444 8.07373 14.5606C8.34064 14.7767 8.67354 14.8949 9.017 14.8955C9.12204 14.8956 9.22679 14.8846 9.3295 14.8625L9.656 14.793C9.84873 14.7521 10.0315 14.6736 10.1939 14.562C10.3563 14.4504 10.4951 14.3079 10.6024 14.1427C10.7097 13.9774 10.7834 13.7926 10.8193 13.5989C10.8552 13.4052 10.8525 13.2063 10.8115 13.0135H10.809Z" fill="#73C3F9"/>
<path d="M16 7.36046C15.8761 7.36085 15.7565 7.31524 15.6643 7.23248C15.5722 7.14971 15.514 7.03568 15.5011 6.91247C15.4882 6.78927 15.5216 6.66567 15.5946 6.56562C15.6676 6.46558 15.7752 6.39621 15.8965 6.37095L17.364 6.05896C17.4938 6.03137 17.6292 6.05647 17.7404 6.12871C17.8517 6.20096 17.9297 6.31445 17.9573 6.44421C17.9848 6.57396 17.9597 6.70936 17.8875 6.82062C17.8152 6.93187 17.7018 7.00987 17.572 7.03746L16.1045 7.34946C16.0701 7.35678 16.0351 7.36047 16 7.36046ZM15.614 5.21045C15.5091 5.21045 15.4068 5.17744 15.3216 5.11608C15.2365 5.05472 15.1728 4.96812 15.1397 4.86857C15.1065 4.76901 15.1055 4.66154 15.1367 4.56137C15.168 4.4612 15.23 4.37342 15.314 4.31046L16.514 3.40746C16.6201 3.32789 16.7534 3.29373 16.8847 3.31248C17.016 3.33123 17.1344 3.40137 17.214 3.50746C17.2936 3.61354 17.3277 3.74689 17.309 3.87817C17.2902 4.00944 17.2201 4.12789 17.114 4.20746L15.914 5.11046C15.8275 5.17537 15.7222 5.21045 15.614 5.21045ZM17.9845 9.81796C17.9465 9.81805 17.9085 9.81369 17.8715 9.80496L16.4095 9.46846C16.3455 9.45368 16.285 9.42644 16.2315 9.38829C16.178 9.35015 16.1326 9.30184 16.0977 9.24612C16.0629 9.19041 16.0394 9.12838 16.0286 9.06358C16.0177 8.99878 16.0197 8.93247 16.0345 8.86845C16.0493 8.80444 16.0765 8.74395 16.1147 8.69046C16.1528 8.63697 16.2011 8.59151 16.2568 8.55669C16.3125 8.52187 16.3746 8.49836 16.4394 8.48751C16.5042 8.47666 16.5705 8.47868 16.6345 8.49345L18.096 8.83045C18.2159 8.85778 18.3215 8.92832 18.3927 9.0286C18.4638 9.12888 18.4955 9.25187 18.4817 9.37405C18.4679 9.49624 18.4096 9.60906 18.3179 9.69095C18.2261 9.77284 18.1075 9.81805 17.9845 9.81796ZM15.2 6.83596C14.553 3.79496 14.1575 3.53596 14.0085 3.44146C12.6925 2.58746 9.73 4.74496 8.5165 5.71196C8.44386 5.76983 8.38877 5.8468 8.35742 5.93424C8.32607 6.02167 8.31969 6.1161 8.339 6.20695L9.189 10.2035C9.20832 10.2943 9.25256 10.378 9.31676 10.4451C9.38096 10.5122 9.46259 10.5601 9.5525 10.5835C10.783 10.9209 12.0484 11.1145 13.3235 11.1605C14.291 11.1605 15.134 10.975 15.493 10.4215C15.5895 10.2725 15.846 9.87646 15.2 6.83596Z" fill="#FC5692"/>
<path d="M10.1665 9.99543L9.316 5.99993C9.2884 5.87025 9.21043 5.75684 9.09922 5.68464C8.98802 5.61244 8.85269 5.58737 8.723 5.61493L6.4385 6.10093C5.85491 6.22523 5.3446 6.57624 5.01979 7.07676C4.69499 7.57728 4.5823 8.18633 4.7065 8.76993L4.828 9.34343C4.93555 9.84656 5.21207 10.2977 5.61157 10.6219C6.01108 10.9461 6.50951 11.1238 7.024 11.1254C7.18298 11.1254 7.34152 11.1086 7.497 11.0754L9.7815 10.5899C9.84576 10.5763 9.90671 10.5501 9.96084 10.5128C10.015 10.4756 10.0612 10.4281 10.097 10.373C10.1328 10.3179 10.1573 10.2562 10.1692 10.1916C10.1811 10.127 10.1802 10.0607 10.1665 9.99643V9.99543Z" fill="#FC5692"/>
<path d="M20 19.5H4C3.3372 19.4992 2.70178 19.2356 2.23311 18.7669C1.76444 18.2982 1.50079 17.6628 1.5 17V4C1.50079 3.3372 1.76444 2.70178 2.23311 2.23311C2.70178 1.76444 3.3372 1.50079 4 1.5H20C20.6628 1.50079 21.2982 1.76444 21.7669 2.23311C22.2356 2.70178 22.4992 3.3372 22.5 4V17C22.4992 17.6628 22.2356 18.2982 21.7669 18.7669C21.2982 19.2356 20.6628 19.4992 20 19.5ZM4 2.5C3.60218 2.5 3.22064 2.65804 2.93934 2.93934C2.65804 3.22064 2.5 3.60218 2.5 4V17C2.5 17.3978 2.65804 17.7794 2.93934 18.0607C3.22064 18.342 3.60218 18.5 4 18.5H20C20.3978 18.5 20.7794 18.342 21.0607 18.0607C21.342 17.7794 21.5 17.3978 21.5 17V4C21.5 3.60218 21.342 3.22064 21.0607 2.93934C20.7794 2.65804 20.3978 2.5 20 2.5H4Z" fill="#232323"/>
<path d="M20 19.5H4C3.3372 19.4992 2.70178 19.2356 2.23311 18.7669C1.76444 18.2982 1.50079 17.6628 1.5 17V16C1.5 15.8674 1.55268 15.7402 1.64645 15.6464C1.74021 15.5527 1.86739 15.5 2 15.5H19.5C19.6326 15.5 19.7598 15.5527 19.8536 15.6464C19.9473 15.7402 20 15.8674 20 16C20 16.1326 19.9473 16.2598 19.8536 16.3536C19.7598 16.4473 19.6326 16.5 19.5 16.5H2.5V17C2.5 17.3978 2.65804 17.7794 2.93934 18.0607C3.22064 18.342 3.60218 18.5 4 18.5H20C20.3978 18.5 20.7794 18.342 21.0607 18.0607C21.342 17.7794 21.5 17.3978 21.5 17V16C21.5 15.8674 21.5527 15.7402 21.6464 15.6464C21.7402 15.5527 21.8674 15.5 22 15.5C22.1326 15.5 22.2598 15.5527 22.3536 15.6464C22.4473 15.7402 22.5 15.8674 22.5 16V17C22.4992 17.6628 22.2356 18.2982 21.7669 18.7669C21.2982 19.2356 20.6628 19.4992 20 19.5ZM18.5 22.5H5.5C5.36739 22.5 5.24021 22.4473 5.14645 22.3536C5.05268 22.2598 5 22.1326 5 22C5 21.8674 5.05268 21.7402 5.14645 21.6464C5.24021 21.5527 5.36739 21.5 5.5 21.5H18.5C18.6326 21.5 18.7598 21.5527 18.8536 21.6464C18.9473 21.7402 19 21.8674 19 22C19 22.1326 18.9473 22.2598 18.8536 22.3536C18.7598 22.4473 18.6326 22.5 18.5 22.5Z" fill="#232323"/>
<path d="M16.5 22.4998H7.5C7.36739 22.4998 7.24021 22.4471 7.14645 22.3533C7.05268 22.2596 7 22.1324 7 21.9998V18.9998C7 18.8672 7.05268 18.74 7.14645 18.6462C7.24021 18.5525 7.36739 18.4998 7.5 18.4998H16.5C16.6326 18.4998 16.7598 18.5525 16.8536 18.6462C16.9473 18.74 17 18.8672 17 18.9998V21.9998C17 22.1324 16.9473 22.2596 16.8536 22.3533C16.7598 22.4471 16.6326 22.4998 16.5 22.4998ZM8 21.4998H16V19.4998H8V21.4998ZM13.323 11.1603C12.0473 11.1145 10.7811 10.9209 9.55 10.5833C9.46009 10.56 9.37846 10.5121 9.31426 10.4449C9.25005 10.3778 9.20581 10.2941 9.1865 10.2033L8.3365 6.20679C8.31719 6.11593 8.32357 6.0215 8.35492 5.93407C8.38627 5.84664 8.44136 5.76967 8.514 5.71179C9.7275 4.74479 12.69 2.58779 14.006 3.44129C14.156 3.53779 14.5505 3.79479 15.1975 6.83579C15.8445 9.87679 15.588 10.2723 15.491 10.4213C15.1335 10.9748 14.2905 11.1603 13.323 11.1603ZM10.1 9.69029C12.255 10.2143 14.25 10.3143 14.6235 9.91329C14.733 9.15479 13.8285 4.90629 13.42 4.25879C12.9145 4.04729 11.1345 4.94879 9.379 6.30329L10.1 9.69029Z" fill="#232323"/>
<path d="M7.024 11.1245C6.50951 11.1228 6.01108 10.9451 5.61157 10.6209C5.21207 10.2967 4.93555 9.84558 4.828 9.34245L4.7065 8.76895C4.5823 8.18535 4.69499 7.57631 5.01979 7.07579C5.3446 6.57526 5.85491 6.22425 6.4385 6.09995L8.723 5.61395C8.85269 5.58639 8.98802 5.61146 9.09922 5.68366C9.21043 5.75586 9.2884 5.86927 9.316 5.99895L10.166 9.99545C10.1797 10.0597 10.1806 10.126 10.1687 10.1906C10.1568 10.2552 10.1323 10.3169 10.0965 10.372C10.0607 10.4271 10.0145 10.4746 9.96034 10.5119C9.9062 10.5491 9.84526 10.5753 9.781 10.589L7.4965 11.0745C7.34119 11.1076 7.18282 11.1244 7.024 11.1245ZM8.442 6.69645L6.6465 7.07845C6.32239 7.14756 6.03898 7.34255 5.85859 7.62055C5.67819 7.89855 5.61557 8.2368 5.6845 8.56095L5.806 9.13445C5.87521 9.45858 6.07032 9.74195 6.34842 9.92226C6.62652 10.1026 6.96484 10.165 7.289 10.096L9.0845 9.71446L8.442 6.69645Z" fill="#232323"/>
<path d="M9.0145 14.8956C8.67147 14.8945 8.33916 14.776 8.07276 14.5599C7.80635 14.3438 7.62189 14.043 7.55 13.7076L6.905 10.6896C6.89128 10.6254 6.89035 10.559 6.90228 10.4944C6.9142 10.4298 6.93874 10.3682 6.9745 10.3131C7.01026 10.258 7.05652 10.2104 7.11066 10.1732C7.16479 10.136 7.22574 10.1098 7.29 10.0961L9.5735 9.61062C9.70319 9.58305 9.83852 9.60813 9.94972 9.68033C10.0609 9.75253 10.1389 9.86594 10.1665 9.99562L10.809 13.0136C10.85 13.2063 10.8527 13.4052 10.8168 13.599C10.7809 13.7927 10.7072 13.9775 10.5999 14.1427C10.4926 14.308 10.3538 14.4505 10.1914 14.5621C10.029 14.6737 9.84623 14.7522 9.6535 14.7931L9.327 14.8626C9.22429 14.8846 9.11954 14.8957 9.0145 14.8956ZM7.9875 10.9701L8.5255 13.5001C8.53916 13.5644 8.56535 13.6253 8.60258 13.6795C8.63981 13.7336 8.68734 13.7799 8.74246 13.8156C8.79758 13.8514 8.8592 13.8759 8.92381 13.8878C8.98842 13.8998 9.05475 13.8988 9.119 13.8851L9.4455 13.8156C9.57518 13.788 9.68859 13.71 9.76079 13.5988C9.83299 13.4876 9.85806 13.3523 9.8305 13.2226L9.292 10.6941L7.9875 10.9701ZM16 7.36062C15.8761 7.36101 15.7565 7.31541 15.6643 7.23264C15.5722 7.14987 15.514 7.03584 15.5011 6.91264C15.4882 6.78943 15.5215 6.66583 15.5946 6.56579C15.6676 6.46574 15.7752 6.39637 15.8965 6.37112L17.364 6.05912C17.4938 6.03154 17.6292 6.05663 17.7404 6.12888C17.8517 6.20113 17.9297 6.31461 17.9572 6.44437C17.9848 6.57413 17.9597 6.70953 17.8875 6.82078C17.8152 6.93204 17.7018 7.01004 17.572 7.03762L16.1045 7.34962C16.0701 7.35695 16.0351 7.36063 16 7.36062ZM15.614 5.21062C15.5091 5.21062 15.4068 5.1776 15.3216 5.11624C15.2365 5.05488 15.1728 4.96829 15.1397 4.86873C15.1065 4.76918 15.1055 4.6617 15.1367 4.56154C15.168 4.46137 15.23 4.37358 15.314 4.31062L16.514 3.40762C16.6201 3.32805 16.7534 3.29389 16.8847 3.31264C17.016 3.3314 17.1344 3.40153 17.214 3.50762C17.2936 3.61371 17.3277 3.74705 17.309 3.87833C17.2902 4.00961 17.2201 4.12805 17.114 4.20762L15.914 5.11062C15.8275 5.17553 15.7222 5.21062 15.614 5.21062ZM17.9845 9.81812C17.9465 9.81821 17.9085 9.81385 17.8715 9.80512L16.4095 9.46862C16.3455 9.45385 16.285 9.42661 16.2315 9.38846C16.178 9.35031 16.1326 9.302 16.0977 9.24628C16.0629 9.19057 16.0394 9.12854 16.0286 9.06374C16.0177 8.99894 16.0197 8.93264 16.0345 8.86862C16.0493 8.8046 16.0765 8.74412 16.1147 8.69062C16.1528 8.63713 16.2011 8.59168 16.2568 8.55686C16.3125 8.52203 16.3746 8.49853 16.4394 8.48768C16.5042 8.47683 16.5705 8.47885 16.6345 8.49362L18.096 8.83062C18.2159 8.85794 18.3215 8.92848 18.3927 9.02877C18.4638 9.12905 18.4955 9.25203 18.4817 9.37422C18.4679 9.49641 18.4096 9.60922 18.3179 9.69111C18.2261 9.773 18.1075 9.81822 17.9845 9.81812Z" fill="#232323"/>
</svg>
