<svg width="26" height="26" viewBox="0 0 26 26" fill="none" xmlns="http://www.w3.org/2000/svg">
<path d="M23.79 18.5004C24.5456 19.2601 24.8503 20.1782 24.4725 20.556C24.0947 20.9339 23.1765 20.6292 22.4168 19.8735C22.407 19.8592 22.3961 19.8457 22.3843 19.8329C22.0959 19.9101 21.7465 19.9995 21.3484 20.0807C21.3484 20.0807 21.0234 20.1457 20.6334 20.2067C20.5318 20.227 20.4221 20.2432 20.3125 20.2554C19.6868 20.3407 17.7409 20.5236 17.0625 20.3123C14.4096 19.4876 13.7475 7.26355 17.875 5.6873C18.6608 5.43425 19.5113 5.47173 20.2718 5.79292C20.3114 5.79772 20.3507 5.8045 20.3896 5.81324C21.0647 5.91828 21.7313 6.07169 22.3843 6.2723C22.3965 6.26011 22.4046 6.24386 22.4168 6.23167C23.1765 5.47605 24.0947 5.1673 24.4725 5.54511C24.8503 5.92292 24.5456 6.84511 23.79 7.60074C23.7778 7.61292 23.7615 7.62511 23.7493 7.6373C24.0196 8.72915 24.2056 9.84011 24.3059 10.9604L24.3668 11.7973C24.472 14.0387 24.2642 16.2839 23.7493 18.4679C23.7615 18.4801 23.7778 18.4882 23.79 18.5004Z" fill="#9B643E"/>
<path d="M21.5312 13.4061C21.5471 15.7035 21.245 17.9921 20.6334 20.2067C20.5318 20.227 20.4221 20.2433 20.3125 20.2555C19.6868 20.3408 17.7409 20.5236 17.0625 20.3124C14.4096 19.4877 13.7475 7.26361 17.875 5.68736C18.6608 5.4343 19.5113 5.47179 20.2718 5.79298C20.3114 5.79778 20.3507 5.80456 20.3896 5.81329C21.1692 8.26797 21.5545 10.8307 21.5312 13.4061Z" fill="#875838"/>
<path d="M9.34374 19.5001C8.2284 20.1641 6.92091 20.4305 5.63468 20.2557C5.58999 20.2476 5.54124 20.2436 5.49656 20.2354C4.84848 20.1404 4.20678 20.0061 3.57499 19.8332C3.56181 19.8459 3.54959 19.8594 3.53843 19.8739C2.78281 20.6295 1.86468 20.9342 1.48281 20.5564C1.10093 20.1786 1.41374 19.2604 2.16937 18.5007C2.18156 18.4886 2.19781 18.4804 2.20999 18.4682C1.88784 17.0801 1.68801 15.6663 1.61281 14.2432L1.58843 13.4064C1.55789 11.4652 1.76665 9.5277 2.20999 7.63762C2.19781 7.62543 2.18156 7.61324 2.16937 7.60105C1.41374 6.84543 1.10499 5.9273 1.48281 5.54543C1.86062 5.16355 2.78281 5.47637 3.53843 6.23199C3.55062 6.24418 3.56281 6.26043 3.57499 6.27262C3.83906 6.19137 4.20468 6.08574 4.65156 5.98824C4.65156 5.98824 5.05781 5.8948 5.47624 5.82574L5.72406 5.78918C7.10373 5.69799 8.48499 5.9419 9.74999 6.50012C12.935 8.2348 13.4266 16.9082 9.34374 19.5001Z" fill="#9B643E"/>
<path d="M9.34375 19.5001C8.2284 20.1641 6.92092 20.4305 5.63469 20.2557C5.59 20.2476 5.54125 20.2435 5.49656 20.2354C4.79626 17.8881 4.44985 15.4496 4.46875 13.0001C4.45031 10.5721 4.78979 8.15471 5.47625 5.82573L5.72406 5.78917C7.10374 5.69798 8.485 5.9419 9.75 6.50011C12.935 8.2348 13.4266 16.9082 9.34375 19.5001Z" fill="#875838"/>
<path d="M19.9551 19.8577C20.9057 20.8083 21.2916 21.9661 20.8163 22.4414C20.341 22.9167 19.1832 22.5308 18.2326 21.5802C18.2163 21.5639 18.2041 21.5477 18.1879 21.5314C14.7935 22.4739 11.2066 22.4739 7.81225 21.5314C7.796 21.5477 7.78381 21.5639 7.76756 21.5802C6.81693 22.5308 5.65912 22.9167 5.18381 22.4414C4.7085 21.9661 5.09443 20.8083 6.04506 19.8577C6.06131 19.8414 6.07756 19.8292 6.09381 19.813C6.041 19.5814 5.99225 19.3539 5.94756 19.1224C5.04922 14.8519 5.09915 10.4364 6.09381 6.18737C6.07756 6.17112 6.06131 6.15893 6.04506 6.14268C5.09443 5.19206 4.7085 4.03424 5.18381 3.55893C5.65912 3.08362 6.81693 3.46956 7.76756 4.42018C7.78381 4.43643 7.796 4.45268 7.81225 4.46893C11.1914 3.4208 14.8087 3.4208 18.1879 4.46893C18.2041 4.45268 18.2163 4.43643 18.2326 4.42018C19.1832 3.46956 20.341 3.08362 20.8163 3.55893C21.2916 4.03424 20.9057 5.19206 19.9551 6.14268C19.9388 6.15893 19.9226 6.17112 19.9063 6.18737C20.0201 6.63831 20.1176 7.09331 20.2069 7.54831C20.9759 11.6117 20.8734 15.7921 19.9063 19.813C19.9226 19.8292 19.9388 19.8414 19.9551 19.8577Z" fill="#A5683D"/>
<path d="M19.9063 6.18737C20.0201 6.63831 20.1176 7.09331 20.2069 7.54831C18.7793 9.98573 16.9482 12.163 14.7916 13.9874C12.168 16.2051 9.17425 17.9433 5.94756 19.1224C5.04922 14.8519 5.09915 10.4364 6.09381 6.18737C6.07756 6.17112 6.06131 6.15893 6.04506 6.14268C5.09443 5.19206 4.7085 4.03424 5.18381 3.55893C5.65912 3.08362 6.81693 3.46956 7.76756 4.42018C7.78381 4.43643 7.796 4.45268 7.81225 4.46893C11.1914 3.4208 14.8087 3.4208 18.1879 4.46893C18.2041 4.45268 18.2163 4.43643 18.2326 4.42018C19.1832 3.46956 20.341 3.08362 20.8163 3.55893C21.2916 4.03424 20.9057 5.19206 19.9551 6.14268C19.9388 6.15893 19.9226 6.17112 19.9063 6.18737Z" fill="#AF7146"/>
<path d="M13 12.1875C12.8923 12.1875 12.7889 12.1447 12.7127 12.0685C12.6366 11.9923 12.5938 11.889 12.5938 11.7812V7.71875C12.5938 7.39552 12.4653 7.08552 12.2368 6.85696C12.0082 6.6284 11.6982 6.5 11.375 6.5C11.2673 6.5 11.1639 6.4572 11.0877 6.38101C11.0116 6.30483 10.9688 6.20149 10.9688 6.09375C10.9688 5.98601 11.0116 5.88267 11.0877 5.80649C11.1639 5.7303 11.2673 5.6875 11.375 5.6875C11.9135 5.68815 12.4298 5.90236 12.8106 6.28315C13.1914 6.66395 13.4056 7.18023 13.4062 7.71875V11.7812C13.4062 11.889 13.3634 11.9923 13.2873 12.0685C13.2111 12.1447 13.1077 12.1875 13 12.1875Z" fill="#009245"/>
<path d="M13 8.125C12.8923 8.125 12.7889 8.0822 12.7127 8.00601C12.6366 7.92983 12.5938 7.82649 12.5938 7.71875V6.90625C12.5944 6.36773 12.8086 5.85145 13.1894 5.47065C13.5702 5.08986 14.0865 4.87565 14.625 4.875C14.7327 4.875 14.8361 4.9178 14.9123 4.99399C14.9884 5.07017 15.0312 5.17351 15.0312 5.28125C15.0312 5.38899 14.9884 5.49233 14.9123 5.56851C14.8361 5.6447 14.7327 5.6875 14.625 5.6875C14.3018 5.6875 13.9918 5.8159 13.7632 6.04446C13.5347 6.27302 13.4062 6.58302 13.4062 6.90625V7.71875C13.4062 7.82649 13.3634 7.92983 13.2873 8.00601C13.2111 8.0822 13.1077 8.125 13 8.125Z" fill="#009245"/>
<path d="M17.875 13.4062H8.125V18.2812H17.875V13.4062Z" fill="#E6E6E6"/>
<path d="M12.5938 14.625H9.34375V15.4375H12.5938V14.625Z" fill="#808080"/>
<path d="M16.6562 16.25H11.7812V17.0625H16.6562V16.25Z" fill="#808080"/>
<path d="M10.9688 16.25H9.34375V17.0625H10.9688V16.25Z" fill="#808080"/>
<path d="M16.6562 14.625H13.4062V15.4375H16.6562V14.625Z" fill="#808080"/>
<path d="M16.25 7.71876C16.249 8.36493 15.9919 8.98436 15.535 9.44127C15.0781 9.89818 14.4587 10.1553 13.8125 10.1563H13C12.9997 10.02 13.012 9.88402 13.0366 9.75001C13.1163 9.25004 13.354 8.78875 13.715 8.43376C13.9404 8.20634 14.2087 8.02601 14.5044 7.90326C14.8002 7.78051 15.1173 7.71779 15.4375 7.71876H16.25Z" fill="#13A555"/>
<path d="M12.1875 10.1562H13C13 9.50978 12.7432 8.8898 12.2861 8.43268C11.829 7.97556 11.209 7.71875 10.5625 7.71875H9.75C9.75 8.36522 10.0068 8.9852 10.4639 9.44232C10.921 9.89944 11.541 10.1562 12.1875 10.1562Z" fill="#13A555"/>
<path d="M10.1929 7.71876C10.2726 8.21873 10.5103 8.68002 10.8713 9.03501C11.0967 9.26243 11.365 9.44277 11.6607 9.56552C11.9565 9.68826 12.2736 9.75098 12.5938 9.75001H12.9635C12.8838 9.25004 12.646 8.78875 12.2851 8.43376C12.0597 8.20634 11.7913 8.02601 11.4956 7.90326C11.1999 7.78051 10.8827 7.71779 10.5626 7.71876H10.1929ZM15.8072 7.71876C15.7275 8.21873 15.4898 8.68002 15.1288 9.03501C14.9034 9.26243 14.6351 9.44277 14.3394 9.56552C14.0437 9.68826 13.7265 9.75098 13.4063 9.75001H13.0366C13.1163 9.25004 13.3541 8.78875 13.7151 8.43376C13.9404 8.20634 14.2088 8.02601 14.5045 7.90326C14.8002 7.78051 15.1174 7.71779 15.4376 7.71876H15.8072Z" fill="#22AF5E"/>
<path d="M24.761 5.25964C24.2329 4.73152 23.1827 4.97527 22.2682 5.81377C21.8364 5.69189 21.4021 5.59317 20.9682 5.50949C21.1068 5.28626 21.2201 5.04837 21.3062 4.80017C21.5207 4.1583 21.4484 3.61474 21.1031 3.27024C20.7578 2.92574 20.2151 2.85424 19.5736 3.06711C19.0118 3.27214 18.4996 3.59344 18.0705 4.01002C14.7604 3.03543 11.2397 3.03543 7.92964 4.01002C7.50044 3.59357 6.98826 3.27228 6.42652 3.06711C5.78505 2.85424 5.24189 2.92492 4.89699 3.27024C4.55208 3.61555 4.47977 4.1583 4.69386 4.80017C4.77915 5.04596 4.89142 5.28153 5.02861 5.50258C4.58174 5.58789 4.13486 5.6862 3.69083 5.81377C2.77596 4.97405 1.7258 4.73192 1.19808 5.25964C0.670364 5.78736 0.913708 6.84767 1.76399 7.76539C1.32035 9.75337 1.12764 11.7891 1.19036 13.825L2.00286 13.799C1.94037 11.758 2.14261 9.71747 2.60452 7.72842C2.61996 7.66135 2.6181 7.59146 2.59913 7.52531C2.58016 7.45915 2.54469 7.3989 2.49605 7.3502C2.48224 7.3368 2.46843 7.3242 2.45543 7.31486C1.79608 6.65389 1.63521 5.9718 1.77171 5.83408C1.90821 5.69636 2.59111 5.85886 3.25005 6.51699C3.25655 6.5247 3.28052 6.55111 3.28783 6.55761C3.33994 6.60983 3.40529 6.64688 3.47686 6.66477C3.54843 6.68266 3.62353 6.68073 3.69408 6.65917C4.31048 6.47402 4.93859 6.33043 5.57421 6.22936C5.5998 6.2582 5.62255 6.28827 5.64896 6.3167C4.65819 10.7168 4.65819 15.2822 5.64896 19.6823C5.60589 19.7282 5.56771 19.777 5.52708 19.8237C4.90509 19.7327 4.28908 19.6048 3.6823 19.4406C3.61221 19.4215 3.53826 19.4215 3.46816 19.4406C3.39807 19.4598 3.33439 19.4974 3.28377 19.5495L3.2529 19.5844C2.59193 20.245 1.90943 20.4071 1.77171 20.2718C1.63399 20.1365 1.79608 19.452 2.45746 18.791C2.46314 18.7865 2.48589 18.7654 2.49118 18.7601C2.54147 18.7115 2.57834 18.6506 2.59819 18.5835C2.61805 18.5164 2.62023 18.4453 2.60452 18.377C2.31778 17.1389 2.12991 15.8799 2.04268 14.6119L1.23018 14.6668C1.31622 15.9022 1.49438 17.1295 1.76318 18.3385C0.914114 19.2562 0.66752 20.3124 1.19727 20.8442C1.29492 20.9375 1.41034 21.0102 1.53666 21.058C1.66298 21.1058 1.79762 21.1278 1.93258 21.1225C2.60233 21.0646 3.22875 20.7672 3.69693 20.2848C4.12715 20.3957 4.56102 20.483 4.99408 20.5586C4.87256 20.7616 4.77197 20.9764 4.69386 21.1997C4.47936 21.8415 4.55168 22.3851 4.89699 22.7292C5.2423 23.0733 5.78465 23.1468 6.42652 22.9323C6.99109 22.7267 7.50562 22.4037 7.93614 21.9845C11.256 22.8614 14.7466 22.8614 18.0664 21.9845C18.4969 22.4037 19.0114 22.7267 19.576 22.9323C19.7943 23.0091 20.0235 23.0502 20.2549 23.0542C20.4112 23.0601 20.5672 23.0343 20.7133 22.9785C20.8595 22.9226 20.9929 22.8378 21.1056 22.7292C21.4505 22.3851 21.5228 21.8415 21.3087 21.1997C21.2299 20.9741 21.1281 20.7572 21.0048 20.5525C21.4249 20.4782 21.8453 20.3929 22.2642 20.2848C22.7319 20.7671 23.3579 21.0645 24.0273 21.1225C24.1623 21.1277 24.2969 21.1057 24.4232 21.0579C24.5495 21.0101 24.6649 20.9374 24.7626 20.8442C25.2907 20.3136 25.047 19.2558 24.1967 18.3385C24.6847 16.1807 24.8782 13.9669 24.772 11.7572L23.9595 11.8003C24.0653 14.0098 23.8615 16.2232 23.3541 18.3762C23.3436 18.4521 23.3515 18.5294 23.3773 18.6015C23.4032 18.6736 23.4461 18.7383 23.5024 18.7902C24.1634 19.4512 24.3239 20.1345 24.1874 20.271C24.0509 20.4075 23.368 20.2466 22.7119 19.5909L22.6802 19.5556C22.6297 19.5018 22.5655 19.4628 22.4945 19.4428C22.4235 19.4227 22.3483 19.4224 22.2772 19.4418C21.6823 19.6027 21.0786 19.7285 20.469 19.8184C20.4283 19.7737 20.3942 19.7274 20.3532 19.6835C21.3774 15.286 21.3774 10.7118 20.3532 6.31427C20.3771 6.28867 20.3971 6.26186 20.4206 6.23627C21.0438 6.3367 21.6597 6.47825 22.2642 6.65999C22.3356 6.68149 22.4115 6.68294 22.4837 6.66417C22.5558 6.64539 22.6214 6.60712 22.6733 6.55355L22.7046 6.51942C23.3655 5.85886 24.0472 5.69677 24.1849 5.83408C24.3226 5.97139 24.1626 6.65389 23.5036 7.31242C23.4976 7.31811 23.4724 7.34005 23.4667 7.34614C23.4156 7.39558 23.3785 7.45753 23.3589 7.52583C23.3393 7.59412 23.3379 7.66635 23.355 7.73533C23.6194 8.80429 23.8019 9.89186 23.901 10.9886L24.7102 10.9155C24.614 9.85383 24.4427 8.80035 24.1975 7.76295C25.045 6.84605 25.2907 5.7898 24.761 5.25964ZM20.5299 22.1548C20.419 22.2661 20.1517 22.2677 19.8316 22.1617C19.3331 21.9717 18.8832 21.673 18.5145 21.2874C18.5096 21.2817 18.4836 21.2529 18.4779 21.2468C18.4401 21.2082 18.3949 21.1775 18.345 21.1566C18.2951 21.1356 18.2416 21.1249 18.1875 21.1249C18.1512 21.125 18.1152 21.1298 18.0802 21.1391C14.7559 22.0593 11.2442 22.0593 7.9199 21.1391C7.84995 21.1201 7.77619 21.1201 7.70625 21.1392C7.63632 21.1583 7.57276 21.1957 7.52218 21.2476L7.48155 21.2931C7.11378 21.6761 6.66562 21.9728 6.16936 22.1617C5.84883 22.2677 5.58152 22.2653 5.47102 22.1548C5.36052 22.0443 5.35808 21.7765 5.46411 21.4564C5.65389 20.958 5.95225 20.5081 6.33755 20.1394C6.34324 20.1345 6.37208 20.1085 6.37818 20.1028C6.42813 20.0542 6.46472 19.9935 6.48443 19.9266C6.50413 19.8597 6.5063 19.7889 6.49071 19.7209C5.46042 15.2995 5.46042 10.7004 6.49071 6.27892C6.5063 6.21096 6.50413 6.14014 6.48443 6.07326C6.46472 6.00638 6.42813 5.94569 6.37818 5.89705L6.33268 5.85642C5.94967 5.48865 5.65302 5.04049 5.46411 4.54424C5.35808 4.22411 5.36011 3.95599 5.47102 3.84549C5.58193 3.73499 5.84964 3.73336 6.16936 3.83899C6.66748 4.02887 7.1171 4.32722 7.48561 4.71242C7.49049 4.71811 7.51649 4.74695 7.52218 4.75305C7.57393 4.8065 7.63945 4.84461 7.71149 4.86317C7.78354 4.88174 7.85932 4.88004 7.93046 4.85827C11.2332 3.83816 14.7669 3.83816 18.0696 4.85827C18.1408 4.87976 18.2165 4.88132 18.2885 4.86277C18.3605 4.84422 18.426 4.80626 18.4779 4.75305L18.5186 4.70755C18.8863 4.32454 19.3345 4.02789 19.8307 3.83899C20.1509 3.73255 20.419 3.73458 20.5291 3.84549C20.6392 3.95639 20.642 4.22411 20.536 4.54424C20.3461 5.04236 20.0478 5.49197 19.6626 5.86049C19.6569 5.86536 19.628 5.89136 19.6219 5.89705C19.5712 5.94649 19.5342 6.00835 19.5148 6.07648C19.4953 6.14461 19.494 6.21664 19.511 6.28542C20.5751 10.7007 20.5751 15.3056 19.511 19.7209C19.4954 19.7889 19.4976 19.8597 19.5173 19.9266C19.537 19.9935 19.5736 20.0542 19.6236 20.1028L19.6691 20.1434C20.0521 20.5112 20.3487 20.9594 20.5376 21.4556C20.6428 21.7749 20.6408 22.0443 20.5299 22.1548Z" fill="black"/>
<path d="M12.1875 10.5625H12.5938V11.7812C12.5938 11.889 12.6366 11.9923 12.7127 12.0685C12.7889 12.1447 12.8923 12.1875 13 12.1875C13.1077 12.1875 13.2111 12.1447 13.2873 12.0685C13.3634 11.9923 13.4062 11.889 13.4062 11.7812V10.5625H13.8125C14.5664 10.5615 15.2892 10.2616 15.8223 9.72852C16.3554 9.19542 16.6553 8.47266 16.6562 7.71875C16.6562 7.61101 16.6134 7.50767 16.5373 7.43149C16.4611 7.3553 16.3577 7.3125 16.25 7.3125H15.4375C15.0588 7.31241 14.6839 7.38826 14.335 7.53556C13.9861 7.68286 13.6703 7.89863 13.4062 8.17009V6.90625C13.4062 6.58302 13.5347 6.27302 13.7632 6.04446C13.9918 5.8159 14.3018 5.6875 14.625 5.6875C14.7327 5.6875 14.8361 5.6447 14.9123 5.56851C14.9884 5.49233 15.0312 5.38899 15.0312 5.28125C15.0312 5.17351 14.9884 5.07017 14.9123 4.99399C14.8361 4.9178 14.7327 4.875 14.625 4.875C14.2094 4.87622 13.8042 5.00506 13.4642 5.24412C13.1242 5.48317 12.8659 5.82088 12.7242 6.21156C12.3548 5.87595 11.8741 5.68922 11.375 5.6875C11.2673 5.6875 11.1639 5.7303 11.0877 5.80649C11.0116 5.88267 10.9688 5.98601 10.9688 6.09375C10.9688 6.20149 11.0116 6.30483 11.0877 6.38101C11.1639 6.4572 11.2673 6.5 11.375 6.5C11.6982 6.5 12.0082 6.6284 12.2368 6.85696C12.4653 7.08552 12.5938 7.39552 12.5938 7.71875V8.17009C12.3297 7.89863 12.0139 7.68286 11.665 7.53556C11.3161 7.38826 10.9412 7.31241 10.5625 7.3125H9.75C9.64226 7.3125 9.53892 7.3553 9.46274 7.43149C9.38655 7.50767 9.34375 7.61101 9.34375 7.71875C9.34472 8.47266 9.64464 9.19542 10.1777 9.72852C10.7108 10.2616 11.4336 10.5615 12.1875 10.5625ZM15.4375 8.125H15.8031C15.7089 8.58352 15.4595 8.99553 15.0968 9.29155C14.7342 9.58757 14.2806 9.74949 13.8125 9.75H13.4469C13.5411 9.29148 13.7905 8.87947 14.1532 8.58345C14.5158 8.28743 14.9694 8.12551 15.4375 8.125ZM10.5625 8.125C11.0306 8.12551 11.4842 8.28743 11.8468 8.58345C12.2095 8.87947 12.4589 9.29148 12.5531 9.75H12.1875C11.7194 9.74949 11.2658 9.58757 10.9032 9.29155C10.5405 8.99553 10.2911 8.58352 10.1969 8.125H10.5625ZM17.875 13H8.125C8.01726 13 7.91392 13.0428 7.83774 13.119C7.76155 13.1952 7.71875 13.2985 7.71875 13.4062V18.2812C7.71875 18.389 7.76155 18.4923 7.83774 18.5685C7.91392 18.6447 8.01726 18.6875 8.125 18.6875H17.875C17.9827 18.6875 18.0861 18.6447 18.1623 18.5685C18.2384 18.4923 18.2812 18.389 18.2812 18.2812V13.4062C18.2812 13.2985 18.2384 13.1952 18.1623 13.119C18.0861 13.0428 17.9827 13 17.875 13ZM17.4688 17.875H8.53125V13.8125H17.4688V17.875Z" fill="black"/>
<path d="M12.5938 14.625H9.34375V15.4375H12.5938V14.625Z" fill="black"/>
<path d="M16.6562 16.25H11.7812V17.0625H16.6562V16.25Z" fill="black"/>
<path d="M10.9688 16.25H9.34375V17.0625H10.9688V16.25Z" fill="black"/>
<path d="M16.6562 14.625H13.4062V15.4375H16.6562V14.625Z" fill="black"/>
</svg>
