<svg width="24" height="16" viewBox="0 0 24 16" fill="none" xmlns="http://www.w3.org/2000/svg">
<path d="M23.4605 4.72176C23.487 5.33668 23.3659 5.94901 23.1071 6.50781C22.8483 7.06661 22.4595 7.55572 21.9729 7.93445C19.2734 10.2939 16.2116 11.8653 10.0414 11.8653C9.79775 11.8653 9.54897 11.8628 9.29502 11.8578C2.88237 11.7313 0.782317 7.99326 0.554864 5.80927C0.535921 5.61234 0.529743 5.4144 0.536368 5.21667L0.396398 5.22016V9.67087C0.392264 10.6496 0.748961 11.5957 1.39869 12.3293C2.63593 13.7129 5.10541 15.6292 9.29253 15.6253C16.9549 15.6188 21.127 12.2416 22.7777 10.4853C23.3221 9.9104 23.626 9.15017 23.6275 8.35958V4.71777L23.4605 4.72176Z" fill="#E75457"/>
<path d="M23.6251 4.71777L23.4607 4.72176C23.4872 5.33668 23.366 5.94901 23.1072 6.50781C22.8485 7.06661 22.4596 7.55573 21.973 7.93445C19.2735 10.2939 16.2117 11.8653 10.0415 11.8653C9.79786 11.8653 9.54908 11.8628 9.29513 11.8579C4.03074 11.7527 1.67274 9.21633 0.869905 7.10262V8.67357C0.865963 9.65284 1.22362 10.5993 1.87469 11.3325C3.11143 12.7161 5.58091 14.6324 9.76803 14.6285C17.4304 14.622 21.603 11.2448 23.2532 9.48846C23.3483 9.38763 23.4364 9.28057 23.5171 9.16799C23.5888 8.90463 23.6251 8.63296 23.6251 8.36008V4.71777Z" fill="#F06963"/>
<path d="M0.404956 5.82455C0.618911 7.85852 2.5885 11.8731 9.29408 12.0072C16.3426 12.1482 19.4799 10.3126 22.0734 8.04691C25.2902 5.23444 23.0112 1.40374 19.7629 0.62923C14.9294 -0.522572 12.6894 2.58046 10.6378 2.36914C8.58623 2.15782 4.81403 0.674584 2.574 1.68733C0.333971 2.70008 0.321474 5.04256 0.404956 5.82455Z" fill="#DB4340"/>
<path d="M10.0414 11.5169C9.79975 11.5169 9.55347 11.5143 9.30253 11.509C3.13333 11.3853 1.11875 7.84372 0.900794 5.77237C0.834808 5.14887 0.77582 3.04562 2.7789 2.14153C3.32069 1.91967 3.90369 1.81551 4.48904 1.83601C5.80376 1.89984 7.10796 2.10266 8.37972 2.44106C9.10641 2.62314 9.84274 2.76457 10.5853 2.8647C10.6703 2.87353 10.7557 2.87786 10.8412 2.87766C11.719 2.79609 12.5678 2.52226 13.3272 2.07574C14.6549 1.33458 16.1414 0.921342 17.6623 0.870605C18.3304 0.874168 18.9958 0.955968 19.6448 1.11432C20.4368 1.28613 21.1683 1.66575 21.7637 2.21393C22.3591 2.7621 22.7969 3.45892 23.0316 4.23231C23.2471 5.09903 23.1981 6.39936 21.7424 7.67127C19.6149 9.5308 16.78 11.5159 10.0414 11.5159V11.5169Z" fill="#FCDCD0"/>
<path d="M7.13451 3.25836C5.97925 2.95932 3.27282 2.59898 2.50448 5.00276C1.9731 6.65944 3.42679 8.39787 5.54884 9.52624C7.6709 10.6546 10.2693 10.549 11.0027 9.98676C11.736 9.42457 11.5351 6.85233 10.5198 5.38852C9.66576 4.31687 8.47226 3.56587 7.13451 3.25836Z" fill="#E75457"/>
<path d="M7.13456 3.25806C6.19626 3.01384 4.23517 2.73175 3.11841 3.92093C3.06537 4.03757 3.0193 4.15722 2.98044 4.27928C2.44905 5.93596 3.90274 7.67438 6.02479 8.80276C8.03737 9.87283 10.4814 9.83395 11.3512 9.34552C11.5705 7.9686 11.2736 6.55939 10.5173 5.38673C9.66372 4.3161 8.4712 3.56569 7.13456 3.25806Z" fill="#F06963"/>
<path d="M13.5637 6.55915C13.4569 6.52722 13.3436 6.52363 13.235 6.54871C13.1264 6.5738 13.0262 6.62671 12.9444 6.70221C12.8625 6.7777 12.8019 6.87318 12.7684 6.9792C12.7349 7.08522 12.7297 7.19812 12.7534 7.30675C12.8813 7.87136 12.946 8.44838 12.9463 9.02722C12.9163 10.2608 14.596 10.2015 15.2548 9.98963C15.4519 9.92263 15.6307 9.8111 15.7773 9.66376C15.9239 9.51643 16.0343 9.33728 16.0999 9.14033C16.1656 8.94338 16.1846 8.73396 16.1556 8.52845C16.1266 8.32293 16.0503 8.1269 15.9327 7.95566C15.3088 7.00471 14.363 6.79937 13.5637 6.55915Z" fill="#E75457"/>
<path d="M15.6517 9.39819C15.8209 9.34123 15.9764 9.24974 16.1081 9.12955C16.1738 8.93403 16.1923 8.72585 16.1623 8.52185C16.1322 8.31785 16.0544 8.12377 15.9352 7.95532C15.3113 7.00487 14.3655 6.79953 13.5662 6.5598C13.4244 6.51646 13.2718 6.52441 13.1353 6.58223C13.1359 6.62697 13.1409 6.67154 13.1503 6.7153C13.2785 7.27987 13.3434 7.85691 13.3437 8.43578C13.3107 9.66882 14.9894 9.60951 15.6517 9.39819Z" fill="#F06963"/>
<path d="M12.8858 3.47598C12.5089 3.79196 11.1157 4.72198 12.5539 4.81468C13.9921 4.90738 15.4788 4.99062 16.522 6.19326C17.3064 7.09785 18.1432 8.06724 19.6149 7.6127C21.3195 7.08589 22.3853 5.68289 21.7724 4.10795C21.1596 2.53301 19.7729 1.75002 17.3369 1.91848C15.7521 2.08628 14.2282 2.61951 12.8858 3.47598Z" fill="#E75457"/>
<path d="M20.3008 6.90398C20.7483 6.76951 21.1692 6.55909 21.545 6.28198C21.7625 5.96761 21.8974 5.60387 21.9374 5.22406C21.9774 4.84426 21.9212 4.46051 21.774 4.10796C21.1606 2.53252 19.7744 1.75003 17.3384 1.91849C15.7543 2.08659 14.2311 2.61981 12.8893 3.47599C12.8258 3.52932 12.7334 3.60009 12.6309 3.68083C12.5429 3.89514 12.6629 4.06809 13.2418 4.10597C14.68 4.20016 16.1666 4.2824 17.2099 5.48454C17.9908 6.38914 18.8276 7.35852 20.3008 6.90398Z" fill="#F06963"/>
<path d="M5.36992 9.85411C6.53587 10.4504 7.82674 10.7633 9.13713 10.7672C9.86821 10.8181 10.5977 10.6478 11.2302 10.2787C11.7871 9.84963 11.8301 8.85731 11.8091 8.30359C11.8082 8.25421 11.7973 8.20551 11.777 8.16046C11.7567 8.11541 11.7275 8.07494 11.691 8.04152C11.6545 8.0081 11.6116 7.98241 11.5649 7.96603C11.5182 7.94965 11.4686 7.94292 11.4191 7.94624C11.3699 7.94816 11.3216 7.95975 11.2768 7.98034C11.2321 8.00094 11.1919 8.03013 11.1585 8.06624C11.1251 8.10235 11.0992 8.14468 11.0823 8.1908C11.0653 8.23692 11.0576 8.28592 11.0597 8.33499C11.0907 9.09156 10.9372 9.55956 10.7708 9.68814C10.1939 10.1327 7.77941 10.2862 5.72185 9.19423C3.5563 8.04293 2.43254 6.44157 2.85795 5.11483C3.5488 2.96323 6.01228 3.35199 7.03857 3.61963C7.55296 3.7537 9.30109 4.29247 10.2079 5.59977C10.5321 6.09104 10.765 6.63653 10.8953 7.2101C10.9187 7.30646 10.9795 7.38961 11.0644 7.44125C11.1493 7.49289 11.2513 7.5088 11.3479 7.48547C11.4446 7.46214 11.528 7.40148 11.5798 7.31685C11.6316 7.23221 11.6475 7.13053 11.6241 7.03416C11.4718 6.37127 11.2008 5.74119 10.8243 5.17414C9.77049 3.65501 7.80491 3.04697 7.22753 2.89645C6.26473 2.64725 3.05441 2.04917 2.1436 4.89005C1.59522 6.60056 2.83096 8.50395 5.36992 9.85411ZM13.8741 6.26015L13.6717 6.20084C13.5024 6.15015 13.3227 6.14439 13.1505 6.18413C12.9782 6.22387 12.8194 6.30774 12.6896 6.42745C12.5599 6.54715 12.4637 6.69855 12.4106 6.86667C12.3575 7.03478 12.3494 7.21381 12.3869 7.38603C12.509 7.92094 12.5708 8.46773 12.5714 9.0163C12.5582 9.2279 12.5982 9.43943 12.6876 9.63175C12.7771 9.82408 12.9133 9.99112 13.0838 10.1178C13.4754 10.3745 13.9382 10.5018 14.4065 10.4816C14.7325 10.4834 15.057 10.4371 15.3693 10.344C15.6199 10.2577 15.8476 10.116 16.0355 9.92946C16.2234 9.74294 16.3665 9.51647 16.4541 9.267C16.5417 9.0156 16.5686 8.74713 16.5325 8.48343C16.4965 8.21973 16.3985 7.96823 16.2466 7.74937C15.6751 6.96956 14.8265 6.43685 13.8741 6.26015ZM15.7472 9.0178C15.6972 9.15828 15.6169 9.28611 15.512 9.39229C15.407 9.49847 15.28 9.58041 15.1399 9.63232C14.6098 9.80436 14.0333 9.76378 13.5327 9.51919C13.4585 9.46347 13.4001 9.38958 13.3631 9.3047C13.326 9.21981 13.3116 9.12682 13.3212 9.03474C13.3232 8.4256 13.2562 7.81818 13.1213 7.22406C13.111 7.17927 13.1129 7.13256 13.1268 7.08876C13.1407 7.04495 13.1661 7.00563 13.2003 6.97486C13.249 6.92981 13.3128 6.90426 13.3792 6.90309C13.4058 6.90326 13.4322 6.90712 13.4577 6.91455L13.6652 6.97585C14.383 7.18568 15.1254 7.40248 15.6213 8.15756C15.7099 8.28037 15.7676 8.42263 15.7895 8.57235C15.8115 8.72207 15.797 8.87485 15.7472 9.0178ZM12.5294 5.18709L12.5859 5.19058C13.9856 5.28229 15.3118 5.36851 16.2441 6.44356C16.8975 7.19714 17.6828 8.10224 18.8936 8.10224C19.1765 8.09971 19.4574 8.05485 19.7269 7.96916C20.2199 7.83711 20.6809 7.60664 21.0819 7.29171C21.4829 6.97678 21.8156 6.58396 22.0599 6.13705C22.2224 5.80075 22.312 5.43409 22.3228 5.06096C22.3337 4.68784 22.2656 4.31662 22.1229 3.9715C21.8822 3.32646 21.4645 2.76186 20.9175 2.34212C20.3704 1.92238 19.7161 1.6644 19.029 1.59762C18.9307 1.58242 18.8304 1.60677 18.7501 1.66533C18.6698 1.72389 18.6161 1.81185 18.6009 1.90987C18.5856 2.00788 18.6101 2.10792 18.6688 2.18797C18.7275 2.26803 18.8158 2.32154 18.9141 2.33675C19.4708 2.38378 20.0025 2.58797 20.447 2.92542C20.8916 3.26287 21.2305 3.7196 21.424 4.24213C21.53 4.49135 21.5812 4.76027 21.5744 5.03087C21.5676 5.30146 21.5029 5.56748 21.3845 5.81109C21.1854 6.16606 20.9161 6.47714 20.5931 6.72555C20.2701 6.97396 19.8999 7.15456 19.5049 7.25645C18.2707 7.63823 17.5948 6.85773 16.8055 5.95015C15.6738 4.64484 14.0591 4.53967 12.6349 4.44647L12.5784 4.44298C12.507 4.43885 12.4359 4.43053 12.3654 4.41806C12.5468 4.2318 12.7423 4.05984 12.9503 3.90371C13.0198 3.84989 13.0808 3.80403 13.1273 3.76317C14.4102 2.96176 15.8578 2.45903 17.3624 2.29239C17.4839 2.28391 17.6028 2.27793 17.7183 2.27494C17.8178 2.27195 17.912 2.22976 17.9803 2.15764C18.0486 2.08552 18.0854 1.98934 18.0827 1.89018C18.0768 1.79219 18.0336 1.70015 17.962 1.63276C17.8904 1.56536 17.7958 1.52767 17.6973 1.52734C17.5713 1.53133 17.4424 1.53731 17.3104 1.54678C15.6468 1.72026 14.0481 2.28387 12.6449 3.1915C12.6034 3.22589 12.5494 3.26826 12.4879 3.3161C12.0065 3.69289 11.4071 4.16338 11.5671 4.67723C11.7091 5.13327 12.3265 5.17364 12.5294 5.18709Z" fill="#1E1E14"/>
<path d="M24 4.96194C23.9978 4.64485 23.9579 4.32915 23.881 4.02145C23.6062 3.09393 23.0876 2.25654 22.379 1.59606C21.6704 0.935576 20.7976 0.476022 19.8509 0.265014C16.675 -0.491557 14.5235 0.536642 12.9523 1.28873C12.047 1.72134 11.3332 2.06773 10.6778 1.99596C9.97105 1.89882 9.27015 1.76322 8.57824 1.58976C6.59416 1.13871 4.12568 0.577511 2.42154 1.34555C1.66559 1.70076 1.0324 2.27171 0.602214 2.98605C0.172025 3.70038 -0.0358078 4.52595 0.00504888 5.35816C0.00477299 5.36314 0.00477299 5.36813 0.00504888 5.37312V9.67032C0.00604306 10.7431 0.402422 11.7781 1.11881 12.5785C2.51452 14.1395 5.06248 16 9.2796 16H9.29259C16.967 15.993 21.2066 12.7031 23.0502 10.7419C23.6599 10.098 23.9997 9.24604 24 8.36052V4.96194ZM22.5043 10.231C20.7427 12.103 16.684 15.2459 9.29209 15.2529H9.2796C5.34043 15.2529 2.97192 13.5289 1.6787 12.0816C1.08473 11.4179 0.755974 10.5598 0.754891 9.67032V8.08541C1.1154 8.75306 1.58087 9.35882 2.1336 9.87965C2.20572 9.94792 2.3021 9.98483 2.40152 9.98226C2.50094 9.97969 2.59526 9.93785 2.66374 9.86594C2.73222 9.79403 2.76924 9.69795 2.76666 9.59883C2.76408 9.4997 2.72212 9.40566 2.64999 9.33739C1.62999 8.40715 0.967388 7.15131 0.776387 5.78629C0.726397 5.32726 0.594925 2.99076 2.72598 2.02885C4.20067 1.36349 6.53317 1.89379 8.40678 2.32042C9.12843 2.50089 9.85957 2.64132 10.5968 2.74107C11.4606 2.82829 12.3005 2.42857 13.2723 1.96456C14.8219 1.22244 16.7565 0.298407 19.6709 0.993675C20.485 1.17092 21.2368 1.56184 21.8485 2.12597C22.4602 2.69011 22.9096 3.40697 23.1502 4.20237C23.4661 5.47579 22.9947 6.74122 21.8215 7.76643C19.5969 9.71268 16.6086 11.781 9.30009 11.6315C6.92709 11.5842 4.969 11.0379 3.48032 10.0072C3.43978 9.97936 3.39413 9.95971 3.34598 9.94941C3.29783 9.93912 3.24811 9.93838 3.19967 9.94725C3.15123 9.95611 3.10502 9.9744 3.06367 10.0011C3.02232 10.0277 2.98664 10.0623 2.95868 10.1027C2.93071 10.1431 2.911 10.1886 2.90068 10.2366C2.89036 10.2846 2.88962 10.3342 2.89851 10.3825C2.9074 10.4308 2.92574 10.4769 2.95249 10.5181C2.97924 10.5593 3.01387 10.5949 3.05441 10.6228C4.66457 11.7382 6.76163 12.3293 9.2846 12.3791C9.54051 12.3845 9.79647 12.3871 10.0524 12.3871C16.3511 12.3871 19.5349 10.7603 22.3194 8.32564C22.6721 8.0199 22.9848 7.67111 23.2502 7.28747V8.36052C23.2497 9.05599 22.9829 9.72504 22.5043 10.231Z" fill="#1E1E14"/>
</svg>
