<svg width="38" height="38" viewBox="0 0 38 38" fill="none" xmlns="http://www.w3.org/2000/svg">
<path d="M34.4375 24.9375V32.0625C34.4375 32.6924 34.1873 33.2965 33.7419 33.7419C33.2965 34.1873 32.6924 34.4375 32.0625 34.4375H5.9375C5.30761 34.4375 4.70352 34.1873 4.25812 33.7419C3.81272 33.2965 3.5625 32.6924 3.5625 32.0625V24.9375H11.875V27.3125C11.875 27.9424 12.1252 28.5465 12.5706 28.9919C13.016 29.4373 13.6201 29.6875 14.25 29.6875H23.75C24.3799 29.6875 24.984 29.4373 25.4294 28.9919C25.8748 28.5465 26.125 27.9424 26.125 27.3125V24.9375H34.4375Z" fill="#87D1EE"/>
<path d="M32.0625 2.375H5.9375C4.99267 2.375 4.08653 2.75033 3.41843 3.41843C2.75033 4.08653 2.375 4.99267 2.375 5.9375V32.0625C2.375 33.0073 2.75033 33.9135 3.41843 34.5816C4.08653 35.2497 4.99267 35.625 5.9375 35.625H32.0625C33.0073 35.625 33.9135 35.2497 34.5816 34.5816C35.2497 33.9135 35.625 33.0073 35.625 32.0625V5.9375C35.625 4.99267 35.2497 4.08653 34.5816 3.41843C33.9135 2.75033 33.0073 2.375 32.0625 2.375ZM5.9375 4.75H32.0625C32.3774 4.75 32.6795 4.87511 32.9022 5.09781C33.1249 5.32051 33.25 5.62256 33.25 5.9375V23.75H26.125C25.8101 23.75 25.508 23.8751 25.2853 24.0978C25.0626 24.3205 24.9375 24.6226 24.9375 24.9375V27.3125C24.9375 27.6274 24.8124 27.9295 24.5897 28.1522C24.367 28.3749 24.0649 28.5 23.75 28.5H14.25C13.9351 28.5 13.633 28.3749 13.4103 28.1522C13.1876 27.9295 13.0625 27.6274 13.0625 27.3125V24.9375C13.0625 24.6226 12.9374 24.3205 12.7147 24.0978C12.492 23.8751 12.1899 23.75 11.875 23.75H4.75V5.9375C4.75 5.62256 4.87511 5.32051 5.09781 5.09781C5.32051 4.87511 5.62256 4.75 5.9375 4.75ZM32.0625 33.25H5.9375C5.62256 33.25 5.32051 33.1249 5.09781 32.9022C4.87511 32.6795 4.75 32.3774 4.75 32.0625V26.125H10.6875V27.3125C10.6875 28.2573 11.0628 29.1635 11.7309 29.8316C12.399 30.4997 13.3052 30.875 14.25 30.875H23.75C24.6948 30.875 25.601 30.4997 26.2691 29.8316C26.9372 29.1635 27.3125 28.2573 27.3125 27.3125V26.125H33.25V32.0625C33.25 32.3774 33.1249 32.6795 32.9022 32.9022C32.6795 33.1249 32.3774 33.25 32.0625 33.25Z" fill="#3A4D5C"/>
</svg>
