<svg width="38" height="38" viewBox="0 0 38 38" fill="none" xmlns="http://www.w3.org/2000/svg">
<g clip-path="url(#clip0_600_1968)">
<path d="M23.0731 8.7833L29.6875 25.6498C29.7699 25.8551 29.7972 26.0783 29.7668 26.2975C29.7364 26.5166 29.6493 26.724 29.5142 26.8991C29.379 27.0742 29.2005 27.211 28.9962 27.296C28.792 27.381 28.5691 27.4111 28.3496 27.3835C24.7079 26.9323 22.3171 26.5562 18.4538 26.9243C14.3608 27.3202 14.4954 27.4033 8.2373 29.8614C7.70551 30.0702 7.11264 30.0595 6.58873 29.8317C6.06483 29.6038 5.65269 29.1775 5.44271 28.6462L3.24584 23.0452C3.03861 22.5123 3.05097 21.919 3.28021 21.3953C3.50945 20.8715 3.9369 20.4599 4.46896 20.2506C10.5094 17.8756 10.6123 18.026 13.969 15.4729C17.0446 13.1296 18.6042 11.1741 20.9119 8.42309C21.0545 8.25433 21.2385 8.12553 21.4459 8.04935C21.6533 7.97317 21.877 7.95221 22.0949 7.98853C22.3129 8.02486 22.5177 8.11722 22.6891 8.25655C22.8606 8.39588 22.993 8.5774 23.0731 8.7833Z" fill="#FF7D3F"/>
<path d="M23.0731 8.78353L28.1517 21.7708C28.2318 21.9765 28.2573 22.1994 28.2257 22.4179C28.1941 22.6363 28.1065 22.8429 27.9714 23.0175C27.8363 23.192 27.6583 23.3286 27.4547 23.414C27.2512 23.4994 27.029 23.5306 26.8098 23.5046C23.1681 23.0533 20.7812 22.6773 16.9139 23.0454H16.7437C16.4293 23.0766 16.1133 23.0041 15.8439 22.839C15.5745 22.6739 15.3664 22.4253 15.2514 22.131L13.2129 16.906C13.1433 16.7177 13.1358 16.512 13.1913 16.319C13.2468 16.126 13.3626 15.9559 13.5217 15.8333C16.9773 13.2089 18.1133 11.7562 20.9119 8.44311C21.053 8.27382 21.2357 8.14404 21.442 8.06645C21.6484 7.98885 21.8713 7.96609 22.089 8.00039C22.3068 8.03468 22.5119 8.12487 22.6844 8.26213C22.8569 8.39939 22.9908 8.57904 23.0731 8.78353Z" fill="#FFBA4E"/>
<path d="M16.5617 15.5087C15.7383 16.2212 15.01 16.7793 14.4321 17.2187C14.3134 17.3081 14.2274 17.434 14.1873 17.577C14.1472 17.7201 14.1554 17.8724 14.2104 18.0104L14.4558 18.6437C14.4831 18.7367 14.5291 18.8232 14.5909 18.8979C14.6528 18.9726 14.7292 19.0338 14.8155 19.0779C14.9019 19.122 14.9963 19.148 15.093 19.1543C15.1898 19.1607 15.2868 19.1472 15.3781 19.1148L17.8125 18.1687C17.9427 18.1183 18.0475 18.0183 18.1039 17.8906C18.1603 17.7629 18.1637 17.6181 18.1133 17.4879L17.4167 15.7145C17.3863 15.6332 17.3364 15.5606 17.2714 15.503C17.2064 15.4454 17.1283 15.4047 17.0439 15.3843C16.9595 15.364 16.8714 15.3647 16.7873 15.3864C16.7032 15.4081 16.6257 15.4501 16.5617 15.5087ZM18.1292 14.4162L19.2098 17.187C19.2276 17.2389 19.256 17.2865 19.2931 17.3268C19.3303 17.3671 19.3754 17.3993 19.4257 17.4212C19.4759 17.4432 19.5302 17.4545 19.585 17.4544C19.6398 17.4543 19.694 17.4427 19.7442 17.4206L20.4092 17.1593C20.461 17.1415 20.5086 17.1132 20.5489 17.076C20.5893 17.0388 20.6214 16.9937 20.6434 16.9435C20.6653 16.8932 20.6766 16.839 20.6765 16.7841C20.6764 16.7293 20.6649 16.6751 20.6427 16.625L19.4552 13.577C19.4339 13.51 19.395 13.4498 19.3427 13.4027C19.2903 13.3557 19.2264 13.3234 19.1574 13.3093C19.0884 13.2952 19.017 13.2997 18.9503 13.3224C18.8837 13.3451 18.8243 13.3852 18.7783 13.4385L18.2083 13.9729C18.1517 14.03 18.1137 14.103 18.0996 14.1822C18.0854 14.2614 18.0958 14.343 18.1292 14.4162Z" fill="#FFDD67"/>
<path d="M17.3217 15.5247L17.4444 15.8334C17.4714 15.9069 17.476 15.9867 17.4577 16.0628C17.4394 16.1389 17.3989 16.2078 17.3414 16.2609C16.3598 17.1278 15.5008 17.7888 14.8398 18.2916C14.7917 18.3252 14.7368 18.3477 14.679 18.3575C14.6212 18.3673 14.5619 18.3641 14.5055 18.3482C14.4491 18.3323 14.3969 18.304 14.3527 18.2655C14.3085 18.2269 14.2734 18.1791 14.25 18.1253L14.1233 17.8126C14.0917 17.7327 14.087 17.6447 14.1099 17.5618C14.1327 17.479 14.1819 17.4058 14.25 17.3534C14.8912 16.8705 15.7383 16.2293 16.716 15.3743C16.7634 15.3372 16.8186 15.3114 16.8774 15.2988C16.9362 15.2862 16.9972 15.2872 17.0555 15.3017C17.1139 15.3162 17.1682 15.3438 17.2143 15.3825C17.2605 15.4211 17.2972 15.4697 17.3217 15.5247Z" fill="white"/>
<path d="M10.0779 18.0024L13.8779 27.7083C13.0863 27.9458 13.1258 27.9497 8.23334 29.8656C7.70156 30.0743 7.10868 30.0636 6.58478 29.8358C6.06088 29.608 5.64873 29.1817 5.43876 28.6504L3.24584 23.0454C3.0397 22.5124 3.05259 21.9196 3.2817 21.3961C3.51082 20.8726 3.93758 20.4609 4.46897 20.2508C9.57918 18.2479 9.36542 18.3508 10.0779 18.0024Z" fill="#64A6EE"/>
<path d="M4.58374 20.2075C4.08419 20.3689 3.6615 20.7085 3.39624 21.1615L4.51645 24.0154C4.58643 24.2061 4.70085 24.3774 4.85023 24.5151C4.99961 24.6528 5.17964 24.7529 5.37541 24.8071C5.48071 24.8331 5.59114 24.8295 5.69454 24.7967C5.79794 24.764 5.89031 24.7034 5.9615 24.6216C6.03269 24.5397 6.07993 24.4399 6.09805 24.3329C6.11616 24.226 6.10443 24.1161 6.06416 24.0154L4.58374 20.2075Z" fill="#87CEFF"/>
<path d="M4.6033 21.2053L3.89929 21.4809C3.72219 21.5502 3.63482 21.75 3.70416 21.9271L3.86866 22.3473C3.938 22.5244 4.13777 22.6118 4.31488 22.5425L5.01889 22.2668C5.196 22.1975 5.28336 21.9977 5.21403 21.8206L5.04952 21.4004C4.98019 21.2233 4.78041 21.136 4.6033 21.2053Z" fill="white"/>
<path d="M6.55499 24.6368L7.83353 24.146L6.55499 24.6527V24.6368Z" fill="#64A6EE"/>
<path d="M12.4094 23.9561L13.8779 27.7086C13.0863 27.9461 13.1258 27.95 8.23334 29.8658C7.70156 30.0746 7.10868 30.0639 6.58478 29.8361C6.06088 29.6083 5.64874 29.1819 5.43876 28.6506L3.95834 24.8942C4.06072 25.1601 4.21476 25.4031 4.41157 25.6091C4.60838 25.8152 4.84405 25.9802 5.10499 26.0946C5.36593 26.2091 5.64695 26.2707 5.93184 26.276C6.21672 26.2812 6.49983 26.23 6.7648 26.1252C11.875 24.1104 11.6494 24.1856 12.4094 23.9561Z" fill="#4B79DF"/>
<path d="M20.9515 24.9966C20.7179 25.0877 20.0173 24.9373 17.6383 25.1668C16.5498 25.2698 16.055 25.3093 15.4613 25.4004C15.4072 25.4088 15.352 25.4065 15.2988 25.3935C15.2456 25.3806 15.1955 25.3573 15.1514 25.3249C15.1073 25.2925 15.07 25.2518 15.0416 25.2049C15.0133 25.1581 14.9945 25.1062 14.9863 25.0521C14.9713 24.9432 14.9993 24.8327 15.0643 24.7441C15.1293 24.6554 15.2262 24.5956 15.3346 24.5771C17.1476 24.3269 18.9749 24.1947 20.805 24.1812C20.9047 24.1794 21.0018 24.2132 21.0788 24.2765C21.1558 24.3398 21.2078 24.4284 21.2255 24.5266C21.2431 24.6247 21.2252 24.7259 21.175 24.812C21.1248 24.8982 21.0455 24.9636 20.9515 24.9966Z" fill="#FFBA4E"/>
<path d="M11.3514 16.5022L10.3488 16.8947C10.0109 17.027 9.84422 17.4082 9.97651 17.7461L13.9794 27.9709C14.1117 28.3088 14.4929 28.4755 14.8308 28.3432L15.8334 27.9507C16.1713 27.8184 16.338 27.4373 16.2057 27.0993L12.2028 16.8746C12.0705 16.5366 11.6893 16.3699 11.3514 16.5022Z" fill="#352D5B"/>
<path d="M11.3477 16.5003L10.3452 16.8928C10.0072 17.0251 9.84055 17.4063 9.97285 17.7442L13.1533 25.868C13.2856 26.2059 13.6667 26.3726 14.0047 26.2403L15.0072 25.8478C15.3452 25.7155 15.5119 25.3343 15.3796 24.9964L12.1992 16.8726C12.0669 16.5347 11.6857 16.368 11.3477 16.5003Z" fill="#3F416A"/>
<path d="M11.5442 17.8196L11.1056 17.9913C10.957 18.0495 10.8837 18.2171 10.9419 18.3658L12.0876 21.2924C12.1458 21.441 12.3134 21.5143 12.462 21.4561L12.9007 21.2844C13.0493 21.2262 13.1226 21.0586 13.0644 20.91L11.9186 17.9834C11.8605 17.8347 11.6928 17.7614 11.5442 17.8196Z" fill="#536997"/>
<path d="M11.9044 18.7386L11.4657 18.9103C11.3171 18.9685 11.2438 19.1361 11.302 19.2847L11.6714 20.2283C11.7296 20.3769 11.8972 20.4502 12.0458 20.392L12.4844 20.2203C12.6331 20.1621 12.7064 19.9945 12.6482 19.8459L12.2788 18.9023C12.2206 18.7537 12.053 18.6804 11.9044 18.7386Z" fill="#6291C9"/>
<path d="M7.80506 18.9462L5.26913 19.939L9.03252 29.5519L11.5684 28.5591L7.80506 18.9462Z" fill="#8C97E4"/>
<path d="M7.80503 18.9437L5.2691 19.9365L7.58082 25.8414L10.1167 24.8486L7.80503 18.9437Z" fill="#E1E7F8"/>
<path d="M10.6494 26.2216L8.11346 27.2144L8.41794 27.9921L10.9539 26.9993L10.6494 26.2216Z" fill="#FF7D3F"/>
<path d="M9.9075 24.3163L7.37158 25.3091L7.67606 26.0868L10.212 25.094L9.9075 24.3163Z" fill="#FF7D3F"/>
<path d="M9.16169 22.411L6.62576 23.4038L6.93024 24.1815L9.46616 23.1887L9.16169 22.411Z" fill="#FFBA4E"/>
<path d="M8.41736 20.5131L5.88144 21.5059L6.18592 22.2836L8.72184 21.2908L8.41736 20.5131Z" fill="#FFBA4E"/>
<path d="M19.7917 9.7417L20.7654 12.2354C20.7889 12.286 20.8015 12.3409 20.8023 12.3967C20.8031 12.4524 20.7921 12.5077 20.77 12.5589C20.748 12.6101 20.7154 12.656 20.6743 12.6937C20.6333 12.7315 20.5847 12.7601 20.5319 12.7777C20.4285 12.8179 20.3133 12.8154 20.2117 12.7709C20.1101 12.7264 20.0302 12.6435 19.9896 12.5402L19.1781 10.4661L19.7917 9.7417Z" fill="#FFDD67"/>
<path d="M24.3081 22.4001C24.2563 22.4226 24.2004 22.4343 24.1439 22.4347C24.0874 22.435 24.0314 22.424 23.9793 22.4022C23.9272 22.3804 23.88 22.3482 23.8406 22.3078C23.8012 22.2673 23.7704 22.2192 23.75 22.1666L20.8723 14.7684C20.8527 14.7191 20.8432 14.6664 20.8444 14.6134C20.8456 14.5603 20.8574 14.5081 20.8792 14.4597C20.901 14.4113 20.9323 14.3678 20.9712 14.3318C21.0101 14.2957 21.0559 14.2679 21.1058 14.2499C21.1567 14.2294 21.2112 14.2191 21.2661 14.2198C21.321 14.2204 21.3752 14.2319 21.4257 14.2536C21.4761 14.2753 21.5217 14.3068 21.5599 14.3463C21.5981 14.3857 21.628 14.4323 21.6481 14.4834L24.5417 21.8618C24.5645 21.9121 24.5765 21.9667 24.577 22.022C24.5774 22.0772 24.5663 22.132 24.5443 22.1827C24.5223 22.2334 24.4899 22.279 24.4492 22.3164C24.4085 22.3539 24.3605 22.3824 24.3081 22.4001Z" fill="#FF7D3F"/>
<path d="M25.6223 24.6128L26.6238 27.1739L25.6817 27.0551L24.8425 24.9374C24.8225 24.8854 24.8129 24.83 24.8143 24.7743C24.8157 24.7186 24.8281 24.6638 24.8507 24.6129C24.8733 24.562 24.9057 24.516 24.9461 24.4776C24.9864 24.4392 25.034 24.4092 25.0859 24.3892C25.1379 24.3691 25.1933 24.3596 25.249 24.361C25.3047 24.3624 25.3596 24.3747 25.4105 24.3973C25.4614 24.4199 25.5073 24.4524 25.5457 24.4927C25.5841 24.5331 25.6142 24.5806 25.6342 24.6326L25.6223 24.6128Z" fill="#FF4B26"/>
<path d="M3.24585 23.0454L5.43876 28.6465L3.04001 28.5594C2.8869 28.5533 2.73883 28.503 2.61376 28.4145C2.48869 28.3259 2.39201 28.203 2.33543 28.0606L1.36564 25.5787C1.31072 25.436 1.29832 25.2804 1.32993 25.1308C1.36154 24.9812 1.43581 24.8439 1.54376 24.7356L3.24585 23.0454Z" fill="#FF7D3F"/>
<path d="M2.6323 23.6548L1.54376 24.7354C1.43581 24.8437 1.36154 24.981 1.32993 25.1306C1.29832 25.2802 1.31072 25.4358 1.36564 25.5785L1.58335 26.1248C1.63992 26.2672 1.73661 26.3901 1.86168 26.4786C1.98675 26.5672 2.13482 26.6175 2.28793 26.6235H2.81043C2.91831 26.625 3.02493 26.6003 3.12109 26.5514C3.21726 26.5025 3.30009 26.4309 3.36242 26.3428C3.42476 26.2548 3.46474 26.1529 3.47891 26.0459C3.49308 25.939 3.48102 25.8302 3.44376 25.729L2.6323 23.6548Z" fill="#FFBA4E"/>
<path d="M14.2036 21.9858L11.9773 22.8574L12.8374 25.0542L15.0637 24.1827L14.2036 21.9858Z" fill="#4E5FB6"/>
<path d="M14.2044 21.9854L11.9781 22.8569L12.4369 24.0291L14.6632 23.1575L14.2044 21.9854Z" fill="#6782CF"/>
<path d="M28.4446 18.9365L27.3838 19.7915L25.3729 14.6457L26.7267 14.5467C26.9543 14.5302 27.1813 14.587 27.3743 14.7088C27.5673 14.8306 27.7163 15.011 27.7994 15.2236L28.7731 17.7095C28.8568 17.9222 28.8701 18.1562 28.811 18.3771C28.7518 18.598 28.6234 18.794 28.4446 18.9365Z" fill="#FF2353"/>
<path d="M8.55289 29.7441L12.718 28.1135L13.3255 29.6653C13.3814 29.808 13.3783 29.9671 13.3169 30.1075C13.2554 30.248 13.1408 30.3583 12.998 30.4141L9.90922 31.6234C9.7665 31.6793 9.60742 31.6762 9.46699 31.6147C9.32656 31.5533 9.21627 31.4386 9.1604 31.2959L8.55289 29.7441Z" fill="#3F416A"/>
<path d="M12.7163 28.1101L8.55121 29.7407L8.91773 30.6769L13.0828 29.0463L12.7163 28.1101Z" fill="#3A3256"/>
<path d="M17.0683 35.2292C17.171 35.4853 17.1941 35.7664 17.1348 36.0358C17.0754 36.3052 16.9363 36.5506 16.7355 36.7398C16.5347 36.929 16.2816 37.0534 16.0092 37.0968C15.7367 37.1401 15.4575 37.1004 15.2079 36.9828C12.9247 35.8356 11.1468 33.8842 10.2165 31.5044L12.7656 30.499C13.4512 32.2416 14.7547 33.6705 16.4271 34.5128C16.7222 34.6639 16.9508 34.9192 17.0683 35.2292Z" fill="#4E5FB6"/>
<path d="M17.0683 35.2292C17.171 35.4853 17.1941 35.7664 17.1348 36.0358C17.0754 36.3052 16.9363 36.5506 16.7355 36.7398C16.5347 36.929 16.2816 37.0534 16.0092 37.0968C15.7367 37.1401 15.4575 37.1004 15.2079 36.9828C12.9247 35.8356 11.1468 33.8842 10.2165 31.5044L12.7656 30.499C13.4512 32.2416 14.7547 33.6705 16.4271 34.5128C16.7222 34.6639 16.9508 34.9192 17.0683 35.2292Z" fill="#E1E7F8"/>
<path d="M16.2292 35.7081C15.9585 35.7494 15.6818 35.7051 15.4375 35.5814C13.53 34.6277 11.9647 33.1066 10.9567 31.2273L12.7894 30.5068C13.4707 32.2424 14.765 33.6677 16.4271 34.5127C16.5442 34.5763 16.6385 34.6749 16.697 34.7946C16.7555 34.9143 16.7752 35.0493 16.7535 35.1808C16.7317 35.3123 16.6695 35.4337 16.5755 35.5282C16.4816 35.6227 16.3605 35.6856 16.2292 35.7081Z" fill="#C8CEF8"/>
<path d="M24.1452 15.1285L23.4265 15.4098C23.1822 15.5055 23.0617 15.781 23.1573 16.0253L24.8211 20.2752C24.9168 20.5195 25.1923 20.64 25.4366 20.5444L26.1554 20.263C26.3996 20.1673 26.5201 19.8918 26.4245 19.6475L24.7607 15.3976C24.6651 15.1533 24.3895 15.0328 24.1452 15.1285Z" fill="#FFD36C"/>
<path d="M8.44943 18.6914L9.43358 18.3061L11.1046 22.5744C11.1298 22.6389 11.1284 22.7109 11.1007 22.7743C11.0729 22.8378 11.0211 22.8877 10.9566 22.9129L10.4626 23.1063C10.3981 23.1316 10.3262 23.1302 10.2627 23.1024C10.1992 23.0746 10.1494 23.0228 10.1241 22.9583L8.45312 18.69L8.44943 18.6914Z" fill="#87CEFF"/>
<path d="M9.06473 19.4606L9.50704 19.2874C9.5784 19.2595 9.65794 19.261 9.72816 19.2917C9.79837 19.3224 9.85351 19.3798 9.88145 19.4511L10.1917 20.2436C10.2162 20.3062 10.2148 20.3759 10.1879 20.4375C10.161 20.499 10.1107 20.5474 10.0482 20.5719L9.5395 20.771C9.47693 20.7955 9.4072 20.7941 9.34564 20.7672C9.28408 20.7403 9.23574 20.69 9.21124 20.6275L8.90099 19.835C8.87306 19.7636 8.87461 19.6841 8.90532 19.6139C8.93602 19.5437 8.99336 19.4885 9.06473 19.4606Z" fill="white"/>
<path d="M11.5148 11.4434C12.3685 10.1866 12.7229 8.6567 12.5087 7.15261C12.2944 5.64851 11.5269 4.27839 10.3562 3.31006C9.18546 2.34174 7.69571 1.84483 6.17811 1.91646C4.66052 1.9881 3.2242 2.62313 2.1499 3.69742C1.07561 4.77171 0.44058 6.20804 0.368946 7.72563C0.297312 9.24322 0.794224 10.733 1.76255 11.9037C2.73087 13.0744 4.10099 13.8419 5.60509 14.0562C7.10918 14.2704 8.63912 13.9161 9.89584 13.0623L12.9873 13.7432L11.5148 11.4434Z" fill="#009245"/>
<path d="M4.56397 11.3524C4.4419 11.3535 4.3238 11.3959 4.22877 11.4725C4.13375 11.5491 4.06736 11.6556 4.04034 11.7746C4.01333 11.8937 4.02727 12.0184 4.07991 12.1285C4.13256 12.2386 4.22082 12.3278 4.33043 12.3815C5.00676 12.7183 5.75198 12.8935 6.50751 12.8935C7.26303 12.8935 8.00826 12.7183 8.68459 12.3815C8.79083 12.3249 8.87501 12.2342 8.92368 12.1241C8.97235 12.014 8.98269 11.8907 8.95306 11.774C8.92343 11.6573 8.85554 11.5539 8.76023 11.4804C8.66492 11.4068 8.5477 11.3673 8.4273 11.3682L4.56397 11.3524ZM9.87209 7.84132C10.0733 7.84128 10.2714 7.79177 10.4489 7.69715C10.6264 7.60254 10.778 7.46572 10.8902 7.29875C11.0024 7.13178 11.0719 6.93978 11.0925 6.73966C11.113 6.53953 11.0841 6.33742 11.0081 6.15112C10.6421 5.24354 10.0132 4.4661 9.20203 3.91862C8.39091 3.37114 7.43465 3.07861 6.45605 3.07861C5.47745 3.07861 4.52119 3.37114 3.71007 3.91862C2.89894 4.4661 2.26999 5.24354 1.90397 6.15112C1.82887 6.33722 1.80057 6.5389 1.82153 6.73849C1.8425 6.93807 1.9121 7.12947 2.02423 7.2959C2.13636 7.46234 2.28759 7.59873 2.46469 7.69313C2.64178 7.78753 2.83933 7.83706 3.04001 7.83737L9.87209 7.84132Z" fill="#2DCC8C"/>
<path d="M3.95833 8.36784H3.52688C3.42189 8.36784 3.32121 8.32614 3.24698 8.2519C3.17275 8.17767 3.13104 8.07699 3.13104 7.97201C3.13104 7.86702 3.17275 7.76634 3.24698 7.69211C3.32121 7.61788 3.42189 7.57617 3.52688 7.57617H3.95833C4.06332 7.57617 4.164 7.61788 4.23823 7.69211C4.31246 7.76634 4.35417 7.86702 4.35417 7.97201C4.35417 8.07699 4.31246 8.17767 4.23823 8.2519C4.164 8.32614 4.06332 8.36784 3.95833 8.36784ZM6.89542 8.36784H6.47188C6.36689 8.36784 6.26621 8.32614 6.19198 8.2519C6.11775 8.17767 6.07604 8.07699 6.07604 7.97201C6.07604 7.86702 6.11775 7.76634 6.19198 7.69211C6.26621 7.61788 6.36689 7.57617 6.47188 7.57617H6.89542C7.0004 7.57617 7.10108 7.61788 7.17531 7.69211C7.24955 7.76634 7.29125 7.86702 7.29125 7.97201C7.29125 8.07699 7.24955 8.17767 7.17531 8.2519C7.10108 8.32614 7.0004 8.36784 6.89542 8.36784ZM9.84042 8.36784H9.41688C9.31189 8.36784 9.21121 8.32614 9.13698 8.2519C9.06275 8.17767 9.02104 8.07699 9.02104 7.97201C9.02104 7.86702 9.06275 7.76634 9.13698 7.69211C9.21121 7.61788 9.31189 7.57617 9.41688 7.57617H9.84042C9.9454 7.57617 10.0461 7.61788 10.1203 7.69211C10.1945 7.76634 10.2363 7.86702 10.2363 7.97201C10.2363 8.07699 10.1945 8.17767 10.1203 8.2519C10.0461 8.32614 9.9454 8.36784 9.84042 8.36784Z" fill="white"/>
<path d="M32.68 11.2733L30.396 13.5612C30.2803 13.6772 30.1328 13.7563 29.9721 13.7884C29.8114 13.8204 29.6448 13.804 29.4934 13.7413C29.342 13.6785 29.2127 13.5722 29.1218 13.4359C29.0309 13.2995 28.9826 13.1392 28.9829 12.9754V11.2733H28.6504C28.2452 11.2733 27.8566 11.1123 27.57 10.8258C27.2835 10.5392 27.1225 10.1506 27.1225 9.74537V2.42641C27.122 2.22542 27.1611 2.02631 27.2377 1.84048C27.3142 1.65465 27.4267 1.48575 27.5686 1.34345C27.7106 1.20115 27.8792 1.08825 28.0648 1.01121C28.2504 0.934182 28.4494 0.894531 28.6504 0.894531H36.0723C36.4786 0.894531 36.8682 1.05592 37.1555 1.34321C37.4428 1.63049 37.6042 2.02013 37.6042 2.42641V9.74537C37.6042 9.94635 37.5645 10.1454 37.4875 10.331C37.4105 10.5166 37.2976 10.6852 37.1553 10.8272C37.013 10.9691 36.8441 11.0816 36.6582 11.1581C36.4724 11.2347 36.2733 11.2738 36.0723 11.2733H32.68Z" fill="#E1E7F8"/>
<path d="M36.4167 5.60495V3.04391C36.4167 2.7888 36.3153 2.54414 36.1349 2.36376C35.9546 2.18337 35.7099 2.08203 35.4548 2.08203H29.2679C29.1418 2.08203 29.0169 2.10694 28.9004 2.15533C28.7839 2.20371 28.6782 2.27463 28.5892 2.364C28.5002 2.45337 28.4297 2.55943 28.3818 2.67611C28.3339 2.79279 28.3095 2.91778 28.31 3.04391V5.60495C28.31 5.76872 28.3751 5.92578 28.4909 6.04159C28.6067 6.15739 28.7637 6.22245 28.9275 6.22245H35.7992C35.9629 6.22245 36.12 6.15739 36.2358 6.04159C36.3516 5.92578 36.4167 5.76872 36.4167 5.60495Z" fill="white"/>
<path d="M28.9829 11.2775H28.6504C28.4494 11.2775 28.2504 11.2378 28.0648 11.1608C27.8792 11.0838 27.7106 10.9709 27.5686 10.8286C27.4267 10.6863 27.3142 10.5174 27.2377 10.3315C27.1611 10.1457 27.122 9.94659 27.1225 9.74561V8.55811C27.1225 8.96333 27.2835 9.35197 27.57 9.63851C27.8566 9.92505 28.2452 10.086 28.6504 10.086H28.9829V11.2775ZM37.6042 8.57394V9.76144C37.6042 10.1677 37.4428 10.5574 37.1555 10.8446C36.8682 11.1319 36.4786 11.2933 36.0723 11.2933H32.68L30.396 13.5773C30.2803 13.6933 30.1328 13.7724 29.9721 13.8044C29.8114 13.8365 29.6448 13.8201 29.4934 13.7574C29.342 13.6946 29.2127 13.5883 29.1218 13.4519C29.0309 13.3156 28.9826 13.1553 28.9829 12.9914V11.8039C28.9826 11.9678 29.0309 12.1281 29.1218 12.2644C29.2127 12.4008 29.342 12.5071 29.4934 12.5699C29.6448 12.6326 29.8114 12.649 29.9721 12.6169C30.1328 12.5849 30.2803 12.5058 30.396 12.3898L32.68 10.1019H36.0723C36.2733 10.1024 36.4724 10.0632 36.6582 9.98669C36.8441 9.91014 37.013 9.79767 37.1553 9.65574C37.2976 9.51381 37.4105 9.3452 37.4875 9.15956C37.5645 8.97393 37.6042 8.77492 37.6042 8.57394Z" fill="#BEC9F8"/>
<path d="M34.5562 5.81101L32.9254 7.43789C32.8517 7.51269 32.7639 7.57209 32.6671 7.61264C32.5703 7.65318 32.4663 7.67406 32.3613 7.67406C32.2564 7.67406 32.1524 7.65318 32.0556 7.61264C31.9587 7.57209 31.8709 7.51269 31.7973 7.43789L29.6558 5.29643C29.3824 5.00218 29.2337 4.61336 29.241 4.21173C29.2484 3.81011 29.4112 3.42699 29.6953 3.14295C29.9793 2.85891 30.3624 2.69609 30.764 2.68874C31.1657 2.68138 31.5545 2.83006 31.8487 3.10351L34.5562 5.81101Z" fill="#C80F53"/>
<path d="M31.7973 7.43767L30.1704 5.81079L32.8779 3.10329C33.0199 2.95052 33.1912 2.82794 33.3816 2.74287C33.572 2.6578 33.7776 2.61199 33.9861 2.60817C34.1946 2.60435 34.4018 2.64261 34.5952 2.72065C34.7886 2.79869 34.9643 2.91492 35.1117 3.06238C35.2592 3.20985 35.3754 3.38553 35.4535 3.57893C35.5315 3.77233 35.5698 3.97947 35.5659 4.18799C35.5621 4.3965 35.5163 4.60211 35.4312 4.79252C35.3462 4.98293 35.2236 5.15424 35.0708 5.29621L32.9254 7.43767C32.8517 7.51247 32.7639 7.57187 32.6671 7.61242C32.5703 7.65296 32.4663 7.67384 32.3613 7.67384C32.2564 7.67384 32.1524 7.65296 32.0556 7.61242C31.9588 7.57187 31.8709 7.51247 31.7973 7.43767Z" fill="#FF2353"/>
<path d="M31.5123 26.8375H30.2258V22.42C30.2259 22.1552 30.1308 21.8991 29.9578 21.6985C29.7848 21.498 29.5455 21.3663 29.2835 21.3274C29.0215 21.2885 28.7543 21.3451 28.5306 21.4868C28.3068 21.6285 28.1414 21.8459 28.0646 22.0994L27.5619 23.75C27.379 24.3504 27.0155 24.8798 26.5208 25.2661L25.1394 26.3625C24.7428 26.6724 24.2533 26.8398 23.75 26.8375H20.7338V34.1525C23.3146 34.1525 24.2369 34.0813 25.7213 34.4494C27.5975 34.9125 27.7756 34.8452 31.5123 34.8452V26.8375Z" fill="#FFD8B2"/>
<path d="M28.2308 29.2441C27.9781 29.3465 27.7111 29.4093 27.4392 29.4302V31.0887C27.4392 31.4761 27.2853 31.8476 27.0114 32.1215C26.7375 32.3955 26.3659 32.5494 25.9786 32.5494H20.7338V34.1564C23.8213 34.1564 24.1854 34.0614 26.0973 34.5523C27.649 34.9481 28.4723 34.8452 32.1813 34.8452C32.4253 34.8508 32.6636 34.7701 32.854 34.6173C33.0444 34.4645 33.1748 34.2495 33.2223 34.01C33.245 33.8687 33.2371 33.7241 33.199 33.5861C33.1609 33.4482 33.0936 33.32 33.0016 33.2104C32.9096 33.1007 32.7951 33.0122 32.6659 32.9507C32.5366 32.8892 32.3956 32.8563 32.2525 32.8541C32.4975 32.86 32.7369 32.7796 32.9286 32.627C33.1204 32.4743 33.2523 32.2591 33.3015 32.0189C33.3275 31.8739 33.3214 31.725 33.2837 31.5826C33.2461 31.4402 33.1777 31.3078 33.0834 31.1946C32.9891 31.0815 32.8711 30.9903 32.7379 30.9276C32.6046 30.8648 32.4592 30.832 32.3119 30.8314H33.4756C33.6636 30.8406 33.8503 30.7964 34.0142 30.704C34.178 30.6115 34.3125 30.4746 34.4019 30.3091C34.4913 30.1435 34.532 29.956 34.5194 29.7683C34.5068 29.5806 34.4414 29.4002 34.3306 29.2481L28.2308 29.2441Z" fill="#FFBA8A"/>
<path d="M30.8948 26.8377C30.8982 27.7701 30.543 28.6681 29.9027 29.346C29.2624 30.0238 28.3861 30.4296 27.455 30.4793C27.374 30.5051 27.2881 30.5117 27.2041 30.4986C27.1201 30.4856 27.0402 30.4533 26.9708 30.4042C26.9014 30.3551 26.8443 30.2906 26.804 30.2157C26.7637 30.1408 26.7413 30.0576 26.7386 29.9727C26.7386 29.8351 26.7932 29.7033 26.8904 29.606C26.9877 29.5088 27.1196 29.4541 27.2571 29.4541C27.9468 29.4541 28.6083 29.1801 29.096 28.6924C29.5837 28.2047 29.8577 27.5432 29.8577 26.8535C29.8577 26.716 29.9124 26.5841 30.0096 26.4868C30.1068 26.3896 30.2387 26.335 30.3763 26.335C30.5138 26.335 30.6457 26.3896 30.7429 26.4868C30.8402 26.5841 30.8948 26.716 30.8948 26.8535V26.8377Z" fill="#FFBA8A"/>
<path d="M33.9823 33.6931C33.9834 33.9937 33.8652 34.2825 33.6538 34.4962C33.4423 34.7099 33.1548 34.831 32.8542 34.8331H30.2179C29.9267 34.8159 29.653 34.6882 29.4529 34.4759C29.2527 34.2636 29.1412 33.9829 29.1412 33.6911C29.1412 33.3994 29.2527 33.1186 29.4529 32.9064C29.653 32.6941 29.9267 32.5663 30.2179 32.5491H32.8542C33.1552 32.5523 33.4427 32.6743 33.654 32.8886C33.8654 33.1029 33.9834 33.3921 33.9823 33.6931ZM35.2292 31.4091C35.2292 31.7115 35.1091 32.0015 34.8953 32.2152C34.6815 32.429 34.3915 32.5491 34.0892 32.5491H30.9938C30.6904 32.5491 30.3994 32.4286 30.1849 32.2141C29.9703 31.9995 29.8498 31.7086 29.8498 31.4052C29.8498 31.1018 29.9703 30.8108 30.1849 30.5963C30.3994 30.3817 30.6904 30.2612 30.9938 30.2612H34.105C34.4057 30.2664 34.6922 30.3898 34.9025 30.6046C35.1129 30.8194 35.2303 31.1085 35.2292 31.4091ZM34.8333 26.8373C34.8333 27.1396 34.7132 27.4296 34.4995 27.6434C34.2857 27.8572 33.9957 27.9773 33.6933 27.9773H30.9938C30.6914 27.9773 30.4015 27.8572 30.1877 27.6434C29.9739 27.4296 29.8538 27.1396 29.8538 26.8373C29.8538 26.5349 29.9739 26.245 30.1877 26.0312C30.4015 25.8174 30.6914 25.6973 30.9938 25.6973H33.7092C34.0088 25.7014 34.2947 25.8234 34.5051 26.0367C34.7154 26.2501 34.8334 26.5376 34.8333 26.8373ZM35.4825 29.1212C35.4825 29.4236 35.3624 29.7135 35.1486 29.9273C34.9348 30.1411 34.6449 30.2612 34.3425 30.2612H30.7563C30.465 30.2441 30.1913 30.1163 29.9912 29.904C29.791 29.6917 29.6796 29.411 29.6796 29.1192C29.6796 28.8275 29.791 28.5468 29.9912 28.3345C30.1913 28.1222 30.465 27.9944 30.7563 27.9773H34.3425C34.6446 27.9804 34.9333 28.102 35.1466 28.316C35.3598 28.53 35.4805 28.8191 35.4825 29.1212Z" fill="#FFD8B2"/>
<path d="M30.7088 34.8335H30.2179C29.9267 34.8164 29.653 34.6886 29.4529 34.4763C29.2527 34.264 29.1412 33.9833 29.1412 33.6915C29.1412 33.3998 29.2527 33.1191 29.4529 32.9068C29.653 32.6945 29.9267 32.5667 30.2179 32.5496C30.7246 32.5496 31.1283 32.4942 31.5123 32.886C31.6721 33.0452 31.781 33.2482 31.8254 33.4694C31.8697 33.6905 31.8475 33.9198 31.7614 34.1283C31.6754 34.3368 31.5295 34.5151 31.3421 34.6406C31.1547 34.7662 30.9343 34.8333 30.7088 34.8335Z" fill="#FFC999"/>
<path d="M33.1075 31.4094C33.1075 31.5595 33.0779 31.7081 33.0203 31.8466C32.9628 31.9852 32.8785 32.111 32.7722 32.217C32.6659 32.3229 32.5398 32.4067 32.401 32.4638C32.2622 32.5209 32.1136 32.55 31.9635 32.5494H30.9938C30.6904 32.5494 30.3994 32.4289 30.1848 32.2144C29.9703 31.9999 29.8498 31.7089 29.8498 31.4055C29.8498 31.1021 29.9703 30.8111 30.1848 30.5966C30.3994 30.3821 30.6904 30.2615 30.9938 30.2615H31.9635C32.267 30.2636 32.5573 30.3853 32.7715 30.6003C32.9857 30.8152 33.1065 31.106 33.1075 31.4094ZM31.5677 27.9776H30.9938C30.6914 27.9776 30.4014 27.8575 30.1876 27.6437C29.9739 27.4299 29.8537 27.1399 29.8537 26.8376C29.8537 26.5352 29.9739 26.2453 30.1876 26.0315C30.4014 25.8177 30.6914 25.6976 30.9938 25.6976C31.5638 25.6976 31.9794 25.6342 32.3792 26.0301C32.5394 26.1898 32.6485 26.3935 32.6926 26.6154C32.7367 26.8373 32.7138 27.0672 32.6268 27.2761C32.5398 27.4849 32.3926 27.6631 32.204 27.788C32.0154 27.9129 31.7939 27.9789 31.5677 27.9776Z" fill="#FFC999"/>
<path d="M33.345 29.1215C33.345 29.2715 33.3154 29.4201 33.2579 29.5587C33.2003 29.6972 33.116 29.8231 33.0097 29.929C32.9034 30.0349 32.7773 30.1188 32.6385 30.1759C32.4998 30.2329 32.3511 30.262 32.2011 30.2615H30.7563C30.465 30.2443 30.1913 30.1166 29.9912 29.9043C29.791 29.692 29.6796 29.4113 29.6796 29.1195C29.6796 28.8278 29.791 28.547 29.9912 28.3348C30.1913 28.1225 30.465 27.9947 30.7563 27.9775H32.2011C32.5041 27.9786 32.7945 28.0994 33.0088 28.3137C33.2231 28.5281 33.344 28.8184 33.345 29.1215Z" fill="#FFC999"/>
<path d="M22.5981 26.1094H19.4513C19.0687 26.1094 18.7585 26.4195 18.7585 26.8021V34.1408C18.7585 34.5234 19.0687 34.8335 19.4513 34.8335H22.5981C22.9807 34.8335 23.2908 34.5234 23.2908 34.1408V26.8021C23.2908 26.4195 22.9807 26.1094 22.5981 26.1094Z" fill="#E1E7F8"/>
<path d="M21.0227 33.5508C21.5758 33.5508 22.0242 33.1024 22.0242 32.5493C22.0242 31.9962 21.5758 31.5479 21.0227 31.5479C20.4696 31.5479 20.0212 31.9962 20.0212 32.5493C20.0212 33.1024 20.4696 33.5508 21.0227 33.5508Z" fill="#3F416A"/>
</g>
<defs>
<clipPath id="clip0_600_1968">
<rect width="38" height="38" fill="white"/>
</clipPath>
</defs>
</svg>
