<svg width="35" height="35" viewBox="0 0 35 35" fill="none" xmlns="http://www.w3.org/2000/svg">
<g clip-path="url(#clip0_600_2036)">
<path d="M24.0625 1.09375H10.9375C8.52125 1.09375 6.5625 3.0525 6.5625 5.46875V9.84375C6.5625 12.26 8.52125 14.2188 10.9375 14.2188H24.0625C26.4787 14.2188 28.4375 12.26 28.4375 9.84375V5.46875C28.4375 3.0525 26.4787 1.09375 24.0625 1.09375Z" fill="#009245"/>
<path d="M21.875 20.7814H25.8016L30.5813 15.8923C30.7658 15.7077 30.9849 15.5613 31.2261 15.4614C31.4672 15.3615 31.7257 15.3101 31.9867 15.3101C32.2478 15.3101 32.5062 15.3615 32.7474 15.4614C32.9885 15.5613 33.2076 15.7077 33.3922 15.8923C33.5789 16.0723 33.7274 16.2881 33.8289 16.5268C33.9304 16.7654 33.9827 17.0221 33.9828 17.2814C33.982 17.5423 33.9294 17.8003 33.828 18.0407C33.7266 18.281 33.5785 18.4988 33.3922 18.6814L23.5484 28.4377H14.2188L13.7594 28.5689C13.6717 28.1583 13.4665 27.7821 13.1688 27.4861L7.4375 21.6783L7.9625 21.1642C9.84375 18.747 11.8125 18.6048 14.5469 18.5939H19.6875C20.2663 18.5982 20.8202 18.83 21.2296 19.2394C21.6389 19.6487 21.8707 20.2026 21.875 20.7814Z" fill="#FFEBD2"/>
<path d="M28.4375 8.75V9.84375C28.4375 11.0041 27.9766 12.1169 27.1561 12.9373C26.3356 13.7578 25.2228 14.2188 24.0625 14.2188H22.9688C22.9688 12.7683 23.5449 11.3773 24.5705 10.3518C25.5961 9.32617 26.9871 8.75 28.4375 8.75ZM28.4375 5.46875V6.5625C26.9871 6.5625 25.5961 5.98633 24.5705 4.96074C23.5449 3.93515 22.9688 2.54415 22.9688 1.09375H24.0625C25.2228 1.09375 26.3356 1.55469 27.1561 2.37516C27.9766 3.19563 28.4375 4.30843 28.4375 5.46875Z" fill="#009245"/>
<path d="M17.5 9.84375C18.7081 9.84375 19.6875 8.86437 19.6875 7.65625C19.6875 6.44813 18.7081 5.46875 17.5 5.46875C16.2918 5.46875 15.3125 6.44813 15.3125 7.65625C15.3125 8.86437 16.2918 9.84375 17.5 9.84375Z" fill="#009245"/>
<path d="M10.9375 1.09375H12.0312C12.0312 2.54415 11.4551 3.93515 10.4295 4.96074C9.92167 5.46856 9.3188 5.87139 8.6553 6.14622C7.9918 6.42105 7.28067 6.5625 6.5625 6.5625V5.46875C6.5625 4.30843 7.02344 3.19563 7.84391 2.37516C8.66438 1.55469 9.77718 1.09375 10.9375 1.09375ZM12.0312 14.2188H10.9375C9.77718 14.2188 8.66438 13.7578 7.84391 12.9373C7.02344 12.1169 6.5625 11.0041 6.5625 9.84375V8.75C8.0129 8.75 9.4039 9.32617 10.4295 10.3518C11.4551 11.3773 12.0312 12.7683 12.0312 14.2188Z" fill="#009245"/>
<path d="M13.7703 28.5657C13.8656 28.9489 13.8614 29.3501 13.758 29.7313C13.6546 30.1124 13.4556 30.4608 13.1797 30.7433L10.7515 33.225C10.5461 33.4402 10.2991 33.6114 10.0256 33.7284C9.75204 33.8454 9.45763 33.9057 9.16013 33.9057C8.86263 33.9057 8.56822 33.8454 8.29469 33.7284C8.02117 33.6114 7.7742 33.4402 7.56872 33.225L1.74997 27.286C1.32888 26.8479 1.09369 26.2639 1.09369 25.6563C1.09369 25.0487 1.32888 24.4646 1.74997 24.0266L3.57654 22.1672L4.15622 21.5766C4.36184 21.3642 4.60789 21.1952 4.87987 21.0794C5.15184 20.9636 5.44425 20.9034 5.73986 20.9024C6.03546 20.9013 6.32827 20.9595 6.60105 21.0734C6.87382 21.1873 7.12103 21.3547 7.3281 21.5657L7.43747 21.675L13.1797 27.4818C13.4776 27.7781 13.6828 28.1547 13.7703 28.5657Z" fill="#F46C80"/>
<path d="M13.1797 27.4839L12.6328 26.9272L10.7515 28.8478C10.5461 29.063 10.2991 29.2342 10.0256 29.3512C9.75205 29.4682 9.45764 29.5285 9.16014 29.5285C8.86264 29.5285 8.56823 29.4682 8.2947 29.3512C8.02118 29.2342 7.77421 29.063 7.56874 28.8478L2.29686 23.4688L1.74999 24.0266C1.32882 24.4648 1.0936 25.049 1.0936 25.6568C1.0936 26.2646 1.32882 26.8488 1.74999 27.287L7.56874 33.2261C7.77429 33.4411 8.02128 33.6122 8.2948 33.7291C8.56832 33.846 8.86269 33.9063 9.16014 33.9063C9.4576 33.9063 9.75196 33.846 10.0255 33.7291C10.299 33.6122 10.546 33.4411 10.7515 33.2261L13.1797 30.7422C13.4556 30.4599 13.6547 30.1117 13.758 29.7307C13.8614 29.3498 13.8656 28.9487 13.7703 28.5656C13.6828 28.1553 13.4776 27.7794 13.1797 27.4839Z" fill="#ED5C71"/>
<path d="M7.40183 23.2207C6.97469 22.7936 6.28217 22.7936 5.85503 23.2207C5.4279 23.6479 5.4279 24.3404 5.85503 24.7675L7.33532 26.2478C7.76245 26.675 8.45498 26.675 8.88211 26.2478C9.30925 25.8207 9.30925 25.1282 8.88211 24.701L7.40183 23.2207Z" fill="#F4ADB7"/>
<path d="M6.7725 33.9994C7.07995 34.3168 7.44804 34.5691 7.85492 34.7414C8.26179 34.9138 8.69915 35.0026 9.14102 35.0026C9.58288 35.0026 10.0202 34.9138 10.4271 34.7414C10.834 34.5691 11.2021 34.3168 11.5095 33.9994L13.9388 31.51C14.4586 30.9714 14.7852 30.2755 14.8673 29.5314H23.508C23.7949 29.5302 24.0699 29.4163 24.2736 29.2142L34.0988 19.4525C34.6731 18.8748 34.9945 18.0926 34.9921 17.278C34.9897 16.4634 34.6639 15.6831 34.0862 15.1087C33.5085 14.5343 32.7263 14.213 31.9117 14.2153C31.097 14.2177 30.3167 14.5436 29.7423 15.1213L24.978 20.0158C24.8723 20.1172 24.7881 20.2387 24.7303 20.3732C24.6725 20.5078 24.6422 20.6525 24.6414 20.799C24.6406 20.9454 24.6692 21.0905 24.7255 21.2256C24.7818 21.3608 24.8647 21.4833 24.9692 21.5858C25.0737 21.6884 25.1977 21.7689 25.334 21.8226C25.4702 21.8763 25.6158 21.9021 25.7622 21.8985C25.9085 21.8949 26.0527 21.8619 26.1861 21.8015C26.3195 21.7412 26.4394 21.6546 26.5388 21.5471L31.2987 16.6667C31.4678 16.4997 31.696 16.406 31.9337 16.406C32.1714 16.406 32.3995 16.4997 32.5686 16.6667C32.7319 16.8307 32.8236 17.0527 32.8236 17.2842C32.8236 17.5156 32.7319 17.7376 32.5686 17.9016L23.0628 27.3439H14.4047C14.2706 27.1156 14.1098 26.9041 13.9256 26.7139L8.94907 21.6728C10.4803 19.8135 12.0116 19.6942 14.5184 19.6855H19.6503C19.9404 19.6855 20.2186 19.8007 20.4237 20.0058C20.6288 20.211 20.7441 20.4892 20.7441 20.7792C20.7441 21.0693 20.6288 21.3475 20.4237 21.5526C20.2186 21.7578 19.9404 21.873 19.6503 21.873C19.3602 21.873 19.082 21.9882 18.8769 22.1933C18.6718 22.3985 18.5566 22.6767 18.5566 22.9667C18.5566 23.2568 18.6718 23.535 18.8769 23.7401C19.082 23.9453 19.3602 24.0605 19.6503 24.0605C20.5206 24.0605 21.3552 23.7148 21.9705 23.0994C22.5859 22.4841 22.9316 21.6495 22.9316 20.7792C22.9316 19.909 22.5859 19.0744 21.9705 18.459C21.3552 17.8437 20.5206 17.498 19.6503 17.498H14.5097C11.6167 17.5089 9.38657 17.7386 7.30844 20.2324C6.67933 19.876 5.94933 19.7396 5.23398 19.8448C4.51863 19.95 3.85879 20.2907 3.35891 20.8131L0.965785 23.2675C0.346516 23.9099 0.000488281 24.7673 0.000488281 25.6596C0.000488281 26.5518 0.346516 27.4093 0.965785 28.0516L6.7725 33.9994ZM2.52766 24.7988L4.92188 22.3422C5.02612 22.2338 5.1511 22.1474 5.28939 22.0882C5.42768 22.029 5.57646 21.9982 5.72688 21.9977C5.87646 21.9979 6.02449 22.0281 6.16219 22.0866C6.2999 22.145 6.42449 22.2304 6.5286 22.3378L12.3681 28.2528C12.5928 28.4841 12.7185 28.7939 12.7185 29.1163C12.7185 29.4388 12.5928 29.7486 12.3681 29.9799L9.95313 32.4692C9.73812 32.682 9.44786 32.8013 9.14539 32.8013C8.84293 32.8013 8.55267 32.682 8.33766 32.4692L2.52766 26.5214C2.30401 26.2905 2.17895 25.9816 2.17895 25.6601C2.17895 25.3386 2.30401 25.0297 2.52766 24.7988Z" fill="black"/>
<path d="M15.3092 24.0669C15.9133 24.0669 16.403 23.5772 16.403 22.9731C16.403 22.3691 15.9133 21.8794 15.3092 21.8794C14.7052 21.8794 14.2155 22.3691 14.2155 22.9731C14.2155 23.5772 14.7052 24.0669 15.3092 24.0669Z" fill="black"/>
<path d="M17.5 4.375C16.6298 4.375 15.7952 4.7207 15.1798 5.33606C14.5645 5.95141 14.2188 6.78601 14.2188 7.65625C14.2188 7.94633 14.334 8.22453 14.5391 8.42965C14.7442 8.63477 15.0224 8.75 15.3125 8.75C15.6026 8.75 15.8808 8.63477 16.0859 8.42965C16.291 8.22453 16.4062 7.94633 16.4062 7.65625C16.4062 7.43993 16.4704 7.22846 16.5906 7.0486C16.7108 6.86873 16.8816 6.72854 17.0814 6.64576C17.2813 6.56297 17.5012 6.54131 17.7134 6.58352C17.9255 6.62572 18.1204 6.72989 18.2734 6.88285C18.4264 7.03582 18.5305 7.2307 18.5727 7.44287C18.6149 7.65504 18.5933 7.87495 18.5105 8.07481C18.4277 8.27467 18.2875 8.44549 18.1077 8.56567C17.9278 8.68585 17.7163 8.75 17.5 8.75C17.2099 8.75 16.9317 8.86523 16.7266 9.07035C16.5215 9.27547 16.4062 9.55367 16.4062 9.84375C16.4062 10.1338 16.5215 10.412 16.7266 10.6171C16.9317 10.8223 17.2099 10.9375 17.5 10.9375C18.3702 10.9375 19.2048 10.5918 19.8202 9.97644C20.4355 9.36109 20.7812 8.52649 20.7812 7.65625C20.7812 6.78601 20.4355 5.95141 19.8202 5.33606C19.2048 4.7207 18.3702 4.375 17.5 4.375Z" fill="black"/>
<path d="M10.9375 0C9.48763 0.00173672 8.09764 0.578465 7.07243 1.60368C6.04721 2.62889 5.47049 4.01888 5.46875 5.46875V9.84375C5.47049 11.2936 6.04721 12.6836 7.07243 13.7088C8.09764 14.734 9.48763 15.3108 10.9375 15.3125H24.0625C25.5124 15.3108 26.9024 14.734 27.9276 13.7088C28.9528 12.6836 29.5295 11.2936 29.5312 9.84375V5.46875C29.5295 4.01888 28.9528 2.62889 27.9276 1.60368C26.9024 0.578465 25.5124 0.00173672 24.0625 0L10.9375 0ZM27.3438 7.75797C26.0032 7.98663 24.7666 8.62573 23.8047 9.58706C22.8428 10.5484 22.2029 11.7846 21.9734 13.125H13.0266C12.7971 11.7846 12.1572 10.5484 11.1953 9.58706C10.2334 8.62573 8.99683 7.98663 7.65625 7.75797V7.56C8.99753 7.33085 10.2346 6.6909 11.1965 5.72854C12.1585 4.76617 12.798 3.52887 13.0266 2.1875H21.9734C22.202 3.52887 22.8415 4.76617 23.8035 5.72854C24.7654 6.6909 26.0025 7.33085 27.3438 7.56V7.75797ZM10.7767 2.20609C10.5794 2.95159 10.1883 3.63159 9.64314 4.17697C9.09794 4.72236 8.41809 5.11371 7.67266 5.31125C7.71239 4.50073 8.05215 3.73397 8.62586 3.16005C9.19957 2.58614 9.96622 2.24612 10.7767 2.20609ZM7.67266 10.0067C8.41824 10.2039 9.09826 10.5952 9.6435 11.1406C10.1887 11.6861 10.5798 12.3662 10.7767 13.1119C9.96622 13.0719 9.19957 12.7318 8.62586 12.1579C8.05215 11.584 7.71239 10.8172 7.67266 10.0067ZM24.2233 13.1119C24.4202 12.3662 24.8113 11.6861 25.3565 11.1406C25.9017 10.5952 26.5818 10.2039 27.3273 10.0067C27.2876 10.8172 26.9478 11.584 26.3741 12.1579C25.8004 12.7318 25.0338 13.0719 24.2233 13.1119ZM27.3273 5.31125C26.5819 5.11371 25.9021 4.72236 25.3569 4.17697C24.8117 3.63159 24.4206 2.95159 24.2233 2.20609C25.0338 2.24612 25.8004 2.58614 26.3741 3.16005C26.9478 3.73397 27.2876 4.50073 27.3273 5.31125Z" fill="black"/>
</g>
<defs>
<clipPath id="clip0_600_2036">
<rect width="35" height="35" fill="white"/>
</clipPath>
</defs>
</svg>
