<svg width="24" height="24" viewBox="0 0 24 24" fill="none" xmlns="http://www.w3.org/2000/svg">
<g clip-path="url(#clip0_576_1669)">
<path d="M11.9997 24.0005C18.6271 24.0005 23.9997 18.6279 23.9997 12.0005C23.9997 5.37307 18.6271 0.000488281 11.9997 0.000488281C5.37228 0.000488281 -0.000297546 5.37307 -0.000297546 12.0005C-0.000297546 18.6279 5.37228 24.0005 11.9997 24.0005Z" fill="white"/>
<path d="M15.919 7.22705L14.8585 8.28755L15.212 8.64105L16.2735 7.58105L15.919 7.22705ZM14.242 9.00055C14.2243 9.00102 14.2067 9.00336 14.1895 9.00755L7.1895 10.7576C7.13548 10.771 7.08749 10.8021 7.05317 10.846C7.01884 10.8898 7.00013 10.9439 7 10.9996H6.25C6.1837 10.9996 6.12011 11.0259 6.07322 11.0728C6.02634 11.1197 6 11.1832 6 11.2496V12.7496C6 12.8159 6.02634 12.8794 6.07322 12.9263C6.12011 12.9732 6.1837 12.9996 6.25 12.9996H7C6.9999 13.0554 7.01851 13.1097 7.05286 13.1537C7.0872 13.1978 7.13531 13.229 7.1895 13.2426L8.25 13.5076V14.2496C8.25003 14.3073 8.27008 14.3633 8.30672 14.408C8.34337 14.4526 8.39435 14.4832 8.451 14.4946L10.951 14.9946C10.9873 15.0018 11.0247 15.0009 11.0605 14.992C11.0964 14.983 11.1299 14.9662 11.1585 14.9428C11.187 14.9193 11.2101 14.8899 11.2259 14.8564C11.2418 14.823 11.25 14.7865 11.25 14.7496V14.2576L14.1895 14.9926C14.2264 15.0018 14.2649 15.0024 14.3021 14.9945C14.3393 14.9866 14.3741 14.9703 14.4041 14.9469C14.434 14.9234 14.4582 14.8935 14.4748 14.8593C14.4915 14.8251 14.5001 14.7876 14.5 14.7496V13.5756C14.7996 13.4339 15.0527 13.2099 15.2297 12.9298C15.4068 12.6496 15.5005 12.3249 15.5 11.9936C15.4978 11.6644 15.4028 11.3426 15.2259 11.065C15.049 10.7875 14.7974 10.5655 14.5 10.4246V9.24955C14.4999 9.21612 14.4931 9.18305 14.4799 9.1523C14.4668 9.12156 14.4477 9.09375 14.4236 9.07054C14.3996 9.04732 14.3711 9.02917 14.3399 9.01714C14.3087 9.00512 14.2754 8.99948 14.242 9.00055ZM17.4385 9.34405L16.046 9.90405L16.2325 10.3676L17.625 9.80905L17.4385 9.34405ZM14 9.57105V14.4301L7.5 12.8051V11.1961L14 9.57105ZM14.5 11.0011C14.6549 11.117 14.7807 11.2675 14.8673 11.4406C14.9539 11.6137 14.999 11.8045 14.999 11.9981C14.999 12.1916 14.9539 12.3824 14.8673 12.5555C14.7807 12.7286 14.6549 12.8791 14.5 12.9951V11.0011ZM6.5 11.4996H7V12.4996H6.5V11.4996ZM16.5 11.7496V12.2496H18V11.7496H16.5ZM8.75 13.6326L10.75 14.1326V14.4451L8.75 14.0451V13.6326ZM16.195 13.7371L15.999 14.1971L17.378 14.7871L17.574 14.3271L16.1955 13.7371H16.195ZM15.212 15.3591L14.8585 15.7126L15.9185 16.7726L16.2735 16.4196L15.212 15.3591Z" fill="#009245"/>
</g>
<defs>
<clipPath id="clip0_576_1669">
<rect width="24" height="24" fill="white"/>
</clipPath>
</defs>
</svg>
