<svg width="35" height="35" viewBox="0 0 35 35" fill="none" xmlns="http://www.w3.org/2000/svg">
<path d="M13.2069 29.4176C12.7989 29.7444 12.4892 30.1777 12.3122 30.6695C12.1351 31.1614 12.0975 31.6926 12.2036 32.2045C12.2447 32.3942 12.3057 32.5791 12.3855 32.756L6.26023 34.0292L0 5.75548L6.13115 4.48231C6.12592 4.67991 6.14764 4.87729 6.19569 5.06903C6.39922 5.84032 6.89566 6.50177 7.57939 6.91266C8.26312 7.32356 9.08018 7.45148 9.85678 7.2692C10.2449 7.20582 10.6163 7.06505 10.9489 6.85527C11.2815 6.64549 11.5685 6.37098 11.7929 6.04805C12.0173 5.72513 12.1745 5.36038 12.2552 4.97549C12.3358 4.59061 12.3382 4.19344 12.2623 3.80759C12.223 3.6174 12.162 3.43235 12.0804 3.25608L16.428 2.34668L13.2069 29.4176Z" fill="#4F514F"/>
<path d="M13.2069 29.4176C12.7989 29.7444 12.4892 30.1777 12.3122 30.6695C12.1351 31.1614 12.0975 31.6926 12.2036 32.2045C12.2447 32.3942 12.3057 32.5791 12.3855 32.756L6.26023 34.0292L0 5.75548L6.13115 4.48231C6.12592 4.67991 6.14764 4.87729 6.19569 5.06903C6.39922 5.84032 6.89566 6.50177 7.57939 6.91266C8.26312 7.32356 9.08018 7.45148 9.85678 7.2692C10.2449 7.20582 10.6163 7.06505 10.9489 6.85527C11.2815 6.64549 11.5685 6.37098 11.7929 6.04805C12.0173 5.72513 12.1745 5.36038 12.2552 4.97549C12.3358 4.59061 12.3382 4.19344 12.2623 3.80759C12.223 3.6174 12.162 3.43235 12.0804 3.25608L16.428 2.34668L13.2069 29.4176Z" fill="#4F514F"/>
<path d="M16.2016 28.9073C16.1032 29.0936 16.0265 29.2904 15.9727 29.4941C15.9243 29.6859 15.8987 29.8829 15.8965 30.0808L15.2804 29.9224L10 28.7489L12.7282 17.484L16.2837 2.71061L16.9584 0L22.8549 1.39051C22.7659 1.57769 22.6989 1.77458 22.6554 1.97722C22.5627 2.35728 22.5469 2.75205 22.609 3.1383C22.6711 3.52455 22.8098 3.89448 23.017 4.22632C23.2242 4.55816 23.4957 4.8452 23.8154 5.07056C24.1352 5.29592 24.4968 5.45505 24.879 5.53857C25.6475 5.72493 26.4585 5.60013 27.1354 5.19134C27.8124 4.78256 28.3004 4.1229 28.4932 3.356C28.5406 3.16376 28.5681 2.96715 28.5753 2.76928L34.4425 4.15979L27.5134 32.8559L21.6462 31.4654C21.7305 31.2769 21.7954 31.0803 21.8399 30.8787V30.7438C21.9865 29.9923 21.8335 29.2134 21.4137 28.5732C20.9938 27.933 20.3403 27.4823 19.5928 27.3174C18.9337 27.1584 18.2402 27.2265 17.6247 27.5109C17.0092 27.7952 16.5078 28.279 16.2016 28.8839V28.9073Z" fill="#009245"/>
<path d="M12.3356 25.0748L12.7528 23.3592L13.8928 23.6361L13.4762 25.3523L12.3356 25.0748ZM12.8525 22.8183L13.2691 21.0963L14.4102 21.3726L13.9931 23.0946L12.8525 22.8183ZM13.4064 20.5142L13.8241 18.7922L14.9641 19.0686L14.5475 20.7906L13.4064 20.5142ZM13.9661 18.2178L14.3827 16.4958L15.5232 16.7722L15.1067 18.4942L13.9661 18.2178ZM14.5199 15.9209L14.9365 14.1989L16.0777 14.4746L15.6599 16.1972L14.5199 15.9209ZM15.0797 13.6239L15.4962 11.9019L16.6374 12.1782L16.2202 13.9002L15.0797 13.6239ZM15.6359 11.3228L16.0536 9.60079L17.1936 9.87714L16.7764 11.5991L15.6359 11.3228ZM16.1974 9.0352L16.6139 7.3132L17.7545 7.58896L17.3379 9.31154L16.1974 9.0352ZM16.7506 6.73177L17.1678 5.00977L18.3084 5.28552L17.8912 7.00811L16.7506 6.73177ZM17.0675 18.4637L25.9409 13.2865L26.5323 14.3004L17.6583 19.4775L17.0675 18.4637ZM24.4424 16.8678C24.2146 16.8104 23.9777 16.7992 23.7455 16.8348C23.5133 16.8704 23.2905 16.9521 23.0904 17.0751C22.8903 17.1981 22.7168 17.36 22.5802 17.5511C22.4436 17.7422 22.3467 17.9587 22.2951 18.1879C22.2395 18.4131 22.2302 18.6471 22.2675 18.876C22.3048 19.1049 22.388 19.3239 22.5122 19.5198C22.6351 19.7189 22.7964 19.8915 22.9868 20.0275C23.1772 20.1635 23.3928 20.2601 23.621 20.3118C23.7574 20.3445 23.8973 20.3602 24.0376 20.3588C24.4363 20.3631 24.8246 20.232 25.1391 19.9868C25.4535 19.7417 25.6754 19.397 25.7684 19.0093C25.8232 18.7827 25.8324 18.5475 25.7955 18.3173C25.7586 18.0872 25.6764 17.8666 25.5536 17.6685C25.4308 17.4703 25.2698 17.2986 25.0801 17.1631C24.8904 17.0277 24.6756 16.9313 24.4483 16.8796L24.4424 16.8678ZM24.6419 18.7277C24.6076 18.8423 24.5414 18.9447 24.4509 19.0229C24.3604 19.1011 24.2494 19.1518 24.1311 19.169C24.0127 19.1863 23.8919 19.1694 23.7828 19.1203C23.6738 19.0712 23.581 18.992 23.5154 18.892C23.4748 18.826 23.4477 18.7526 23.4356 18.6761C23.4235 18.5995 23.4267 18.5214 23.445 18.4461C23.4748 18.3137 23.5496 18.1958 23.6566 18.1124C23.7635 18.0289 23.8961 17.9851 24.0317 17.9884C24.1374 17.9884 24.2414 18.0154 24.3338 18.0667C24.4262 18.118 24.5039 18.1921 24.5598 18.2818C24.6024 18.347 24.6316 18.4199 24.6457 18.4965C24.6598 18.573 24.6585 18.6516 24.6419 18.7277ZM19.7546 15.4245C19.8907 15.4594 20.0307 15.4771 20.1712 15.4773C20.2696 15.4766 20.3678 15.4668 20.4645 15.448C20.8084 15.3939 21.1285 15.239 21.3843 15.003C21.6402 14.767 21.8203 14.4604 21.902 14.122C21.9874 13.7861 21.969 13.4322 21.8492 13.107C21.814 12.9965 21.7668 12.8903 21.7084 12.7902C21.5859 12.5883 21.4242 12.4131 21.2327 12.275C21.0412 12.1369 20.8238 12.0387 20.5936 11.9864C20.1348 11.8781 19.6518 11.9546 19.2489 12.1994C18.8461 12.4442 18.5556 12.8376 18.4404 13.2947C18.3328 13.7473 18.4087 14.224 18.6516 14.6207C18.7727 14.8214 18.9326 14.9958 19.122 15.1339C19.3114 15.2719 19.5265 15.3707 19.7546 15.4245ZM19.5669 13.5705C19.6012 13.4401 19.6769 13.3243 19.7828 13.2407C19.8886 13.1571 20.0187 13.1102 20.1536 13.107C20.2023 13.1009 20.2515 13.1009 20.3002 13.107C20.4588 13.1448 20.596 13.244 20.6816 13.3827C20.762 13.5145 20.7873 13.6725 20.752 13.8228C20.7253 13.9401 20.6631 14.0464 20.5739 14.1273C20.4846 14.2081 20.3727 14.2595 20.2533 14.2745C20.1738 14.2891 20.0923 14.2891 20.0128 14.2745C19.8533 14.2352 19.7148 14.1366 19.6255 13.9988C19.5522 13.8687 19.5312 13.7155 19.5669 13.5705ZM6.84105 27.5871L7.21655 29.2827L8.40171 29.0304L8.02621 27.3348L6.84105 27.5871ZM7.5275 25.0759L6.33648 25.3224L6.71197 27.018L7.903 26.7715L7.5275 25.0759ZM7.0288 22.8112L5.83777 23.0635L6.21327 24.7591L7.40429 24.5068L7.0288 22.8112ZM6.52422 20.5524L5.33907 20.7988L5.71456 22.4944L6.89972 22.248L6.52422 20.5524ZM6.02552 18.2877L4.83449 18.5399L5.20999 20.2356L6.40102 19.9833L6.02552 18.2877ZM5.52681 16.0288L4.33579 16.2752L4.71128 17.9708L5.90231 17.7244L5.52681 16.0288ZM5.02224 13.7641L3.83708 14.0164L4.21258 15.712L5.39774 15.4597L5.02224 13.7641ZM4.52353 11.5053L3.33837 11.7517L3.71387 13.4473L4.89903 13.2009L4.52353 11.5053ZM4.02483 9.24055L2.8338 9.49284L3.2093 11.1884L4.40032 10.9362L4.02483 9.24055Z" fill="#F9E708"/>
</svg>
