<svg xmlns="http://www.w3.org/2000/svg" data-name="Layer 1" viewBox="0 0 64 64" id="cabbage"><path fill="#76bf9b" d="M32.46,3C20.9,3,11.52,15.47,11.52,30.86S20.31,61,31.88,61,53.4,46.26,53.4,30.86,44,3,32.46,3Z"></path><path fill="#4ca880" d="M37.85,38.18a42,42,0,0,1,.08,4.63c-2.37,1.65-3.76,5.26-4.57,8.49-.24.11-.49.22-.75.31l-.14,0a6,6,0,0,1-1.82.28c-.84-3.67-2.44-8-5.4-9.52-5.41-2.71-2.46-6.89-4.05-9.23S16,31,16.64,26.18s.62-6.24-2.81-8C16.19,12,20.22,7.19,25.12,4.75a9.56,9.56,0,0,1,2.33,1.72,15.57,15.57,0,0,1,3,5.35c.94,2.4,1.89,4.89,1.79,7.48,0,.1,0,.21,0,.32v0c-.1,1.56-.46,3.22.34,4.55A9.19,9.19,0,0,0,34,25.82C37.15,29,37.59,33.77,37.85,38.18Z"></path><path fill="#4ca880" d="M50.91,17.67a5.68,5.68,0,0,1-.67.39c-3.57,1.84-3.57,3.32-3,8.12s-3,4.67-4.55,7,1.35,6.52-4.06,9.22a5.34,5.34,0,0,0-.68.41,42.27,42.27,0,0,0-.08-4.64c-.26-4.4-.7-9.22-3.83-12.36A9.13,9.13,0,0,1,32.6,24.2c-.8-1.34-.44-3-.34-4.56v0a11,11,0,0,0,0-4.7c-.9-5.42.65-9.81,6.07-8.51s3.36,3,6.33,3c.37,0,.75,0,1.12,0A27.58,27.58,0,0,1,50.91,17.67Z"></path><path fill="#26385f" d="M31.88,61.71c-5.71,0-11.08-3.41-15.1-9.62a39.87,39.87,0,0,1-6-21.23c0-15.75,9.71-28.57,21.64-28.57S54.1,15.11,54.1,30.86a37.82,37.82,0,0,1-6.55,21.25C43.27,58.21,37.56,61.71,31.88,61.71Zm.58-58c-11.16,0-20.24,12.19-20.24,27.17A38.49,38.49,0,0,0,18,51.33c3.76,5.79,8.7,9,13.93,9,10.89,0,20.82-14,20.82-29.45C52.7,15.88,43.62,3.69,32.46,3.69Z"></path><path fill="#76bf9b" d="M52.08,17.06A6.47,6.47,0,0,0,52,19.17h0c0,.34-.11.68-.18,1a3.43,3.43,0,0,1-1.58,1.31c-3.57,1.84-3.57,3.32-3,8.12s-3,4.67-4.55,7,1.35,6.52-4.06,9.23a6.71,6.71,0,0,0-.68.4,42.13,42.13,0,0,0-.08-4.63c-.26-4.41-.7-9.23-3.83-12.36a8.86,8.86,0,0,1-1.49-1.63c-.8-1.33-.44-3-.34-4.55v0a11,11,0,0,0,0-4.7c-.9-5.42.65-9.81,6.07-8.52s3.36,3,6.33,3,5.93-1.16,7.22,3.1a5.26,5.26,0,0,1,.22,1.13Z"></path><path fill="#5c9e46" d="M32.54,27.54c.14.18.26.37.38.55a2.83,2.83,0,0,1-.32-.45A.33.33,0,0,1,32.54,27.54Z"></path><path fill="#4ca880" d="M52.08,17.06A6.47,6.47,0,0,0,52,19.17h0c0,.34-.11.68-.18,1a3.43,3.43,0,0,1-1.58,1.31c-3.57,1.84-3.57,3.32-3,8.12s-3,4.67-4.55,7,1.35,6.52-4.06,9.23a6.71,6.71,0,0,0-.68.4,38.53,38.53,0,0,0-.07-4.43c2.93-2.63.91-6,2.29-8.06,1.6-2.33,5.17-2.21,4.55-7s-.61-6.28,2.95-8.12a3.37,3.37,0,0,0,1.58-1.31c.07-.35.14-.69.18-1h0a7.08,7.08,0,0,1,.08-2.11h0a5.25,5.25,0,0,0-.21-1.13c0-.06,0-.13-.06-.18,1.09.32,2,1.15,2.57,3a5.26,5.26,0,0,1,.22,1.13Z"></path><path fill="#65b54e" d="M52.08,17.06A9.45,9.45,0,0,1,52,19.17"></path><path fill="#fff" d="M52.23 19.2l-.46-.06a9.23 9.23 0 0 0 .08-2.06l.46 0A9 9 0 0 1 52.23 19.2zM12.64 35.35a35.52 35.52 0 0 0-1.61 6 .27.27 0 0 0 .23.32.28.28 0 0 0 .31-.25 36.93 36.93 0 0 1 1.12-6.06A0 0 0 1 0 12.64 35.35z"></path><path fill="#76bf9b" d="M31.6,61h-.38c-16-.5-22-9.53-25.33-18.69s.62-16.6,1.23-21.15c.45-3.3-1-5.31-1.76-7.15A4.1,4.1,0,0,1,5,11.91c.37-2.58,3-.85,5.78,3a8.42,8.42,0,0,1,.51.76c1.87,3.19-.87,4.16,2.44,5.88,3.57,1.84,3.57,3.32,3,8.12s3,4.67,4.56,7-1.36,6.52,4.06,9.23c3,1.47,4.55,5.85,5.39,9.52A40.82,40.82,0,0,1,31.6,61Z"></path><path fill="#76bf9b" d="M37.93,46.26c-2.37,1.66-3.76,5.26-4.57,8.49a6.21,6.21,0,0,1-.75.31l-.14,0a6,6,0,0,1-1.82.28c-.84-3.67-2.44-8.05-5.4-9.52-5.41-2.71-2.46-6.89-4.05-9.23s-5.17-2.21-4.56-7,.62-6.28-3-8.12c-3.31-1.72-.57-2.69-2.44-5.88a31.69,31.69,0,0,1,1-3.12c.46-1.21.92-2.29,1.18-3A5.2,5.2,0,0,1,16.77,6a7.32,7.32,0,0,1,4.06.51c2.39.78,4.87,1.61,6.62,3.41a15.57,15.57,0,0,1,3,5.35c.94,2.4,1.89,4.89,1.79,7.48,0,.1,0,.21,0,.32v0c-.1,1.56-.46,3.22.34,4.55A9.19,9.19,0,0,0,34,29.27c3.13,3.13,3.57,8,3.83,12.36A42,42,0,0,1,37.93,46.26Z"></path><path fill="#26385f" d="M37.21,47.68l.09-1.46a40.56,40.56,0,0,0-.08-4.55c-.27-4.64-.75-9-3.62-11.91l-.4-.38A6.21,6.21,0,0,1,32,28a6.54,6.54,0,0,1-.51-4.13c0-.27.05-.54.07-.81V23l0-.1a10.5,10.5,0,0,0,0-4.41c-.63-3.81-.06-6.77,1.61-8.34,1.28-1.18,3.06-1.51,5.31-1,3.17.76,4,1.67,4.58,2.34.39.43.55.61,1.59.61.51,0,1,0,1.54-.07,2.41-.17,5.13-.36,6.35,3.67A6.35,6.35,0,0,1,52.78,17v.15l0,.09a4.66,4.66,0,0,0-.08,1.51c0,.14,0,.28,0,.41v.12c0,.35-.11.71-.19,1.08l0,.09,0,.08a4.08,4.08,0,0,1-1.88,1.61c-3.19,1.65-3.17,2.8-2.58,7.41.47,3.64-1.3,4.84-2.86,5.9A6.64,6.64,0,0,0,43.31,37a4.73,4.73,0,0,0-.44,2.62c0,2.18,0,4.89-3.88,6.83a4.92,4.92,0,0,0-.58.35ZM33,23.17c0,.28,0,.55-.07.83a5.47,5.47,0,0,0,.32,3.29,5.56,5.56,0,0,0,1,1.08l.43.41c3.22,3.22,3.74,7.89,4,12.81.07,1.13.14,2.28.13,3.45,2.74-1.53,2.74-3.41,2.74-5.39a5.79,5.79,0,0,1,.68-3.41,7.55,7.55,0,0,1,2.18-2c1.46-1,2.61-1.78,2.25-4.57C46,25,45.9,23,49.92,20.89A3.16,3.16,0,0,0,51.15,20c.06-.28.11-.55.15-.82,0-.09,0-.19,0-.3A6.19,6.19,0,0,1,51.37,17a5,5,0,0,0-.17-.89c-.9-3-2.5-2.85-4.92-2.67-.53,0-1.08.07-1.64.07A2.89,2.89,0,0,1,42,12.44c-.47-.53-1.12-1.25-3.86-1.91-1.77-.42-3.12-.2-4,.64-1.3,1.22-1.74,3.8-1.19,7.09A11.85,11.85,0,0,1,33,23.17Z"></path><path fill="#26385f" d="M44.57,17.87a31.8,31.8,0,0,0-3.65,9.91c-.11-.83-.2-1.66-.26-2.49s-.11-1.83-.11-2.74,0-1.83.05-2.76A12.9,12.9,0,0,0,40.37,17a4.67,4.67,0,0,0-1.29-2.45c-.1-.1-.17,0-.08.08a4.47,4.47,0,0,1,1.16,2.41,12.35,12.35,0,0,1,.11,2.72c-.05.91-.13,1.84-.15,2.76s0,1.85,0,2.78a42.53,42.53,0,0,0,.51,5.27,45.36,45.36,0,0,1-2.79-4.09,18.89,18.89,0,0,1-2.34-5.78c0-.07-.07-.06-.06,0a18.79,18.79,0,0,0,2.13,5.91,52.72,52.72,0,0,0,3.26,5.12,44.09,44.09,0,0,0,1.11,4.5c.17.54.53.91.79.81s.32-.6.14-1.11a42,42,0,0,1-1.68-6.46A31.35,31.35,0,0,1,44.63,17.9C44.66,17.83,44.61,17.8,44.57,17.87Z"></path><path fill="#76bf9b" d="M58.11,42.29C54.81,51.45,48.72,60.5,32.72,61H32.4a41.43,41.43,0,0,1,1-6.24c.81-3.23,2.2-6.83,4.57-8.49a6.71,6.71,0,0,1,.68-.4c5.41-2.71,2.46-6.89,4.06-9.23s5.16-2.21,4.55-7-.62-6.28,3-8.12a3.43,3.43,0,0,0,1.58-1.31,2,2,0,0,0,.18-1h0a6.47,6.47,0,0,1,.08-2.11h0a6.12,6.12,0,0,1,1.11-2.18c2.83-3.81,5.41-5.54,5.78-3a4,4,0,0,1-.3,2c-.7,1.86-2.24,3.87-1.79,7.22C57.49,25.69,61.43,33.07,58.11,42.29Z"></path><path fill="#4ca880" d="M58.11 42.29C54.81 51.45 48.72 60.5 32.72 61c1.32-1.5 2.49-3.31 4.24-4.22 1.08-.57 2.33-.74 3.46-1.23a7.79 7.79 0 0 0 4.37-5.66c.31-1.58.22-3.31 1.13-4.63 1.12-1.64 3.42-2.08 4.68-3.61s1.19-4 .88-6.16-.61-4.47.6-6.24c.64-.94 1.67-1.61 2.21-2.62.79-1.46.39-3.24.4-4.9a9.47 9.47 0 0 1 1.39-4.81 14.91 14.91 0 0 1 2.59-3c-.7 1.86-2.24 3.87-1.79 7.22C57.49 25.69 61.43 33.07 58.11 42.29zM31.22 61c-16-.5-22-9.53-25.33-18.69s.62-16.6 1.23-21.15c.45-3.3-1-5.31-1.76-7.15a14.53 14.53 0 0 1 2.5 2.91 9.48 9.48 0 0 1 1.4 4.81c0 1.66-.39 3.44.39 4.9a32.36 32.36 0 0 0 2.22 2.62c1.21 1.77.9 4.12.6 6.24S12 40 13.34 41.63s3.56 2 4.69 3.61c.91 1.32.82 3 1.12 4.63a7.8 7.8 0 0 0 4.38 5.66c1.12.49 2.37.66 3.46 1.23C28.74 57.67 29.9 59.48 31.22 61z"></path><path fill="#26385f" d="M31.65,61.7l.06-.76a38.83,38.83,0,0,1,1-6.36c1.1-4.43,2.73-7.42,4.84-8.89a4.92,4.92,0,0,1,.76-.45c3.12-1.57,3.12-3.52,3.12-5.59a5.79,5.79,0,0,1,.68-3.41,7.55,7.55,0,0,1,2.18-2c1.46-1,2.61-1.78,2.25-4.57C46,25,45.9,23,49.92,20.89a3,3,0,0,0,1.27-1,1.15,1.15,0,0,0,.11-.69v0c0-.1,0-.22,0-.34a6.11,6.11,0,0,1,.1-1.85h0l0-.1a6.89,6.89,0,0,1,1.23-2.43c1.67-2.25,4-4.85,5.73-4.41.5.12,1.12.53,1.3,1.78a6.45,6.45,0,0,1-.93,3.7,9.19,9.19,0,0,0-1.16,5.53,32.09,32.09,0,0,0,.89,3.79c1.21,4.45,2.88,10.54.31,17.69h0c-2.08,5.77-4.69,9.88-8.21,13-4.58,4-10.52,6-18.14,6.2ZM52.7,19.16a2.64,2.64,0,0,1-.27,1.37,4,4,0,0,1-1.87,1.6c-3.19,1.65-3.17,2.8-2.58,7.41.47,3.64-1.3,4.84-2.86,5.9A6.64,6.64,0,0,0,43.31,37a4.73,4.73,0,0,0-.44,2.62c0,2.18,0,4.89-3.88,6.83a4.92,4.92,0,0,0-.58.35c-1.81,1.26-3.3,4.06-4.3,8.09a42.24,42.24,0,0,0-.94,5.34c15.92-.65,21.34-10,24.28-18.2h0c2.42-6.74.89-12.35-.34-16.85a33.17,33.17,0,0,1-.92-4,10.44,10.44,0,0,1,1.28-6.31A5.4,5.4,0,0,0,58.28,12c-.06-.39-.18-.6-.26-.62-.45-.11-2,.84-4.27,3.89a5.62,5.62,0,0,0-1,1.89v.06a4.66,4.66,0,0,0-.08,1.51c0,.14,0,.28,0,.41Z"></path><path fill="#4ca880" d="M32,60.4c-.59.18-.72-5-1.33-5-.84-3.67-2.44-8.05-5.4-9.52-5.41-2.71-2.46-6.89-4.05-9.23s-5.17-2.21-4.56-7,.62-6.28-3-8.12c-3.31-1.72-.57-2.69-2.44-5.88a31.69,31.69,0,0,1,1-3.12,5.07,5.07,0,0,1,2.17,2.92c.11.53.08,1.1.19,1.64.45,2.12,2.85,3.16,4.17,4.88,1.6,2.08,1.49,5,1.34,7.58a7.42,7.42,0,0,0,.44,3.72,9.41,9.41,0,0,0,1.72,2.12,7.78,7.78,0,0,1,2.36,4.56A6.06,6.06,0,0,0,25,42.18a4.26,4.26,0,0,0,1.46,1.43,14.8,14.8,0,0,1,5,6.54C32,51.75,31.83,58.7,32,60.4Z"></path><path fill="#26385f" d="M32.35,61.7h-.77C24,61.51,18,59.48,13.44,55.49c-3.52-3.08-6.13-7.19-8.21-13-2.57-7.15-.9-13.24.31-17.69a32.09,32.09,0,0,0,.89-3.79,9.19,9.19,0,0,0-1.16-5.53,6.45,6.45,0,0,1-.93-3.7c.18-1.25.8-1.66,1.3-1.78,1.71-.44,4.06,2.16,5.73,4.41a7.43,7.43,0,0,1,.55.83,5.55,5.55,0,0,1,.8,3.56c-.07.92-.09,1.3,1.36,2.05C18.1,23,18,25,17.41,29.72c-.36,2.79.79,3.58,2.25,4.57a7.55,7.55,0,0,1,2.18,2,5.7,5.7,0,0,1,.68,3.41c0,2.07,0,4,3.12,5.58s4.92,6.33,5.76,10a38.16,38.16,0,0,1,.89,5.71ZM6.06,11.38H6c-.08,0-.2.23-.26.62a5.4,5.4,0,0,0,.81,2.91,10.44,10.44,0,0,1,1.28,6.31,33.17,33.17,0,0,1-.92,4c-1.23,4.5-2.76,10.11-.34,16.85,2.94,8.15,8.36,17.55,24.28,18.2A43.68,43.68,0,0,0,30,55.54c-.78-3.37-2.28-7.68-5-9.06-3.89-1.94-3.89-4.66-3.88-6.84A4.71,4.71,0,0,0,20.69,37a6.5,6.5,0,0,0-1.81-1.59c-1.56-1.06-3.32-2.26-2.86-5.9.59-4.61.61-5.76-2.58-7.41C11.33,21,11.23,20,11.32,18.75a4.13,4.13,0,0,0-.6-2.76c-.14-.23-.29-.47-.47-.71C8.1,12.39,6.59,11.38,6.06,11.38Z"></path><path fill="#26385f" d="M30 55.54c-.78-3.37-2.28-7.68-5-9.06-3.89-1.94-3.89-4.66-3.88-6.84A4.71 4.71 0 0 0 20.69 37a6.5 6.5 0 0 0-1.81-1.59c-1.56-1.06-3.32-2.26-2.86-5.9.59-4.61.61-5.76-2.58-7.41C11.33 21 11.23 20 11.32 18.75a4.13 4.13 0 0 0-.6-2.76l-.15-.25.07-.28a46 46 0 0 1 1.65-4.7c.24-.59.45-1.11.59-1.51a5.87 5.87 0 0 1 3.79-3.93 8 8 0 0 1 4.45.52c2.35.77 5 1.64 6.9 3.59A16.27 16.27 0 0 1 31.13 15c.91 2.35 1.95 5 1.84 7.76 0 .11 0 .22 0 .33v0c0 .29 0 .58-.07.87a5.47 5.47 0 0 0 .32 3.29 5.56 5.56 0 0 0 1 1.08l.43.41c3.22 3.22 3.74 7.89 4 12.81a41 41 0 0 1 .09 4.72l0 .33-.28.2c-1.8 1.25-3.29 4-4.29 8.08l-1.35-.34c1.05-4.23 2.58-7.15 4.56-8.68.06-1.41 0-2.84-.1-4.23-.27-4.64-.75-9-3.62-11.91l-.4-.38A6.21 6.21 0 0 1 32 28a6.54 6.54 0 0 1-.51-4.13c0-.27.05-.54.07-.81v0c0-.1 0-.19 0-.29.09-2.46-.85-4.87-1.75-7.2A15.05 15.05 0 0 0 27 10.41c-1.66-1.71-4.14-2.52-6.33-3.24A6.71 6.71 0 0 0 17 6.67 4.52 4.52 0 0 0 14.2 9.72c-.16.42-.36.95-.61 1.56a43.16 43.16 0 0 0-1.52 4.26 5.53 5.53 0 0 1 .65 3.3c-.07.92-.09 1.3 1.36 2.05C18.1 23 18 25 17.41 29.72c-.36 2.79.79 3.58 2.25 4.57a7.55 7.55 0 0 1 2.18 2 5.7 5.7 0 0 1 .68 3.41c0 2.07 0 4 3.12 5.58s4.92 6.33 5.76 10zM52.74 41.68a36.39 36.39 0 0 0-1.41-6.35"></path><path fill="#26385f" d="M51.31,35.37a36.93,36.93,0,0,1,1.12,6.06.28.28,0,0,0,.31.25.27.27,0,0,0,.23-.32,35.52,35.52,0,0,0-1.61-6S51.3,35.33,51.31,35.37Z"></path><path fill="#26385f" d="M55.66,17.09a2.5,2.5,0,0,0-1.34,1,3.42,3.42,0,0,0-.59,1.6A12.63,12.63,0,0,0,54,23.09a41.49,41.49,0,0,1,.43,6.68,41.13,41.13,0,0,1-.63,6.65A29.73,29.73,0,0,1,52,42.8a18,18,0,0,1-1.54,2.92,19.68,19.68,0,0,1-2,2.58,36.54,36.54,0,0,1-5,4.34c-3.6,2.63-7.47,4.91-11.09,7.64l.72.93c3.5-2.74,7.32-5.1,10.92-7.84a36.17,36.17,0,0,0,5-4.54A19.7,19.7,0,0,0,51,46.11a18.17,18.17,0,0,0,1.54-3,29.93,29.93,0,0,0,1.76-6.55,43.5,43.5,0,0,0,.5-6.74,43.21,43.21,0,0,0-.56-6.72,12.88,12.88,0,0,1-.33-3.31,3.38,3.38,0,0,1,.53-1.53,2.37,2.37,0,0,1,1.25-1C56,17.13,56,17,55.66,17.09Z"></path><path fill="#26385f" d="M56.91 29.51a15.68 15.68 0 0 1-1 3.76A15.51 15.51 0 0 1 55.1 35a4.12 4.12 0 0 1-.51.77c-.2.24-.42.47-.64.69a.35.35 0 0 0 0 .5.34.34 0 0 0 .5 0 8.55 8.55 0 0 0 .63-.8 4.45 4.45 0 0 0 .5-.9 16.15 16.15 0 0 0 .71-1.86 16.66 16.66 0 0 0 .7-3.88A0 0 0 0 0 56.91 29.51zM54.64 31.65l-2.41-4.47M52.22 27.21l2.13 4.34a.21.21 0 0 0 .29.1.21.21 0 0 0 .08-.3l-2.46-4.17S52.21 27.18 52.22 27.21zM48.4 48.84c2.28-1.06 5-2.13 6.38-4.21"></path><path fill="#26385f" d="M54.72 44.64a8.39 8.39 0 0 1-2.81 2.27 36 36 0 0 1-3.34 1.49.33.33 0 1 0 .28.59 36.69 36.69 0 0 0 3.25-1.77 8.59 8.59 0 0 0 2.69-2.54A0 0 0 0 0 54.72 44.64zM43.3 53.31l4.21-7.54M47.46 45.78l-4.29 7a.36.36 0 0 0 .13.51.36.36 0 0 0 .5-.16l3.73-7.33S47.48 45.74 47.46 45.78zM39.09 56a17.5 17.5 0 0 0 9.36-.07"></path><path fill="#26385f" d="M48.39 55.89a17.3 17.3 0 0 1-8.81-.18.39.39 0 0 0-.49.28.4.4 0 0 0 .3.49 17.93 17.93 0 0 0 9-.5A0 0 0 0 0 48.39 55.89zM36.69 57.6c2-1.63 3.11-4.9 4.66-6.93"></path><path fill="#26385f" d="M41.3 50.68A31.53 31.53 0 0 0 39.1 54c-.35.57-.7 1.12-1.09 1.65a9.26 9.26 0 0 1-1.29 1.43.36.36 0 0 0 0 .5.35.35 0 0 0 .51 0A9.24 9.24 0 0 0 38.46 56c.36-.58.68-1.17 1-1.77a33.5 33.5 0 0 1 1.92-3.48S41.33 50.64 41.3 50.68zM8.3 17.21a2.4 2.4 0 0 1 1.25 1 3.5 3.5 0 0 1 .53 1.53A12.79 12.79 0 0 1 9.76 23a42.61 42.61 0 0 0-.08 13.4A30.41 30.41 0 0 0 11.41 43c.21.53.44 1 .69 1.55.13.26.25.52.4.76l.22.37c.07.13.15.25.23.37a13.71 13.71 0 0 0 1 1.37 15.38 15.38 0 0 0 1.19 1.23 37.63 37.63 0 0 0 5.45 4c1.87 1.22 3.73 2.43 5.45 3.8A34.15 34.15 0 0 1 30.83 61l.89-.77a34.65 34.65 0 0 0-5-4.61C24.93 54.22 23 53 21.12 51.85A38 38 0 0 1 15.71 48c-.41-.37-.79-.76-1.16-1.16a13.75 13.75 0 0 1-1-1.28l-.23-.33-.21-.35c-.15-.23-.27-.47-.4-.71-.25-.49-.48-1-.7-1.5a29.65 29.65 0 0 1-1.81-6.36A42.31 42.31 0 0 1 10 23.06a12.48 12.48 0 0 0 .26-3.35 3.7 3.7 0 0 0-.59-1.6 2.48 2.48 0 0 0-1.34-1C8 17 8 17.13 8.3 17.21z"></path><path fill="#26385f" d="M7 29.52a16.4 16.4 0 0 0 .66 3.73 16.82 16.82 0 0 0 .65 1.8c.13.29.26.58.43.88a2.55 2.55 0 0 0 .67.81.36.36 0 0 0 .29.08.27.27 0 0 0 .2-.17.36.36 0 0 0-.1-.44 3.75 3.75 0 0 1-1-1.39 15.92 15.92 0 0 1-1.7-5.31A0 0 0 0 0 7 29.52zM11.74 27.18L9.28 31.35a.21.21 0 0 0 .08.3.21.21 0 0 0 .29-.1l2.13-4.34S11.75 27.16 11.74 27.18zM9.22 44.68a6.2 6.2 0 0 0 1.25 1.41A10.62 10.62 0 0 0 12 47.18c1.09.64 2.24 1.15 3.35 1.7a.32.32 0 0 0 .45-.15.33.33 0 0 0-.18-.45c-1.16-.47-2.34-.89-3.45-1.43a7.76 7.76 0 0 1-2.92-2.21S9.19 44.64 9.22 44.68zM15.29 43.91L19 51.24a.37.37 0 0 0 .5.15.36.36 0 0 0 .14-.5l-4.29-7S15.26 43.86 15.29 43.91zM15.44 55.44a35.5 35.5 0 0 0 5.3 1.25 24.75 24.75 0 0 0 2.73.28 13.79 13.79 0 0 0 2.79-.12.47.47 0 0 0 .39-.58.48.48 0 0 0-.58-.36 13 13 0 0 1-2.59.32c-.89 0-1.79 0-2.68-.07a34.54 34.54 0 0 1-5.33-.83A.06.06 0 0 0 15.44 55.44z"></path><path fill="#26385f" d="M22.64 50.72a29 29 0 0 1 1.69 2.91 10.82 10.82 0 0 0 2 2.78.29.29 0 0 0 .43 0 .31.31 0 0 0 0-.43 10.74 10.74 0 0 1-2.12-2.51 27.49 27.49 0 0 0-1.92-2.78S22.62 50.68 22.64 50.72zM21.31 16.69a6.6 6.6 0 0 1 2.8 2.76 10.43 10.43 0 0 1 1.18 3.78 18.37 18.37 0 0 1-.05 4c-.13 1.34-.35 2.67-.51 4a33.73 33.73 0 0 0 2 16.23 2.34 2.34 0 0 0 .61.91.61.61 0 0 0 .65.19.67.67 0 0 0 .29-.61 2.62 2.62 0 0 0-.22-1 32.64 32.64 0 0 1-2.56-15.61c.1-1.34.26-2.69.35-4a18.94 18.94 0 0 0-.12-4.12 10.51 10.51 0 0 0-1.38-3.87 6.74 6.74 0 0 0-3-2.74C21.18 16.46 21.13 16.6 21.31 16.69z"></path><path fill="#26385f" d="M30.87 28.51l-5.1 12.21c-.12.31-.1.61.05.67s.38-.14.5-.45l4.62-12.41C31 28.45 30.91 28.43 30.87 28.51zM19.92 21.9a45.39 45.39 0 0 0 1.9 5.27 46.15 46.15 0 0 0 2.54 5c.15.25.37.39.49.31s.09-.33-.07-.57a45.18 45.18 0 0 1-2.7-4.86A43.92 43.92 0 0 1 20 21.88C20 21.81 19.9 21.83 19.92 21.9z"></path></svg>