<svg width="91" height="91" viewBox="0 0 91 91" fill="none" xmlns="http://www.w3.org/2000/svg">
<path d="M81.0469 87.7421V88.1562H9.95312V87.7421C9.95312 81.2833 14.3076 74.213 20.5532 72.5707L36.9688 68.25L45.5 75.3594L54.0312 68.25L70.4468 72.5707C76.6924 74.213 81.0469 81.2833 81.0469 87.7421Z" fill="#3E3D42"/>
<path d="M68.25 32.7031H63.9844V49.7656H68.25V32.7031Z" fill="#787680"/>
<path d="M68.25 34.125H71.8047C72.3703 34.125 72.9128 34.3497 73.3128 34.7497C73.7128 35.1497 73.9375 35.6922 73.9375 36.2578V46.2109C73.9375 46.7766 73.7128 47.3191 73.3128 47.7191C72.9128 48.119 72.3703 48.3438 71.8047 48.3438H68.25V34.125Z" fill="#FFDA44"/>
<path d="M22.75 49.7656H27.0156L27.0156 32.7031H22.75V49.7656Z" fill="#787680"/>
<path d="M22.75 48.3438H19.1953C18.6297 48.3438 18.0872 48.119 17.6872 47.7191C17.2872 47.3191 17.0625 46.7766 17.0625 46.2109V36.2578C17.0625 35.6922 17.2872 35.1497 17.6872 34.7497C18.0872 34.3497 18.6297 34.125 19.1953 34.125H22.75V48.3438Z" fill="#FFDA44"/>
<path d="M66.8281 61.1406H61.1406V65.2285H66.8281V61.1406Z" fill="#787680"/>
<path d="M54.0312 61.1104V68.2499L45.5 75.3593L36.9688 68.2499V61.1104C39.8818 62.9304 42.962 63.9843 45.5 63.9843C48.038 63.9843 51.1182 62.9304 54.0312 61.1104Z" fill="#FFDAAA"/>
<path d="M63.9844 35.1116V45.5002C63.9844 52.0657 59.2797 57.8314 54.0312 61.1106C51.1182 62.9306 48.038 63.9846 45.5 63.9846C42.962 63.9846 39.8818 62.9306 36.9688 61.1106C35.7725 60.3621 34.6427 59.5124 33.5918 58.5708C29.8594 55.2258 27.0156 50.6047 27.0156 45.5002V35.3693C32.805 35.346 38.5576 34.4472 44.0781 32.7033C50.2668 30.7678 54.0437 28.4839 54.0437 28.4839C55.1508 30.1347 56.5551 31.5655 58.1849 32.7033C59.9238 33.9111 61.9014 34.7323 63.9844 35.1116Z" fill="#FFDAAA"/>
<path d="M63.9844 28.4375V35.1114C61.9014 34.7322 59.9238 33.911 58.1849 32.7031C56.5551 31.5653 55.1508 30.1346 54.0437 28.4837C54.0437 28.4837 50.2668 30.7676 44.0781 32.7031C38.5576 34.447 32.805 35.3459 27.0156 35.3691V28.4375C27.0156 23.5351 28.9631 18.8336 32.4296 15.3671C35.8961 11.9006 40.5976 9.95313 45.5 9.95312C50.4024 9.95313 55.1039 11.9006 58.5704 15.3671C62.0369 18.8336 63.9844 23.5351 63.9844 28.4375Z" fill="#FF9811"/>
<path d="M36.9688 42.6562C38.5393 42.6562 39.8125 41.3831 39.8125 39.8125C39.8125 38.2419 38.5393 36.9688 36.9688 36.9688C35.3982 36.9688 34.125 38.2419 34.125 39.8125C34.125 41.3831 35.3982 42.6562 36.9688 42.6562Z" fill="black"/>
<path d="M54.0312 42.6562C55.6018 42.6562 56.875 41.3831 56.875 39.8125C56.875 38.2419 55.6018 36.9688 54.0312 36.9688C52.4607 36.9688 51.1875 38.2419 51.1875 39.8125C51.1875 41.3831 52.4607 42.6562 54.0312 42.6562Z" fill="black"/>
<path d="M79.2695 77.5562C77.0905 74.3161 74.085 72.0571 70.8094 71.1951L55.4531 67.1534V61.8711C59.2531 59.3242 62.6638 55.5722 64.331 51.1875H68.25C68.6271 51.1875 68.9888 51.0377 69.2554 50.771C69.5221 50.5044 69.6719 50.1427 69.6719 49.7656V61.1406H68.25C68.25 60.7635 68.1002 60.4019 67.8335 60.1352C67.5669 59.8686 67.2052 59.7188 66.8281 59.7188H61.1406C60.7635 59.7188 60.4019 59.8686 60.1352 60.1352C59.8686 60.4019 59.7188 60.7635 59.7188 61.1406V65.2285C59.7188 65.6056 59.8686 65.9673 60.1352 66.2339C60.4019 66.5006 60.7635 66.6504 61.1406 66.6504H66.8281C67.2052 66.6504 67.5669 66.5006 67.8335 66.2339C68.1002 65.9673 68.25 65.6056 68.25 65.2285V63.9844H71.0938C71.4709 63.9844 71.8325 63.8346 72.0992 63.5679C72.3658 63.3013 72.5156 62.9396 72.5156 62.5625V49.6945C73.318 49.5296 74.039 49.093 74.557 48.4584C75.075 47.8239 75.3584 47.0301 75.3594 46.2109V36.2578C75.3584 35.4387 75.075 34.6449 74.557 34.0103C74.039 33.3758 73.318 32.9392 72.5156 32.7742V28.4375C72.5156 13.5416 60.3959 1.42188 45.5 1.42188C30.6041 1.42188 18.4844 13.5416 18.4844 28.4375V32.7742C17.682 32.9392 16.961 33.3758 16.443 34.0103C15.925 34.6449 15.6416 35.4387 15.6406 36.2578V46.2109C15.6416 47.1534 16.0164 48.057 16.6828 48.7234C17.3492 49.3899 18.2528 49.7647 19.1953 49.7656H21.3281C21.3281 50.1427 21.4779 50.5044 21.7446 50.771C22.0112 51.0377 22.3729 51.1875 22.75 51.1875H26.669C28.3362 55.5722 31.7469 59.3242 35.5469 61.8711V67.1534L20.1924 71.1951C16.915 72.0571 13.9095 74.3161 11.7305 77.5562C9.66697 80.6256 8.53125 84.2425 8.53125 87.7421V88.1562C8.53125 88.5334 8.68105 88.895 8.94771 89.1617C9.21436 89.4283 9.57602 89.5781 9.95312 89.5781H81.0469C81.424 89.5781 81.7856 89.4283 82.0523 89.1617C82.3189 88.895 82.4688 88.5334 82.4688 88.1562V87.7421C82.4688 84.2425 81.333 80.6256 79.2695 77.5562ZM65.4062 63.8066H62.5625V62.5625H65.4062V63.8066ZM62.5625 33.2914C59.5552 32.3019 56.9692 30.3276 55.2221 27.6875C55.0177 27.3854 54.7052 27.1733 54.349 27.0949C53.9928 27.0165 53.6202 27.0779 53.3079 27.2662C53.2012 27.332 42.7789 33.5331 28.4375 33.9277V28.4375C28.4375 23.9122 30.2352 19.5723 33.435 16.3725C36.6348 13.1727 40.9747 11.375 45.5 11.375C50.0253 11.375 54.3652 13.1727 57.565 16.3725C60.7649 19.5723 62.5625 23.9122 62.5625 28.4375V33.2914ZM66.8281 48.3438H65.4062V34.125H66.8281V48.3438ZM72.5156 36.2578V46.2109C72.5156 46.3995 72.4407 46.5803 72.3074 46.7136C72.1741 46.847 71.9932 46.9219 71.8047 46.9219H69.6719V35.5469H71.8047C71.9932 35.5469 72.1741 35.6218 72.3074 35.7551C72.4407 35.8884 72.5156 36.0693 72.5156 36.2578ZM21.3281 46.9219H19.1953C19.0068 46.9219 18.8259 46.847 18.6926 46.7136C18.5593 46.5803 18.4844 46.3995 18.4844 46.2109V36.2578C18.4844 36.0693 18.5593 35.8884 18.6926 35.7551C18.8259 35.6218 19.0068 35.5469 19.1953 35.5469H21.3281V46.9219ZM25.5938 48.3438H24.1719V34.125H25.5938V48.3438ZM25.5938 28.4375V31.2812H22.75C22.3729 31.2812 22.0112 31.4311 21.7446 31.6977C21.4779 31.9644 21.3281 32.326 21.3281 32.7031V28.4375C21.3281 15.1092 32.1717 4.26562 45.5 4.26562C58.8283 4.26562 69.6719 15.1092 69.6719 28.4375V32.7031C69.6719 32.326 69.5221 31.9644 69.2554 31.6977C68.9888 31.4311 68.6271 31.2812 68.25 31.2812H65.4062V28.4375C65.4062 23.158 63.309 18.0948 59.5758 14.3617C55.8427 10.6285 50.7795 8.53125 45.5 8.53125C40.2205 8.53125 35.1573 10.6285 31.4242 14.3617C27.691 18.0948 25.5938 23.158 25.5938 28.4375ZM34.5409 57.5113C29.2302 52.7516 28.4375 47.9438 28.4375 45.5V36.7715C40.9251 36.4515 50.4463 32.0242 53.6367 30.3375C55.883 33.2333 59.0194 35.3099 62.5625 36.2472V45.5C62.5625 47.9438 61.7698 52.7516 56.4591 57.5113C53.0359 60.579 48.733 62.5625 45.5 62.5625C42.267 62.5625 37.9641 60.579 34.5409 57.5113ZM52.6094 63.5187V67.5835L45.5 73.5092L38.3906 67.5835V63.5187C40.8522 64.7291 43.3352 65.4062 45.5 65.4062C47.6648 65.4062 50.1478 64.7291 52.6094 63.5187ZM68.25 86.7344V83.8906C68.25 83.5135 68.1002 83.1519 67.8335 82.8852C67.5669 82.6186 67.2052 82.4688 66.8281 82.4688C66.451 82.4688 66.0894 82.6186 65.8227 82.8852C65.5561 83.1519 65.4062 83.5135 65.4062 83.8906V86.7344H25.5938V83.8906C25.5938 83.5135 25.4439 83.1519 25.1773 82.8852C24.9106 82.6186 24.549 82.4688 24.1719 82.4688C23.7948 82.4688 23.4331 82.6186 23.1665 82.8852C22.8998 83.1519 22.75 83.5135 22.75 83.8906V86.7344H11.4123C11.8407 80.8638 15.9392 75.2545 20.9158 73.9464L36.6222 69.8123L44.59 76.4524C44.8455 76.6652 45.1675 76.7818 45.5 76.7818C45.8325 76.7818 46.1545 76.6652 46.41 76.4524L54.3778 69.8123L70.086 73.9464C75.0608 75.2545 79.1593 80.8638 79.5877 86.7344H68.25Z" fill="black"/>
<path d="M49.7656 54.0312C49.7656 53.6541 49.6158 53.2925 49.3492 53.0258C49.0825 52.7592 48.7209 52.6094 48.3438 52.6094H42.6562C42.2791 52.6094 41.9175 52.7592 41.6508 53.0258C41.3842 53.2925 41.2344 53.6541 41.2344 54.0312C41.2344 54.4084 41.3842 54.77 41.6508 55.0367C41.9175 55.3033 42.2791 55.4531 42.6562 55.4531H48.3438C48.7209 55.4531 49.0825 55.3033 49.3492 55.0367C49.6158 54.77 49.7656 54.4084 49.7656 54.0312Z" fill="black"/>
</svg>
