<svg width="36" height="36" viewBox="0 0 36 36" fill="none" xmlns="http://www.w3.org/2000/svg">
<path d="M32.0625 34.7112V34.875H3.9375V34.7112C3.9375 32.156 5.66016 29.359 8.13094 28.7093L14.625 27L18 29.8125L21.375 27L27.8691 28.7093C30.3398 29.359 32.0625 32.156 32.0625 34.7112Z" fill="#3E3D42"/>
<path d="M27 12.9375H25.3125V19.6875H27V12.9375Z" fill="#787680"/>
<path d="M27 13.5H28.4062C28.63 13.5 28.8446 13.5889 29.0029 13.7471C29.1611 13.9054 29.25 14.12 29.25 14.3438V18.2812C29.25 18.505 29.1611 18.7196 29.0029 18.8779C28.8446 19.0361 28.63 19.125 28.4062 19.125H27V13.5Z" fill="#FFDA44"/>
<path d="M9 19.6875H10.6875V12.9375H9V19.6875Z" fill="#787680"/>
<path d="M9 19.125H7.59375C7.36997 19.125 7.15536 19.0361 6.99713 18.8779C6.83889 18.7196 6.75 18.505 6.75 18.2812V14.3438C6.75 14.12 6.83889 13.9054 6.99713 13.7471C7.15536 13.5889 7.36997 13.5 7.59375 13.5H9V19.125Z" fill="#FFDA44"/>
<path d="M26.4375 24.1875H24.1875V25.8047H26.4375V24.1875Z" fill="#787680"/>
<path d="M21.375 24.1758V27.0002L18 29.8127L14.625 27.0002V24.1758C15.7774 24.8958 16.9959 25.3127 18 25.3127C19.0041 25.3127 20.2226 24.8958 21.375 24.1758Z" fill="#FFDAAA"/>
<path d="M25.3125 13.89V17.9998C25.3125 20.5971 23.4513 22.8781 21.375 24.1753C20.2226 24.8953 19.0041 25.3123 18 25.3123C16.9959 25.3123 15.7774 24.8953 14.625 24.1753C14.1518 23.8792 13.7048 23.5431 13.2891 23.1706C11.8125 21.8473 10.6875 20.0192 10.6875 17.9998V13.992C12.9778 13.9828 15.2535 13.6272 17.4375 12.9373C19.8858 12.1716 21.3799 11.2681 21.3799 11.2681C21.8179 11.9211 22.3734 12.4872 23.0182 12.9373C23.7061 13.4151 24.4885 13.74 25.3125 13.89Z" fill="#FFDAAA"/>
<path d="M25.3125 11.25V13.8902C24.4885 13.7402 23.7061 13.4153 23.0182 12.9375C22.3734 12.4874 21.8179 11.9214 21.3799 11.2683C21.3799 11.2683 19.8858 12.1718 17.4375 12.9375C15.2535 13.6274 12.9778 13.983 10.6875 13.9922V11.25C10.6875 9.3106 11.4579 7.45064 12.8293 6.07928C14.2006 4.70792 16.0606 3.9375 18 3.9375C19.9394 3.9375 21.7994 4.70792 23.1707 6.07928C24.5421 7.45064 25.3125 9.3106 25.3125 11.25Z" fill="#FF9811"/>
<path d="M14.625 16.875C15.2463 16.875 15.75 16.3713 15.75 15.75C15.75 15.1287 15.2463 14.625 14.625 14.625C14.0037 14.625 13.5 15.1287 13.5 15.75C13.5 16.3713 14.0037 16.875 14.625 16.875Z" fill="black"/>
<path d="M21.375 16.875C21.9963 16.875 22.5 16.3713 22.5 15.75C22.5 15.1287 21.9963 14.625 21.375 14.625C20.7537 14.625 20.25 15.1287 20.25 15.75C20.25 16.3713 20.7537 16.875 21.375 16.875Z" fill="black"/>
<path d="M31.3594 30.6816C30.4973 29.3998 29.3084 28.5061 28.0125 28.1651L21.9375 26.5662V24.4765C23.4408 23.4689 24.7901 21.9846 25.4496 20.25H27C27.1492 20.25 27.2923 20.1907 27.3977 20.0852C27.5032 19.9798 27.5625 19.8367 27.5625 19.6875V24.1875H27C27 24.0383 26.9407 23.8952 26.8352 23.7898C26.7298 23.6843 26.5867 23.625 26.4375 23.625H24.1875C24.0383 23.625 23.8952 23.6843 23.7898 23.7898C23.6843 23.8952 23.625 24.0383 23.625 24.1875V25.8047C23.625 25.9539 23.6843 26.0969 23.7898 26.2024C23.8952 26.3079 24.0383 26.3672 24.1875 26.3672H26.4375C26.5867 26.3672 26.7298 26.3079 26.8352 26.2024C26.9407 26.0969 27 25.9539 27 25.8047V25.3125H28.125C28.2742 25.3125 28.4173 25.2532 28.5227 25.1477C28.6282 25.0423 28.6875 24.8992 28.6875 24.75V19.6594C29.0049 19.5941 29.2901 19.4214 29.4951 19.1704C29.7 18.9193 29.8121 18.6053 29.8125 18.2812V14.3438C29.8121 14.0197 29.7 13.7057 29.4951 13.4546C29.2901 13.2036 29.0049 13.0309 28.6875 12.9656V11.25C28.6875 5.35711 23.8929 0.5625 18 0.5625C12.1071 0.5625 7.3125 5.35711 7.3125 11.25V12.9656C6.99508 13.0309 6.70987 13.2036 6.50494 13.4546C6.30001 13.7057 6.1879 14.0197 6.1875 14.3438V18.2812C6.18787 18.6541 6.33615 19.0116 6.59979 19.2752C6.86343 19.5389 7.2209 19.6871 7.59375 19.6875H8.4375C8.4375 19.8367 8.49676 19.9798 8.60225 20.0852C8.70774 20.1907 8.85082 20.25 9 20.25H10.5504C11.2099 21.9846 12.5592 23.4689 14.0625 24.4765V26.5662L7.9882 28.1651C6.69164 28.5061 5.50266 29.3998 4.64062 30.6816C3.8243 31.8959 3.375 33.3267 3.375 34.7112V34.875C3.375 35.0242 3.43426 35.1673 3.53975 35.2727C3.64524 35.3782 3.78832 35.4375 3.9375 35.4375H32.0625C32.2117 35.4375 32.3548 35.3782 32.4602 35.2727C32.5657 35.1673 32.625 35.0242 32.625 34.875V34.7112C32.625 33.3267 32.1757 31.8959 31.3594 30.6816ZM25.875 25.2422H24.75V24.75H25.875V25.2422ZM24.75 13.1702C23.5603 12.7788 22.5373 11.9977 21.8461 10.9533C21.7652 10.8338 21.6416 10.7499 21.5007 10.7189C21.3598 10.6879 21.2124 10.7121 21.0888 10.7866C21.0466 10.8127 16.9235 13.2659 11.25 13.422V11.25C11.25 9.45979 11.9612 7.7429 13.227 6.47703C14.4929 5.21116 16.2098 4.5 18 4.5C19.7902 4.5 21.5071 5.21116 22.773 6.47703C24.0388 7.7429 24.75 9.45979 24.75 11.25V13.1702ZM26.4375 19.125H25.875V13.5H26.4375V19.125ZM28.6875 14.3438V18.2812C28.6875 18.3558 28.6579 18.4274 28.6051 18.4801C28.5524 18.5329 28.4808 18.5625 28.4062 18.5625H27.5625V14.0625H28.4062C28.4808 14.0625 28.5524 14.0921 28.6051 14.1449C28.6579 14.1976 28.6875 14.2692 28.6875 14.3438ZM8.4375 18.5625H7.59375C7.51916 18.5625 7.44762 18.5329 7.39488 18.4801C7.34213 18.4274 7.3125 18.3558 7.3125 18.2812V14.3438C7.3125 14.2692 7.34213 14.1976 7.39488 14.1449C7.44762 14.0921 7.51916 14.0625 7.59375 14.0625H8.4375V18.5625ZM10.125 19.125H9.5625V13.5H10.125V19.125ZM10.125 11.25V12.375H9C8.85082 12.375 8.70774 12.4343 8.60225 12.5398C8.49676 12.6452 8.4375 12.7883 8.4375 12.9375V11.25C8.4375 5.97727 12.7273 1.6875 18 1.6875C23.2727 1.6875 27.5625 5.97727 27.5625 11.25V12.9375C27.5625 12.7883 27.5032 12.6452 27.3977 12.5398C27.2923 12.4343 27.1492 12.375 27 12.375H25.875V11.25C25.875 9.16142 25.0453 7.15838 23.5685 5.68153C22.0916 4.20468 20.0886 3.375 18 3.375C15.9114 3.375 13.9084 4.20468 12.4315 5.68153C10.9547 7.15838 10.125 9.16142 10.125 11.25ZM13.6645 22.7517C11.5636 20.8687 11.25 18.9668 11.25 18V14.547C16.1902 14.4204 19.9568 12.6689 21.2189 12.0016C22.1076 13.1472 23.3483 13.9688 24.75 14.3395V18C24.75 18.9668 24.4364 20.8687 22.3355 22.7517C20.9813 23.9653 19.279 24.75 18 24.75C16.721 24.75 15.0188 23.9653 13.6645 22.7517ZM20.8125 25.1283V26.7363L18 29.0805L15.1875 26.7363V25.1283C16.1613 25.6071 17.1436 25.875 18 25.875C18.8564 25.875 19.8387 25.6071 20.8125 25.1283ZM27 34.3125V33.1875C27 33.0383 26.9407 32.8952 26.8352 32.7898C26.7298 32.6843 26.5867 32.625 26.4375 32.625C26.2883 32.625 26.1452 32.6843 26.0398 32.7898C25.9343 32.8952 25.875 33.0383 25.875 33.1875V34.3125H10.125V33.1875C10.125 33.0383 10.0657 32.8952 9.96025 32.7898C9.85476 32.6843 9.71168 32.625 9.5625 32.625C9.41332 32.625 9.27024 32.6843 9.16475 32.7898C9.05926 32.8952 9 33.0383 9 33.1875V34.3125H4.51477C4.68422 31.9901 6.30562 29.771 8.27437 29.2535L14.4879 27.618L17.64 30.2449C17.7411 30.3291 17.8685 30.3752 18 30.3752C18.1315 30.3752 18.2589 30.3291 18.36 30.2449L21.5121 27.618L27.7263 29.2535C29.6944 29.771 31.3158 31.9901 31.4852 34.3125H27Z" fill="black"/>
<path d="M19.6875 21.375C19.6875 21.2258 19.6282 21.0827 19.5227 20.9773C19.4173 20.8718 19.2742 20.8125 19.125 20.8125H16.875C16.7258 20.8125 16.5827 20.8718 16.4773 20.9773C16.3718 21.0827 16.3125 21.2258 16.3125 21.375C16.3125 21.5242 16.3718 21.6673 16.4773 21.7727C16.5827 21.8782 16.7258 21.9375 16.875 21.9375H19.125C19.2742 21.9375 19.4173 21.8782 19.5227 21.7727C19.6282 21.6673 19.6875 21.5242 19.6875 21.375Z" fill="black"/>
</svg>
