<svg width="24" height="24" viewBox="0 0 24 24" fill="none" xmlns="http://www.w3.org/2000/svg">
<g clip-path="url(#clip0_683_3200)">
<path d="M5.41162 10.1219C5.35448 10.2634 5.38875 10.4254 5.49834 10.5316C5.60789 10.6378 5.77092 10.6671 5.91056 10.6055L7.72997 9.80373C8.40305 10.2388 9.17461 10.5187 9.97477 10.6167C10.1875 10.6427 10.3988 10.6556 10.608 10.6563C11.3791 11.0646 12.2358 11.2754 13.1002 11.2754C13.4526 11.2754 13.8063 11.2404 14.1558 11.1698C14.9459 11.0099 15.6934 10.6708 16.3306 10.1848L18.2069 10.8428C18.3509 10.8932 18.5111 10.8515 18.6121 10.7371C18.7131 10.6226 18.7347 10.4585 18.6667 10.3218L17.7677 8.51495C18.3757 7.41095 18.5723 6.13248 18.3212 4.89128C17.8187 2.40798 15.6404 0.628229 13.1205 0.619698C12.5521 0.318432 11.9275 0.120807 11.2699 0.0403227C9.85739 -0.132693 8.46206 0.254776 7.34091 1.13129C6.2198 2.00781 5.50706 3.26842 5.33414 4.68099C5.1802 5.93795 5.4757 7.19734 6.16758 8.25071L5.41162 10.1219ZM17.586 5.03992C17.8137 6.16501 17.6131 7.32582 17.0212 8.30846C16.955 8.41824 16.9495 8.55423 17.0066 8.66903L17.584 9.82951L16.3834 9.40848C16.2592 9.36489 16.1212 9.38968 16.0198 9.47382C15.4427 9.95274 14.7467 10.285 14.0071 10.4347C13.3942 10.5587 12.7668 10.554 12.1635 10.4281C14.1203 9.83354 15.6464 8.1331 15.9105 5.97601C16.0835 4.56348 15.696 3.16815 14.8196 2.04704C14.6824 1.87164 14.5359 1.70621 14.3808 1.55129C15.9775 2.01648 17.2412 3.3361 17.586 5.03992ZM6.07847 4.77203C6.22706 3.55834 6.83944 2.47515 7.80277 1.72206C8.76605 0.968917 9.96497 0.636057 11.1787 0.784651C12.3924 0.933245 13.4756 1.54562 14.2287 2.50895C14.9818 3.47223 15.3147 4.67115 15.1661 5.88489C14.8823 8.20238 12.9038 9.90671 10.6257 9.90653C9.68602 9.90648 8.75245 9.61309 7.98459 9.07079C7.88363 8.99949 7.73405 8.98238 7.617 9.03395L6.45272 9.54704L6.9382 8.34517C6.9862 8.22629 6.97022 8.0912 6.89573 7.98685C6.22917 7.05315 5.93897 5.91146 6.07847 4.77203ZM10.1483 5.32843C10.1483 5.06954 10.3581 4.85968 10.617 4.85968C10.8759 4.85968 11.0858 5.06954 11.0858 5.32843C11.0858 5.58732 10.8759 5.79718 10.617 5.79718C10.3581 5.79718 10.1483 5.58732 10.1483 5.32843ZM12.2936 5.32843C12.2936 5.06954 12.5034 4.85968 12.7623 4.85968C13.0212 4.85968 13.2311 5.06954 13.2311 5.32843C13.2311 5.58732 13.0212 5.79718 12.7623 5.79718C12.5035 5.79718 12.2936 5.58732 12.2936 5.32843ZM8.01347 5.32843C8.01347 5.06954 8.22333 4.85968 8.48222 4.85968C8.74111 4.85968 8.95097 5.06954 8.95097 5.32843C8.95097 5.58732 8.74111 5.79718 8.48222 5.79718C8.22333 5.79718 8.01347 5.58732 8.01347 5.32843ZM7.31489 18.2277C8.14214 17.6836 8.68973 16.7476 8.68973 15.6855C8.68973 14.0086 7.32544 12.6443 5.64848 12.6443C3.97153 12.6443 2.60723 14.0086 2.60723 15.6855C2.60723 16.7475 3.15483 17.6836 3.98208 18.2277C1.67836 18.9404 0 21.0904 0 23.6252C0 23.8323 0.167906 24.0002 0.375 24.0002H10.9219C11.129 24.0002 11.2969 23.8323 11.2969 23.6252C11.2969 21.0905 9.61856 18.9405 7.31489 18.2277ZM3.35723 15.6855C3.35723 14.4221 4.38506 13.3943 5.64848 13.3943C6.91191 13.3943 7.93973 14.4221 7.93973 15.6855C7.93973 16.9487 6.91219 17.9764 5.64909 17.9768C5.64886 17.9768 5.64867 17.9768 5.64848 17.9768C5.6483 17.9768 5.64811 17.9768 5.64792 17.9768C4.38473 17.9764 3.35723 16.9487 3.35723 15.6855ZM0.764203 23.2502C0.956297 20.7239 3.07322 18.7271 5.64783 18.7268C5.64802 18.7268 5.64825 18.7268 5.64844 18.7268C5.64862 18.7268 5.64881 18.7268 5.64905 18.7268C8.22366 18.7271 10.3405 20.7239 10.5326 23.2502H0.764203ZM20.018 18.2277C20.8452 17.6836 21.3929 16.7476 21.3929 15.6855C21.3929 14.0086 20.0286 12.6443 18.3516 12.6443C16.6747 12.6443 15.3104 14.0086 15.3104 15.6855C15.3104 16.7475 15.858 17.6836 16.6852 18.2277C14.3815 18.9404 12.7031 21.0904 12.7031 23.6252C12.7031 23.8323 12.871 24.0002 13.0781 24.0002H23.625C23.8321 24.0002 24 23.8323 24 23.6252C24 21.0905 22.3217 18.9405 20.018 18.2277ZM16.0604 15.6855C16.0604 14.4221 17.0882 13.3943 18.3516 13.3943C19.615 13.3943 20.6428 14.4221 20.6428 15.6855C20.6428 16.9487 19.6153 17.9764 18.3521 17.9768C18.3519 17.9768 18.3517 17.9768 18.3515 17.9768C18.3513 17.9768 18.3511 17.9768 18.3509 17.9768C17.0879 17.9764 16.0604 16.9487 16.0604 15.6855ZM13.4673 23.2502C13.6594 20.7239 15.7763 18.7271 18.351 18.7268C18.3511 18.7268 18.3514 18.7268 18.3516 18.7268C18.3517 18.7268 18.352 18.7268 18.3522 18.7268C20.9268 18.7271 23.0437 20.7239 23.2358 23.2502H13.4673Z" fill="#009245"/>
</g>
<defs>
<clipPath id="clip0_683_3200">
<rect width="24" height="24" fill="white"/>
</clipPath>
</defs>
</svg>
