<?xml version="1.0" encoding="UTF-8"?>
<!DOCTYPE svg PUBLIC "-//W3C//DTD SVG 1.1//EN" "http://www.w3.org/Graphics/SVG/1.1/DTD/svg11.dtd">
<svg xmlns="http://www.w3.org/2000/svg" version="1.1" width="512px" height="512px" style="shape-rendering:geometricPrecision; text-rendering:geometricPrecision; image-rendering:optimizeQuality; fill-rule:evenodd; clip-rule:evenodd" xmlns:xlink="http://www.w3.org/1999/xlink">
<g><path style="opacity:0.978" fill="#020101" d="M 241.5,-0.5 C 250.5,-0.5 259.5,-0.5 268.5,-0.5C 313.094,10.6249 334.261,39.2916 332,85.5C 330.243,96.9385 326.41,107.605 320.5,117.5C 312.76,128.634 305.76,140.3 299.5,152.5C 284.931,177.97 270.097,203.303 255,228.5C 239.903,203.303 225.069,177.97 210.5,152.5C 203.737,140.632 196.737,128.965 189.5,117.5C 175.742,93.8049 173.909,69.1382 184,43.5C 196.085,19.5448 215.252,4.8781 241.5,-0.5 Z"/></g>
<g><path style="opacity:1" fill="#ec4747" d="M 245.5,15.5 C 272.489,13.1931 293.322,23.1931 308,45.5C 314.2,58.1357 316.2,71.469 314,85.5C 313.144,91.4026 311.477,97.0693 309,102.5C 291,133.167 273,163.833 255,194.5C 235.934,162.425 217.267,130.092 199,97.5C 189.301,67.7523 196.801,43.5856 221.5,25C 229.063,20.3727 237.063,17.206 245.5,15.5 Z"/></g>
<g><path style="opacity:1" fill="#040202" d="M 246.5,33.5 C 266.528,31.0893 280.362,39.0893 288,57.5C 291.767,77.1351 284.601,90.9685 266.5,99C 252.575,103.219 240.408,100.385 230,90.5C 219.915,76.8108 218.915,62.4775 227,47.5C 232.066,40.7277 238.566,36.0611 246.5,33.5 Z"/></g>
<g><path style="opacity:1" fill="#f9f9f9" d="M 248.5,50.5 C 264.215,48.2391 272.049,54.9058 272,70.5C 267.242,82.6413 258.742,86.4746 246.5,82C 239.076,76.6336 236.576,69.4669 239,60.5C 241.359,56.3098 244.526,52.9765 248.5,50.5 Z"/></g>
<g><path style="opacity:0.989" fill="#010101" d="M 170.5,117.5 C 169.523,120.287 169.19,123.287 169.5,126.5C 135.167,126.5 100.833,126.5 66.5,126.5C 66.1778,132.358 66.5111,138.025 67.5,143.5C 107.167,143.5 146.833,143.5 186.5,143.5C 186.5,149.167 186.5,154.833 186.5,160.5C 145.33,160.168 104.33,160.501 63.5,161.5C 50.6799,187.14 37.8466,212.807 25,238.5C 24.5026,241.146 24.3359,243.813 24.5,246.5C 178.167,246.5 331.833,246.5 485.5,246.5C 485.665,243.482 485.498,240.482 485,237.5C 472.5,212.5 460,187.5 447.5,162.5C 406.172,161.5 364.839,161.167 323.5,161.5C 323.5,158.5 323.5,155.5 323.5,152.5C 323.5,149.833 323.5,147.167 323.5,144.5C 363.5,144.5 403.5,144.5 443.5,144.5C 443.5,138.5 443.5,132.5 443.5,126.5C 409.167,126.5 374.833,126.5 340.5,126.5C 340.5,123.5 340.5,120.5 340.5,117.5C 340.5,114.833 340.5,112.167 340.5,109.5C 380.5,109.5 420.5,109.5 460.5,109.5C 460.333,123.171 460.5,136.837 461,150.5C 475,178.5 489,206.5 503,234.5C 503.667,253.167 503.667,271.833 503,290.5C 501.21,301.425 495.877,310.092 487,316.5C 486.5,381.499 486.333,446.499 486.5,511.5C 332.167,511.5 177.833,511.5 23.5,511.5C 23.6667,446.499 23.5,381.499 23,316.5C 13.9678,309.777 8.63442,300.777 7,289.5C 6.33333,271.5 6.33333,253.5 7,235.5C 21,207.5 35,179.5 49,151.5C 49.4999,137.504 49.6666,123.504 49.5,109.5C 89.8333,109.5 130.167,109.5 170.5,109.5C 170.5,112.167 170.5,114.833 170.5,117.5 Z"/></g>
<g><path style="opacity:1" fill="#248e6f" d="M 170.5,117.5 C 176.833,117.5 183.167,117.5 189.5,117.5C 196.737,128.965 203.737,140.632 210.5,152.5C 202.833,152.5 195.167,152.5 187.5,152.5C 187.5,155.5 187.5,158.5 187.5,161.5C 146.167,161.5 104.833,161.5 63.5,161.5C 104.33,160.501 145.33,160.168 186.5,160.5C 186.5,154.833 186.5,149.167 186.5,143.5C 146.833,143.5 107.167,143.5 67.5,143.5C 67.5,138.167 67.5,132.833 67.5,127.5C 101.671,127.832 135.671,127.498 169.5,126.5C 169.19,123.287 169.523,120.287 170.5,117.5 Z"/></g>
<g><path style="opacity:1" fill="#239071" d="M 320.5,117.5 C 327.167,117.5 333.833,117.5 340.5,117.5C 340.5,120.5 340.5,123.5 340.5,126.5C 374.329,127.498 408.329,127.832 442.5,127.5C 442.5,132.833 442.5,138.167 442.5,143.5C 402.663,143.168 362.996,143.501 323.5,144.5C 323.5,147.167 323.5,149.833 323.5,152.5C 315.5,152.5 307.5,152.5 299.5,152.5C 305.76,140.3 312.76,128.634 320.5,117.5 Z"/></g>
<g><path style="opacity:1" fill="#155644" d="M 169.5,126.5 C 135.671,127.498 101.671,127.832 67.5,127.5C 67.5,132.833 67.5,138.167 67.5,143.5C 66.5111,138.025 66.1778,132.358 66.5,126.5C 100.833,126.5 135.167,126.5 169.5,126.5 Z"/></g>
<g><path style="opacity:1" fill="#114a3a" d="M 340.5,126.5 C 374.833,126.5 409.167,126.5 443.5,126.5C 443.5,132.5 443.5,138.5 443.5,144.5C 403.5,144.5 363.5,144.5 323.5,144.5C 362.996,143.501 402.663,143.168 442.5,143.5C 442.5,138.167 442.5,132.833 442.5,127.5C 408.329,127.832 374.329,127.498 340.5,126.5 Z"/></g>
<g><path style="opacity:1" fill="#5bc3a5" d="M 210.5,152.5 C 225.069,177.97 239.903,203.303 255,228.5C 270.097,203.303 284.931,177.97 299.5,152.5C 307.5,152.5 315.5,152.5 323.5,152.5C 323.5,155.5 323.5,158.5 323.5,161.5C 364.839,161.167 406.172,161.5 447.5,162.5C 460,187.5 472.5,212.5 485,237.5C 485.498,240.482 485.665,243.482 485.5,246.5C 331.833,246.5 178.167,246.5 24.5,246.5C 24.3359,243.813 24.5026,241.146 25,238.5C 37.8466,212.807 50.6799,187.14 63.5,161.5C 104.833,161.5 146.167,161.5 187.5,161.5C 187.5,158.5 187.5,155.5 187.5,152.5C 195.167,152.5 202.833,152.5 210.5,152.5 Z"/></g>
<g><path style="opacity:1" fill="#c8aa6f" d="M 246.5,264.5 C 232.5,264.5 218.5,264.5 204.5,264.5C 204.5,272.833 204.5,281.167 204.5,289.5C 203.507,281.016 203.174,272.349 203.5,263.5C 218.01,263.171 232.343,263.504 246.5,264.5 Z"/></g>
<g><path style="opacity:1" fill="#c8aa6f" d="M 323.5,264.5 C 337.657,263.504 351.99,263.171 366.5,263.5C 366.826,272.349 366.493,281.016 365.5,289.5C 365.5,281.167 365.5,272.833 365.5,264.5C 351.5,264.5 337.5,264.5 323.5,264.5 Z"/></g>
<g><path style="opacity:1" fill="#29b490" d="M 24.5,263.5 C 38.8333,263.5 53.1667,263.5 67.5,263.5C 68.0963,273.974 67.2629,284.308 65,294.5C 56.9922,306.588 46.4922,309.421 33.5,303C 30.2379,300.408 27.7379,297.241 26,293.5C 24.5766,283.58 24.0766,273.58 24.5,263.5 Z"/></g>
<g><path style="opacity:1" fill="#f4d087" d="M 84.5,263.5 C 98.5,263.5 112.5,263.5 126.5,263.5C 126.923,273.58 126.423,283.58 125,293.5C 117.456,306.351 106.956,309.517 93.5,303C 90.2379,300.408 87.7379,297.241 86,293.5C 84.5766,283.58 84.0766,273.58 84.5,263.5 Z"/></g>
<g><path style="opacity:1" fill="#29b390" d="M 143.5,263.5 C 157.833,263.5 172.167,263.5 186.5,263.5C 186.895,273.566 186.395,283.566 185,293.5C 177.456,306.351 166.956,309.517 153.5,303C 148.688,299.2 145.521,294.366 144,288.5C 143.5,280.173 143.334,271.84 143.5,263.5 Z"/></g>
<g><path style="opacity:1" fill="#f5d087" d="M 246.5,264.5 C 246.666,273.173 246.5,281.84 246,290.5C 240.63,303.435 231.13,308.268 217.5,305C 210.706,301.919 206.372,296.752 204.5,289.5C 204.5,281.167 204.5,272.833 204.5,264.5C 218.5,264.5 232.5,264.5 246.5,264.5 Z"/></g>
<g><path style="opacity:1" fill="#29b491" d="M 263.5,263.5 C 277.833,263.5 292.167,263.5 306.5,263.5C 306.666,272.173 306.5,280.84 306,289.5C 300.868,303.484 291.035,308.65 276.5,305C 270.089,301.694 265.922,296.528 264,289.5C 263.5,280.84 263.334,272.173 263.5,263.5 Z"/></g>
<g><path style="opacity:1" fill="#f5d087" d="M 323.5,264.5 C 337.5,264.5 351.5,264.5 365.5,264.5C 365.5,272.833 365.5,281.167 365.5,289.5C 362.637,300.118 355.637,305.784 344.5,306.5C 334.034,305.848 327.201,300.514 324,290.5C 323.5,281.84 323.334,273.173 323.5,264.5 Z"/></g>
<g><path style="opacity:1" fill="#29b390" d="M 383.5,263.5 C 397.833,263.5 412.167,263.5 426.5,263.5C 426.666,271.84 426.5,280.173 426,288.5C 419.89,304.982 408.724,309.815 392.5,303C 389.238,300.408 386.738,297.241 385,293.5C 383.605,283.566 383.105,273.566 383.5,263.5 Z"/></g>
<g><path style="opacity:1" fill="#f4d087" d="M 443.5,263.5 C 457.5,263.5 471.5,263.5 485.5,263.5C 485.923,273.58 485.423,283.58 484,293.5C 476.456,306.351 465.956,309.517 452.5,303C 449.238,300.408 446.738,297.241 445,293.5C 443.577,283.58 443.077,273.58 443.5,263.5 Z"/></g>
<g><path style="opacity:1" fill="#658594" d="M 74.5,309.5 C 79.092,313.473 84.092,316.973 89.5,320C 107.166,326.597 122.499,323.097 135.5,309.5C 155.451,327.992 175.451,327.992 195.5,309.5C 215.451,327.992 235.451,327.992 255.5,309.5C 270.479,325.123 287.479,327.623 306.5,317C 309.645,315.022 312.312,312.522 314.5,309.5C 321.386,316.611 329.719,321.111 339.5,323C 340.497,368.761 340.83,414.595 340.5,460.5C 240.833,460.5 141.167,460.5 41.5,460.5C 41.3333,414.499 41.5,368.499 42,322.5C 53.4714,323.789 63.6381,320.622 72.5,313C 73.305,311.887 73.9717,310.721 74.5,309.5 Z"/></g>
<g><path style="opacity:1" fill="#658594" d="M 373.5,309.5 C 377.656,312.811 381.99,315.977 386.5,319C 404.694,326.807 420.694,323.64 434.5,309.5C 443.427,319.89 454.594,324.223 468,322.5C 468.5,379.832 468.667,437.166 468.5,494.5C 431.5,494.5 394.5,494.5 357.5,494.5C 357.167,436.496 357.5,378.496 358.5,320.5C 364.456,318.033 369.456,314.366 373.5,309.5 Z"/></g>
<g><path style="opacity:1" fill="#c5cfd5" d="M 460.5,332.5 C 460.167,332.5 459.833,332.5 459.5,332.5C 431.5,332.5 403.5,332.5 375.5,332.5C 375.5,349.167 375.5,365.833 375.5,382.5C 381.026,382.179 386.36,382.512 391.5,383.5C 385.833,383.5 380.167,383.5 374.5,383.5C 374.5,366.167 374.5,348.833 374.5,331.5C 403.338,331.169 432.005,331.502 460.5,332.5 Z"/></g>
<g><path style="opacity:1" fill="#fefefe" d="M 459.5,332.5 C 459.666,338.509 459.499,344.509 459,350.5C 431.333,378.167 403.667,405.833 376,433.5C 375.5,422.505 375.333,411.505 375.5,400.5C 380.833,400.5 386.167,400.5 391.5,400.5C 391.5,394.833 391.5,389.167 391.5,383.5C 386.36,382.512 381.026,382.179 375.5,382.5C 375.5,365.833 375.5,349.167 375.5,332.5C 403.5,332.5 431.5,332.5 459.5,332.5 Z"/></g>
<g><path style="opacity:1" fill="#000000" d="M 58.5,340.5 C 146.833,340.5 235.167,340.5 323.5,340.5C 323.5,371.833 323.5,403.167 323.5,434.5C 235.167,434.5 146.833,434.5 58.5,434.5C 58.5,403.167 58.5,371.833 58.5,340.5 Z"/></g>
<g><path style="opacity:1" fill="#e2e5e9" d="M 459.5,332.5 C 459.833,332.5 460.167,332.5 460.5,332.5C 460.5,383.833 460.5,435.167 460.5,486.5C 431.833,486.5 403.167,486.5 374.5,486.5C 374.5,457.833 374.5,429.167 374.5,400.5C 374.833,400.5 375.167,400.5 375.5,400.5C 375.333,411.505 375.5,422.505 376,433.5C 403.667,405.833 431.333,378.167 459,350.5C 459.499,344.509 459.666,338.509 459.5,332.5 Z"/></g>
<g><path style="opacity:1" fill="#cccdce" d="M 92.5,357.5 C 163.833,357.5 235.167,357.5 306.5,357.5C 306.5,366.167 306.5,374.833 306.5,383.5C 305.507,375.35 305.174,367.017 305.5,358.5C 302.5,358.5 299.5,358.5 296.5,358.5C 285.167,358.5 273.833,358.5 262.5,358.5C 251.167,358.5 239.833,358.5 228.5,358.5C 216.833,358.5 205.167,358.5 193.5,358.5C 182.167,358.5 170.833,358.5 159.5,358.5C 148.167,358.5 136.833,358.5 125.5,358.5C 114.321,358.828 103.321,358.495 92.5,357.5 Z"/></g>
<g><path style="opacity:1" fill="#e3e6e9" d="M 92.5,357.5 C 103.321,358.495 114.321,358.828 125.5,358.5C 109.167,375.5 92.5,392.167 75.5,408.5C 75.5,391.5 75.5,374.5 75.5,357.5C 81.1667,357.5 86.8333,357.5 92.5,357.5 Z"/></g>
<g><path style="opacity:1" fill="#fefefe" d="M 76.5,358.5 C 81.5111,358.334 86.5111,358.501 91.5,359C 86.6667,363.833 81.8333,368.667 77,373.5C 76.5007,368.511 76.3341,363.511 76.5,358.5 Z"/></g>
<g><path style="opacity:1" fill="#fefefe" d="M 125.5,358.5 C 136.833,358.5 148.167,358.5 159.5,358.5C 140.167,378.167 120.833,397.833 101.5,417.5C 92.8333,417.5 84.1667,417.5 75.5,417.5C 75.5,414.5 75.5,411.5 75.5,408.5C 92.5,392.167 109.167,375.5 125.5,358.5 Z"/></g>
<g><path style="opacity:1" fill="#e4e7ea" d="M 159.5,358.5 C 170.833,358.5 182.167,358.5 193.5,358.5C 174.868,377.632 156.035,396.632 137,415.5C 136.536,416.094 136.369,416.761 136.5,417.5C 124.833,417.5 113.167,417.5 101.5,417.5C 120.833,397.833 140.167,378.167 159.5,358.5 Z"/></g>
<g><path style="opacity:1" fill="#fefefe" d="M 193.5,358.5 C 205.167,358.5 216.833,358.5 228.5,358.5C 209.167,378.167 189.833,397.833 170.5,417.5C 159.167,417.5 147.833,417.5 136.5,417.5C 136.369,416.761 136.536,416.094 137,415.5C 156.035,396.632 174.868,377.632 193.5,358.5 Z"/></g>
<g><path style="opacity:1" fill="#e4e7ea" d="M 228.5,358.5 C 239.833,358.5 251.167,358.5 262.5,358.5C 243.167,378.167 223.833,397.833 204.5,417.5C 193.167,417.5 181.833,417.5 170.5,417.5C 189.833,397.833 209.167,378.167 228.5,358.5 Z"/></g>
<g><path style="opacity:1" fill="#fefefe" d="M 262.5,358.5 C 273.833,358.5 285.167,358.5 296.5,358.5C 277.167,378.167 257.833,397.833 238.5,417.5C 227.167,417.5 215.833,417.5 204.5,417.5C 223.833,397.833 243.167,378.167 262.5,358.5 Z"/></g>
<g><path style="opacity:1" fill="#e3e6e9" d="M 296.5,358.5 C 299.5,358.5 302.5,358.5 305.5,358.5C 305.174,367.017 305.507,375.35 306.5,383.5C 306.828,395.012 306.495,406.346 305.5,417.5C 305.667,406.495 305.5,395.495 305,384.5C 293.965,395.368 283.131,406.368 272.5,417.5C 261.167,417.5 249.833,417.5 238.5,417.5C 257.833,397.833 277.167,378.167 296.5,358.5 Z"/></g>
<g><path style="opacity:1" fill="#020303" d="M 374.5,383.5 C 380.167,383.5 385.833,383.5 391.5,383.5C 391.5,389.167 391.5,394.833 391.5,400.5C 386.167,400.5 380.833,400.5 375.5,400.5C 375.167,400.5 374.833,400.5 374.5,400.5C 374.5,394.833 374.5,389.167 374.5,383.5 Z"/></g>
<g><path style="opacity:1" fill="#fefefe" d="M 458.5,384.5 C 459.661,398.661 459.827,412.994 459,427.5C 439.833,446.667 420.667,465.833 401.5,485C 392.84,485.5 384.173,485.666 375.5,485.5C 375.334,479.491 375.501,473.491 376,467.5C 403.702,439.965 431.202,412.299 458.5,384.5 Z"/></g>
<g><path style="opacity:1" fill="#fefefe" d="M 305.5,417.5 C 294.5,417.5 283.5,417.5 272.5,417.5C 283.131,406.368 293.965,395.368 305,384.5C 305.5,395.495 305.667,406.495 305.5,417.5 Z"/></g>
<g><path style="opacity:1" fill="#fefefe" d="M 458.5,461.5 C 459.492,469.316 459.826,477.316 459.5,485.5C 451.493,485.666 443.493,485.5 435.5,485C 443.369,477.298 451.036,469.465 458.5,461.5 Z"/></g>
<g><path style="opacity:1" fill="#4c6776" d="M 41.5,477.5 C 141.167,477.5 240.833,477.5 340.5,477.5C 340.5,483.167 340.5,488.833 340.5,494.5C 240.833,494.5 141.167,494.5 41.5,494.5C 41.5,488.833 41.5,483.167 41.5,477.5 Z"/></g>
</svg>
