<svg width="28" height="28" viewBox="0 0 28 28" fill="none" xmlns="http://www.w3.org/2000/svg">
<path d="M3.58744 13.5625C3.58744 13.5625 1.35094 14.4342 1.34525 17.673C1.34442 17.7238 1.35782 17.7737 1.38393 17.8172C1.41005 17.8607 1.44783 17.896 1.49299 17.9191C1.53816 17.9423 1.5889 17.9523 1.63946 17.948C1.69001 17.9437 1.73837 17.9254 1.77903 17.8951C2.30662 17.4775 2.87122 17.109 3.46581 16.7941C3.5018 16.7777 3.54149 16.7712 3.58081 16.7753C3.62013 16.7793 3.65768 16.7937 3.68961 16.817C3.72155 16.8403 3.74672 16.8717 3.76255 16.9079C3.77838 16.9441 3.78431 16.9839 3.77972 17.0231C3.70972 17.6234 3.59138 18.8915 3.73334 19.6225C3.74149 19.6613 3.75814 19.6979 3.7821 19.7295C3.80605 19.7611 3.83671 19.787 3.87187 19.8053C3.90703 19.8237 3.94583 19.834 3.98545 19.8356C4.02508 19.8371 4.06457 19.8299 4.10106 19.8144C4.78789 19.542 5.42603 19.1601 5.99063 18.6834C6.01947 18.6552 6.05543 18.6352 6.09469 18.6257C6.13395 18.6162 6.17504 18.6176 6.21362 18.6295C6.25219 18.6415 6.28681 18.6637 6.31379 18.6938C6.34077 18.7238 6.35911 18.7606 6.36688 18.8003C6.51475 19.5934 6.90566 21.2188 7.72181 21.9406C7.75842 21.974 7.80342 21.9967 7.85198 22.0064C7.90053 22.0161 7.95081 22.0123 7.9974 21.9956C8.04399 21.9788 8.08513 21.9497 8.1164 21.9113C8.14766 21.8729 8.16787 21.8267 8.17484 21.7777C8.26541 21.1155 8.47847 19.8592 8.84247 19.3559C8.86433 19.3273 8.89284 19.3044 8.92554 19.2894C8.95823 19.2743 8.99411 19.2675 9.03006 19.2694C9.06601 19.2714 9.10093 19.2821 9.13179 19.3006C9.16265 19.3192 9.18851 19.345 9.20713 19.3758C9.57091 19.9618 10.5887 21.5784 11.2489 22.3958C11.2817 22.437 11.3258 22.4677 11.3757 22.4842C11.4256 22.5007 11.4793 22.5024 11.5301 22.489C11.581 22.4756 11.6268 22.4477 11.6621 22.4087C11.6974 22.3697 11.7206 22.3213 11.7289 22.2694L12.1134 19.8669C12.1204 19.823 12.1403 19.7822 12.1706 19.7496C12.2009 19.7171 12.2402 19.6944 12.2835 19.6843C12.3268 19.6743 12.3721 19.6774 12.4136 19.6932C12.4551 19.7091 12.491 19.7369 12.5166 19.7733L13.5559 21.245C13.5809 21.2805 13.6141 21.3094 13.6527 21.3294C13.6912 21.3494 13.734 21.3598 13.7775 21.3598C13.8209 21.3598 13.8637 21.3494 13.9023 21.3294C13.9408 21.3094 13.974 21.2805 13.9991 21.245L15.0383 19.7733C15.0639 19.7369 15.0998 19.7091 15.1413 19.6932C15.1828 19.6774 15.2282 19.6743 15.2714 19.6843C15.3147 19.6944 15.354 19.7171 15.3843 19.7496C15.4146 19.7822 15.4345 19.823 15.4415 19.8669L15.8254 22.2688C15.8337 22.3207 15.8569 22.3691 15.8922 22.4081C15.9275 22.4471 15.9733 22.475 16.0242 22.4884C16.075 22.5018 16.1287 22.5001 16.1786 22.4835C16.2285 22.467 16.2726 22.4363 16.3053 22.3952C16.9657 21.5777 17.9836 19.9612 18.3472 19.3751C18.3658 19.3443 18.3917 19.3185 18.4226 19.3C18.4534 19.2814 18.4884 19.2707 18.5243 19.2688C18.5603 19.2668 18.5962 19.2737 18.6289 19.2887C18.6616 19.3038 18.6901 19.3266 18.712 19.3552C19.0758 19.8583 19.2889 21.1148 19.3794 21.777C19.3864 21.826 19.4066 21.8722 19.4379 21.9106C19.4691 21.949 19.5103 21.9781 19.5569 21.9949C19.6035 22.0117 19.6537 22.0154 19.7023 22.0057C19.7509 21.996 19.7959 21.9733 19.8325 21.94C20.648 21.2181 21.0389 19.5932 21.1867 18.8C21.1945 18.7604 21.2128 18.7235 21.2398 18.6934C21.2668 18.6633 21.3015 18.6411 21.3401 18.6291C21.3787 18.6171 21.4198 18.6159 21.4591 18.6254C21.4984 18.6349 21.5344 18.6549 21.5632 18.6832C22.1277 19.1599 22.7658 19.5418 23.4526 19.8142C23.4891 19.8297 23.5285 19.8369 23.5682 19.8354C23.6078 19.8338 23.6466 19.8235 23.6818 19.8051C23.7169 19.7868 23.7476 19.7609 23.7715 19.7293C23.7955 19.6977 23.8121 19.6611 23.8203 19.6223C23.9625 18.8913 23.8439 17.6232 23.7741 17.0229C23.7695 16.9837 23.7754 16.9439 23.7912 16.9076C23.807 16.8714 23.8321 16.84 23.864 16.8167C23.896 16.7934 23.9335 16.779 23.9728 16.775C24.0122 16.771 24.0518 16.7775 24.0878 16.7939C24.6824 17.1088 25.247 17.4773 25.7746 17.8948C25.8153 17.9252 25.8636 17.9435 25.9142 17.9477C25.9648 17.952 26.0155 17.942 26.0607 17.9189C26.1058 17.8958 26.1436 17.8605 26.1698 17.817C26.1959 17.7735 26.2094 17.7235 26.2086 17.6728C26.2027 14.4342 23.9653 13.5625 23.9653 13.5625H3.58744Z" fill="#EAC271"/>
<path d="M4.64855 13.6504C4.64855 13.6504 2.64392 14.1413 2.63867 15.9652C2.63867 16.0923 2.86617 16.1669 3.02739 16.0901C3.51608 15.8484 4.0211 15.6413 4.53873 15.4702C4.6807 15.4297 4.83798 15.5019 4.81983 15.5992C4.75727 15.937 4.65117 16.6512 4.77827 17.0627C4.80714 17.1559 4.96858 17.2075 5.10792 17.172C5.69578 17.0286 6.26419 16.8147 6.80083 16.535C6.91786 16.4661 7.10861 16.5018 7.13792 16.6007C7.27048 17.0474 7.6207 17.962 8.35133 18.3688C8.49855 18.4506 8.73042 18.3995 8.75711 18.277C8.83827 17.9051 9.02923 17.1968 9.35517 16.9133C9.40361 16.8796 9.46163 16.8625 9.52058 16.8646C9.57952 16.8666 9.63622 16.8877 9.6822 16.9246C10.2623 17.5226 10.8728 18.0902 11.5114 18.6252C11.6442 18.7285 11.908 18.6849 11.9415 18.5539L12.2858 17.2009C12.3142 17.0896 12.5437 17.0561 12.6471 17.1482L13.5781 17.977C13.6358 18.019 13.7054 18.0417 13.7768 18.0417C13.8481 18.0417 13.9177 18.019 13.9754 17.977L14.9064 17.1482C15.0101 17.0561 15.2393 17.0896 15.2678 17.2009L15.6121 18.5539C15.6455 18.6851 15.9094 18.7289 16.0421 18.6252C16.6809 18.0902 17.2915 17.5226 17.8718 16.9246C17.9177 16.8877 17.9744 16.8667 18.0333 16.8646C18.0922 16.8626 18.1502 16.8796 18.1986 16.9133C18.5245 17.1976 18.7155 17.9042 18.7966 18.277C18.8233 18.3995 19.0554 18.4506 19.2024 18.3688C19.933 17.962 20.2835 17.0474 20.4158 16.6007C20.4454 16.5016 20.6359 16.4659 20.7531 16.535C21.2897 16.8147 21.858 17.0286 22.4458 17.172C22.5852 17.2086 22.7466 17.157 22.7755 17.0627C22.9026 16.6512 22.7974 15.937 22.7339 15.5992C22.716 15.5019 22.873 15.4297 23.015 15.4702C23.5327 15.6413 24.0377 15.8484 24.5264 16.0901C24.6878 16.1669 24.9153 16.0923 24.9151 15.965C24.9098 14.1413 22.9054 13.6504 22.9054 13.6504H4.64855Z" fill="#D6AB5F"/>
<path d="M21.0069 11.7788C22.8357 12.2364 23.9653 12.8669 23.9653 13.5627C23.9653 14.961 19.4037 16.0945 13.7768 16.0945C8.14987 16.0945 3.5874 14.961 3.5874 13.5627C3.5874 12.8669 4.71703 12.2364 6.54578 11.7788" fill="#A8753F"/>
<path d="M13.7768 15.5639C17.985 15.5639 21.3963 14.7766 21.3963 13.8054C21.3963 12.8342 17.985 12.0469 13.7768 12.0469C9.56872 12.0469 6.15735 12.8342 6.15735 13.8054C6.15735 14.7766 9.56872 15.5639 13.7768 15.5639Z" fill="#9E6032"/>
<path d="M21.1143 10.6783C21.1143 13.1502 19.6531 14.5524 17.8484 14.5524C17.6092 14.5531 17.3707 14.5267 17.1375 14.4737C16.8477 14.4115 16.5689 14.3061 16.3106 14.1608L16.3128 13.2596L16.3237 6.35146C16.5139 6.1855 16.725 6.04504 16.9515 5.93365H16.9537C17.233 5.79972 17.5386 5.72949 17.8484 5.72803C19.5393 5.72803 20.9306 7.90678 21.0968 10.2146C21.099 10.219 21.0968 10.2233 21.0968 10.2277C21.1093 10.3787 21.1143 10.5274 21.1143 10.6783ZM11.2437 14.1608C10.9844 14.3057 10.705 14.4112 10.4146 14.4737C10.1814 14.5267 9.94288 14.5531 9.70368 14.5524C7.90118 14.5524 6.43774 13.1502 6.43774 10.6783C6.43774 10.5274 6.44212 10.3787 6.45524 10.2277C6.45524 10.2233 6.45306 10.219 6.45524 10.2146C6.62149 7.90678 8.01493 5.72803 9.70368 5.72803C10.0135 5.72949 10.319 5.79972 10.5984 5.93365H10.6006C10.8281 6.04448 11.0399 6.18497 11.2306 6.35146L11.2415 13.2596L11.2437 14.1608Z" fill="#C99A67"/>
<path d="M21.0969 10.2146C21.0991 10.219 21.0969 10.2233 21.0969 10.2277C20.9306 12.4196 19.5394 13.6512 17.8484 13.6512C17.6092 13.6519 17.3707 13.6255 17.1375 13.5724C16.8484 13.5103 16.5704 13.4048 16.3128 13.2596L16.3237 6.35146C16.514 6.1855 16.725 6.04504 16.9516 5.93365H16.9537C17.2331 5.79972 17.5387 5.72949 17.8484 5.72803C19.5394 5.72803 20.9306 7.90678 21.0969 10.2146ZM11.2422 13.2596C10.9837 13.4045 10.705 13.5099 10.4153 13.5724C10.1821 13.6255 9.94356 13.6519 9.70437 13.6512C8.01562 13.6512 6.62218 12.4196 6.45593 10.2277C6.45593 10.2233 6.45374 10.219 6.45593 10.2146C6.62218 7.90678 8.01562 5.72803 9.70437 5.72803C10.0141 5.72949 10.3197 5.79972 10.5991 5.93365H10.6012C10.8288 6.04448 11.0406 6.18497 11.2312 6.35146L11.2422 13.2596Z" fill="#E8BE91"/>
<path d="M11.2437 14.1608C10.9844 14.3057 10.705 14.4111 10.4146 14.4736C9.5768 13.5986 9.06055 12.3167 9.06055 10.6892C9.06058 8.98178 9.59866 7.31777 10.5984 5.93359H10.6005C10.8281 6.04442 11.0399 6.18491 11.2305 6.35141L11.2437 14.1608ZM18.4915 10.6892C18.4915 12.3167 17.9753 13.5986 17.1375 14.4736C16.8477 14.4115 16.5689 14.306 16.3106 14.1608L16.3237 6.35141C16.5139 6.18544 16.725 6.04498 16.9515 5.93359H16.9537C17.9534 7.31777 18.4915 8.98178 18.4915 10.6892Z" fill="#C99A67"/>
<path d="M17.6166 10.6039C17.6166 13.5111 15.8972 15.1583 13.7775 15.1583C11.6578 15.1583 9.93628 13.5111 9.93628 10.6039C9.93628 10.3961 9.94503 10.1883 9.96253 9.98264C10.1835 7.29639 11.8066 4.78076 13.7775 4.78076C15.7485 4.78076 17.3694 7.29639 17.5903 9.98264C17.6078 10.1883 17.6166 10.3961 17.6166 10.6039Z" fill="#E2C7A1"/>
<path d="M17.5903 9.98264C17.3716 12.5136 15.7463 13.9376 13.7775 13.9376C11.8088 13.9376 10.1813 12.5136 9.96252 9.98264C10.1835 7.29639 11.8066 4.78076 13.7775 4.78076C15.7485 4.78076 17.3687 7.29639 17.5903 9.98264Z" fill="#F2D7B3"/>
<path d="M24.168 13.4235C24.0179 12.5485 22.5637 11.9723 21.2564 11.6265C21.3072 11.3161 21.3326 11.0021 21.3323 10.6876C21.3323 8.24196 19.9015 5.517 17.8481 5.517C17.3118 5.52778 16.7933 5.71197 16.3704 6.042C15.6868 5.153 14.7981 4.57178 13.7763 4.57178C12.7545 4.57178 11.8657 5.15387 11.1819 6.04221C10.759 5.71215 10.2406 5.52796 9.70424 5.51721C7.65105 5.51721 6.22021 8.24218 6.22021 10.6878C6.21998 11.0023 6.24536 11.3163 6.29612 11.6267C4.98865 11.9725 3.53462 12.5498 3.38455 13.4237C2.89258 13.6657 1.13143 14.7375 1.12574 17.6817C1.1252 17.774 1.15063 17.8647 1.19914 17.9433C1.24764 18.0219 1.31726 18.0853 1.40005 18.1262C1.48117 18.1668 1.57208 18.1839 1.66242 18.1754C1.75276 18.167 1.83891 18.1333 1.91105 18.0783C2.42335 17.6654 2.9767 17.3062 3.5624 17.0064C3.48387 17.6817 3.37362 18.9259 3.51865 19.6725C3.53198 19.7426 3.5608 19.8087 3.603 19.8662C3.6452 19.9236 3.69972 19.9709 3.76255 20.0046C3.82674 20.0393 3.89789 20.0591 3.97077 20.0627C4.04364 20.0662 4.11638 20.0534 4.18365 20.0251C4.89788 19.741 5.56185 19.344 6.15021 18.8494C6.31712 19.7447 6.72399 21.3595 7.57449 22.1129C7.64153 22.1727 7.72357 22.2131 7.8118 22.2298C7.90004 22.2465 7.99117 22.2389 8.07543 22.2078C8.15835 22.1771 8.23135 22.1244 8.2866 22.0553C8.34186 21.9863 8.3773 21.9035 8.38912 21.8158C8.54508 20.6759 8.77412 19.8291 9.01912 19.4997C9.41768 20.1417 10.4158 21.724 11.0765 22.5416C11.1358 22.616 11.2154 22.6714 11.3057 22.7013C11.3959 22.7311 11.4929 22.7341 11.5849 22.7098C11.6768 22.6855 11.7597 22.635 11.8234 22.5644C11.8871 22.4939 11.929 22.4063 11.9438 22.3124L12.3376 19.9079L13.3768 21.3797C13.4221 21.4437 13.4821 21.496 13.5517 21.5321C13.6214 21.5682 13.6987 21.5871 13.7771 21.5871C13.8556 21.5871 13.9329 21.5682 14.0026 21.5321C14.0722 21.496 14.1322 21.4437 14.1775 21.3797L15.2253 19.9096L15.6087 22.3124C15.6229 22.4062 15.6643 22.4937 15.7278 22.5641C15.7913 22.6346 15.8741 22.6848 15.966 22.7086C16.0081 22.7199 16.0516 22.7256 16.0952 22.7256C16.1682 22.7256 16.2403 22.709 16.306 22.6772C16.3717 22.6455 16.4294 22.5993 16.4748 22.5421C17.1361 21.7237 18.134 20.1417 18.5341 19.4929C18.7771 19.8292 19.0061 20.6757 19.1623 21.8161C19.1742 21.9037 19.2096 21.9865 19.2649 22.0555C19.3201 22.1246 19.3931 22.1773 19.476 22.2081C19.5603 22.2391 19.6514 22.2467 19.7396 22.23C19.8279 22.2132 19.9099 22.1729 19.977 22.1131C20.8275 21.3597 21.2343 19.7449 21.4131 18.8522C21.9963 19.3472 22.6566 19.7435 23.3678 20.0254C23.4351 20.0535 23.5078 20.0663 23.5807 20.0627C23.6535 20.0592 23.7247 20.0394 23.7889 20.0048C23.852 19.9713 23.9068 19.9242 23.9493 19.8668C23.9918 19.8094 24.0209 19.7433 24.0346 19.6732C24.1796 18.927 24.0693 17.6826 23.9969 17.0025C24.5784 17.3079 25.1293 17.6683 25.6421 18.0787C25.7143 18.1336 25.8004 18.1672 25.8907 18.1756C25.981 18.1841 26.0718 18.1671 26.1529 18.1266C26.2357 18.0856 26.3052 18.0221 26.3536 17.9434C26.4021 17.8647 26.4274 17.7741 26.4268 17.6817C26.4213 14.7373 24.66 13.6654 24.168 13.4235ZM17.8481 5.9545C19.4426 5.9545 20.8948 8.21025 20.8948 10.6876C20.8948 12.8729 19.6698 14.3407 17.8481 14.3407C17.4474 14.3427 17.0506 14.2625 16.6821 14.1051C17.4134 13.2671 17.8352 12.0613 17.8352 10.6123C17.8334 9.12199 17.4136 7.66201 16.6235 6.39834C16.9716 6.11948 17.4021 5.96345 17.8481 5.9545ZM13.7763 5.00928C15.6715 5.00928 17.3977 7.68065 17.3977 10.6139C17.3977 13.2069 15.9423 14.9493 13.7763 14.9493C11.6102 14.9493 10.1549 13.2061 10.1549 10.613C10.1549 7.67978 11.881 5.00928 13.7763 5.00928ZM9.70424 5.9545C10.1503 5.9634 10.581 6.11943 10.9292 6.39834C10.139 7.6622 9.71921 9.12242 9.71759 10.613C9.71759 12.062 10.1391 13.2677 10.8704 14.1058C10.5019 14.2632 10.1051 14.3433 9.70446 14.3414C7.88227 14.3414 6.65793 12.8729 6.65793 10.6882C6.65771 8.21025 8.10977 5.9545 9.70424 5.9545ZM6.38602 12.0554C6.81237 13.7267 8.03868 14.7789 9.70424 14.7789C10.2226 14.7826 10.7347 14.6657 11.2001 14.4374C11.9094 15.0649 12.8285 15.4033 13.7754 15.3855C14.7226 15.4035 15.642 15.0651 16.3516 14.4374C16.8172 14.6657 17.3296 14.7825 17.8481 14.7784C19.5139 14.7784 20.7402 13.726 21.1663 12.055C22.7851 12.4864 23.746 13.0472 23.746 13.5709C23.746 14.6647 19.6517 15.8842 13.7763 15.8842C7.90087 15.8842 3.8063 14.6653 3.8063 13.5714C3.8063 13.0477 4.76705 12.4868 6.38602 12.0554ZM25.9578 17.7348C25.9496 17.7392 25.9404 17.741 25.9312 17.74C25.922 17.7391 25.9133 17.7355 25.9062 17.7296C25.3665 17.3012 24.7879 16.9243 24.1781 16.6037C24.1068 16.5714 24.0283 16.5586 23.9504 16.5666C23.8726 16.5746 23.7983 16.6031 23.7351 16.6493C23.672 16.6954 23.6222 16.7575 23.5909 16.8292C23.5596 16.9009 23.5479 16.9797 23.557 17.0574C23.6178 17.5808 23.7447 18.8754 23.606 19.5896C23.6048 19.5959 23.6023 19.6018 23.5985 19.6069C23.5947 19.612 23.5898 19.6162 23.5842 19.6192C23.5771 19.6228 23.5694 19.6249 23.5614 19.6253C23.5535 19.6257 23.5456 19.6244 23.5382 19.6216C22.8752 19.3598 22.259 18.9921 21.7138 18.5328C21.6553 18.4775 21.5828 18.4389 21.5042 18.4212C21.4255 18.4036 21.3436 18.4074 21.2669 18.4324C21.1917 18.4562 21.1243 18.5 21.0722 18.5593C21.0201 18.6186 20.9851 18.691 20.9712 18.7687C20.8452 19.4452 20.4681 21.0933 19.6869 21.7852C19.6792 21.7924 19.6696 21.7974 19.6592 21.7995C19.6488 21.8016 19.638 21.8009 19.6281 21.7972C19.6192 21.7942 19.6115 21.7887 19.6057 21.7814C19.6 21.774 19.5965 21.7652 19.5957 21.7559C19.4769 20.8881 19.2577 19.7465 18.8887 19.2359C18.8471 19.1786 18.7921 19.1324 18.7284 19.1014C18.6647 19.0705 18.5943 19.0557 18.5236 19.0585C18.4505 19.061 18.3792 19.0815 18.3159 19.1181C18.2526 19.1547 18.1993 19.2064 18.1607 19.2685C17.8531 19.7642 16.7983 21.4446 16.1344 22.2654C16.1283 22.274 16.1196 22.2805 16.1096 22.2839C16.0995 22.2872 16.0887 22.2872 16.0786 22.284C16.0687 22.2818 16.0597 22.2765 16.0529 22.2689C16.0461 22.2614 16.0419 22.2519 16.0408 22.2417L15.6564 19.8405C15.6425 19.7537 15.603 19.6731 15.543 19.6088C15.483 19.5445 15.4053 19.4996 15.3196 19.4798C15.234 19.4599 15.1444 19.466 15.0622 19.4973C14.9801 19.5286 14.9091 19.5837 14.8584 19.6555L13.8191 21.1274C13.8154 21.1357 13.8094 21.1427 13.8018 21.1476C13.7942 21.1525 13.7853 21.1551 13.7763 21.1551C13.7672 21.1551 13.7584 21.1525 13.7508 21.1476C13.7431 21.1427 13.7371 21.1357 13.7334 21.1274L12.6941 19.6555C12.6434 19.5837 12.5724 19.5286 12.4903 19.4973C12.4082 19.466 12.3185 19.4599 12.2329 19.4798C12.1473 19.4996 12.0695 19.5445 12.0095 19.6088C11.9495 19.6731 11.9101 19.7537 11.8961 19.8405L11.5118 22.2433C11.5107 22.2534 11.5064 22.2629 11.4997 22.2705C11.4929 22.2781 11.4839 22.2833 11.4739 22.2855C11.4638 22.2888 11.4529 22.2888 11.4428 22.2854C11.4327 22.282 11.424 22.2755 11.4179 22.2667C10.7726 21.4682 9.78605 19.9042 9.39187 19.2698C9.35328 19.2077 9.29998 19.156 9.23669 19.1194C9.17339 19.0828 9.10205 19.0623 9.02896 19.0598C8.95816 19.0568 8.88772 19.0714 8.82399 19.1024C8.76025 19.1333 8.70522 19.1797 8.66387 19.2372C8.29462 19.7482 8.07565 20.8894 7.95687 21.7572C7.95608 21.7665 7.9526 21.7754 7.94685 21.7827C7.9411 21.7901 7.93333 21.7956 7.92449 21.7986C7.91456 21.8022 7.90383 21.803 7.89348 21.8008C7.88313 21.7987 7.87357 21.7938 7.86587 21.7865C7.08493 21.0946 6.70758 19.4459 6.58137 18.77C6.56766 18.6924 6.53306 18.6201 6.48129 18.5608C6.42952 18.5015 6.36255 18.4574 6.28758 18.4333C6.21089 18.4085 6.12895 18.4048 6.05031 18.4225C5.97168 18.4401 5.89921 18.4785 5.84046 18.5337C5.29522 18.9929 4.67909 19.3606 4.01608 19.6224C4.00873 19.6255 4.00079 19.6268 3.99284 19.6264C3.9849 19.626 3.97715 19.6238 3.97015 19.62C3.96449 19.6171 3.95958 19.6129 3.95579 19.6078C3.952 19.6027 3.94943 19.5968 3.94827 19.5905C3.80958 18.8761 3.93624 17.5815 3.99727 17.0582C4.00675 16.9803 3.99528 16.9012 3.96403 16.8291C3.93279 16.7571 3.8829 16.6946 3.8195 16.6483C3.75611 16.6019 3.6815 16.5732 3.60335 16.5653C3.52521 16.5573 3.44636 16.5704 3.37493 16.603C2.76516 16.9237 2.18662 17.3006 1.6468 17.7287C1.63972 17.7347 1.63098 17.7385 1.62173 17.7395C1.61248 17.7404 1.60315 17.7386 1.59496 17.7342C1.58518 17.7294 1.57699 17.7219 1.5714 17.7126C1.56581 17.7033 1.56305 17.6925 1.56346 17.6817C1.56783 15.2304 2.87837 14.2143 3.43005 13.8949C4.03446 15.4741 9.04471 16.323 13.7769 16.323C18.5091 16.323 23.5131 15.4758 24.1223 13.8986C24.6707 14.2228 25.9854 15.2533 25.99 17.683C25.9902 17.6938 25.9872 17.7045 25.9815 17.7137C25.9758 17.7229 25.9676 17.7302 25.9578 17.7348Z" fill="black"/>
</svg>
