<svg width="52" height="50" viewBox="0 0 52 50" fill="none" xmlns="http://www.w3.org/2000/svg">
<g clip-path="url(#clip0_650_2513)">
<path d="M37.2176 26.6831C36.1552 26.6831 35.2595 25.8194 35.1772 24.7159L35.1376 24.1802H39.2945L39.2549 24.7159C39.1727 25.8193 38.2779 26.6831 37.2176 26.6831ZM35.0264 17.7134H39.26V24.1802H35.0264V17.7134ZM30.5246 17.7134H35.0264V24.1802H30.5246V17.7134ZM32.7483 26.6831C31.6875 26.6831 30.7922 25.8194 30.7095 24.7159L30.6693 24.1802H34.8293L34.7887 24.7168C34.7049 25.8193 33.8081 26.6831 32.7483 26.6831Z" fill="#83FC51"/>
<path d="M26 17.7134H30.5246V24.1802H26V17.7134ZM28.2811 26.6831C27.2197 26.6831 26.324 25.8189 26.2423 24.7159L26.2026 24.1802H30.359L30.3189 24.7159C30.2361 25.8193 29.3414 26.6831 28.2811 26.6831ZM21.5201 17.7134H26V24.1802H21.5201V17.7134ZM23.8144 26.6831C22.7525 26.6831 21.8563 25.8194 21.774 24.7159L21.7343 24.1802H25.8923L25.8527 24.7159C25.7694 25.8193 24.8747 26.6831 23.8144 26.6831ZM17.0178 17.7134H21.5201V24.1802H17.0178V17.7134ZM19.3462 26.6831C18.2843 26.6831 17.3885 25.8189 17.3072 24.7159L17.2676 24.1802H21.4256L21.3855 24.7163C21.3022 25.8193 20.4064 26.6831 19.3462 26.6831Z" fill="#83FC51"/>
<path d="M18.719 10.9976H33.2805V15.688H18.719V10.9976Z" fill="white"/>
<path d="M12.74 17.7134H17.0178V24.1802H12.74V17.7134ZM14.8779 26.6831C13.7917 26.6831 12.8131 25.7901 12.741 24.7324L12.74 24.1802H16.9579L16.9178 24.7163C16.835 25.8193 15.9387 26.6831 14.8779 26.6831Z" fill="#83FC51"/>
<path d="M28.6 37.4512V28.9072H23.4V37.4512H13.52V26.3257L14.2137 26.5625C14.4523 26.6435 14.6697 26.683 14.8779 26.683C15.6061 26.683 16.286 26.2705 16.6527 25.6069L17.1123 24.7754L17.5713 25.6074C17.938 26.2705 18.6174 26.683 19.3462 26.683C20.0738 26.683 20.7533 26.2705 21.1199 25.6073L21.5795 24.7763L22.039 25.6073C22.4057 26.2705 23.0862 26.683 23.8144 26.683C24.5416 26.683 25.2215 26.2705 25.5877 25.6073L26.0477 24.7749L26.5068 25.6074C26.8724 26.2705 27.5529 26.683 28.2811 26.683C29.0088 26.683 29.6888 26.2705 30.0549 25.6064L30.514 24.7734L30.9736 25.6059C31.3401 26.2705 32.0202 26.683 32.7483 26.683C33.476 26.683 34.1564 26.2705 34.5231 25.6069L34.9827 24.7754L35.4418 25.6074C35.8079 26.2705 36.4884 26.683 37.2175 26.683C37.3953 26.683 37.5801 26.6514 37.798 26.582L38.48 26.3671V37.4512H28.6Z" fill="white"/>
<path d="M23.4 28.9072H28.6V37.4512H23.4V28.9072Z" fill="#086972"/>
<path d="M12.48 37.4512H39.52V39.0025H12.48V37.4512Z" fill="#66AF48"/>
<path d="M30.94 28.9956H36.66V35.0045H30.94V28.9956ZM15.34 28.9678H21.06V35.0322H15.34V28.9678Z" fill="#17B978"/>
<path d="M14.04 37.25H13V26.1704H14.04V37.25ZM39 37.25H37.96V26.1704H39V37.25Z" fill="#071A52"/>
<path d="M23.4 37.8594V28.9072H28.6V37.8594" fill="#A7FF83"/>
<path d="M29.12 37.8594H28.08V29.4072H23.92V37.8594H22.88V28.4072H29.12V37.8594Z" fill="#071A52"/>
<path d="M27.5575 33.6475H26.5175V32.6963H27.5575V33.6475ZM39.78 24.1802H38.74V18.2134H13.26V24.1802H12.22V17.2134H39.78V24.1802Z" fill="#071A52"/>
<path d="M37.2176 27.1831C36.267 27.1831 35.4255 26.6435 34.9825 25.8418C34.5389 26.6435 33.6979 27.1831 32.7483 27.1831C31.7979 27.1831 30.9572 26.6435 30.5142 25.8403C30.0714 26.6435 29.2309 27.1831 28.2811 27.1831C27.3305 27.1831 26.4898 26.6435 26.047 25.8418C25.6039 26.6435 24.7634 27.1831 23.8144 27.1831C22.8638 27.1831 22.0228 26.644 21.5795 25.8418C21.1362 26.644 20.2955 27.1831 19.3462 27.1831C18.3955 27.1831 17.5548 26.644 17.112 25.8418C16.6689 26.644 15.828 27.1831 14.8779 27.1831C13.5033 27.1831 12.3114 26.083 12.221 24.7314L12.22 23.6802H39.78L39.7759 24.7012C39.683 26.1064 38.5597 27.1831 37.2176 27.1831ZM35.6959 24.6801C35.7589 25.5239 36.4249 26.1831 37.2176 26.1831C38.0088 26.1831 38.6735 25.5239 38.7359 24.6801H35.6959ZM31.2282 24.6801C31.2914 25.5244 31.9569 26.1831 32.7483 26.1831C33.5397 26.1831 34.2058 25.5244 34.27 24.6801H31.2282ZM26.761 24.6801C26.8231 25.5239 27.4886 26.1831 28.2811 26.1831C29.072 26.1831 29.737 25.5239 29.8002 24.6801H26.761ZM22.2927 24.6801C22.3557 25.5239 23.0217 26.1831 23.8144 26.1831C24.6051 26.1831 25.27 25.5239 25.334 24.6801H22.2927ZM17.826 24.6801C17.8882 25.5239 18.5537 26.1831 19.3462 26.1831C20.1376 26.1831 20.8028 25.5239 20.8668 24.6801H17.826ZM13.26 24.6801V24.6992C13.3139 25.4887 14.0552 26.183 14.8779 26.183C15.6701 26.183 16.3358 25.5244 16.399 24.6801H13.26Z" fill="#071A52"/>
<path d="M17.5379 24.6777H16.4979V17.7134H17.5379V24.6777ZM22.0401 24.6777H21.0001V17.7134H22.0401V24.6777ZM31.0446 24.6777H30.0046V17.7134H31.0446V24.6777ZM35.5464 24.6777H34.5064V17.7134H35.5464V24.6777ZM26.52 24.6777H25.48V17.7134H26.52V24.6777ZM40.04 39.5025H11.96V36.9512H40.04V39.5024V39.5025ZM13 38.5024H39V37.9512H13V38.5024ZM37.18 35.5044H30.42V28.4956H37.18V35.5044ZM31.46 34.5044H36.14V29.4956H31.46V34.5044ZM21.58 35.5322H14.82V28.4678H21.58V35.5322ZM15.86 34.5322H20.54V29.4678H15.86V34.5322Z" fill="#071A52"/>
<path d="M22.0401 17.958H21.0001V16H22.0401V17.958ZM31.0446 18.5942H30.0046V16H31.0446V18.5943V18.5942Z" fill="#071A52"/>
<path d="M33.2805 16.188H18.719C18.4318 16.188 18.199 15.9639 18.199 15.688V10.9976C18.199 10.7217 18.4318 10.4976 18.719 10.4976H33.2805C33.5676 10.4976 33.8005 10.7217 33.8005 10.9976V15.688C33.8005 15.9639 33.5676 16.188 33.2805 16.188ZM19.239 15.188H32.7605V11.4976H19.239V15.188Z" fill="#071A52"/>
<path d="M31.525 13.75H20.475V12.75H31.525V13.75Z" fill="#071A52"/>
</g>
<defs>
<clipPath id="clip0_650_2513">
<rect width="52" height="50" fill="white"/>
</clipPath>
</defs>
</svg>
