<svg width="250" height="250" viewBox="0 0 250 250" fill="none" xmlns="http://www.w3.org/2000/svg">
<path fill-rule="evenodd" clip-rule="evenodd" d="M119.851 53.0769C221.574 50.4163 231.285 125.206 209.929 125.813C168.659 126.987 165.943 149.66 138.746 174.768C94.8191 215.325 43.1274 217.64 46.2114 111.912C47.5077 67.5377 78.5756 54.1562 119.851 53.0769Z" fill="#70E2A6"/>
<path fill-rule="evenodd" clip-rule="evenodd" d="M190.445 135.707C219.839 129.144 225.494 142.356 219.325 143.743C207.404 146.423 209.028 150.566 200.721 157.193C188.597 166.864 174.609 163.077 171.328 150.954C169.143 142.876 178.519 138.37 190.445 135.707Z" fill="#70E2A6"/>
<path d="M180.298 165.363C178.356 164.801 176.616 164.254 174.81 163.5C172.46 162.577 170.392 161.035 168.097 160.002C165.911 158.951 163.524 158.53 161.248 157.742C160 157.365 158.653 156.678 157.261 156.27C157.757 156.13 158.275 155.978 158.787 155.843C159.105 155.77 159.429 155.68 159.732 155.601C160.185 155.828 160.649 156.031 161.123 156.211C162.167 156.627 163.239 157.016 164.334 157.285C166.856 157.864 169.422 158.311 172.036 158.426C174.791 158.479 177.405 157.694 180.03 157.574C180.902 157.545 181.795 157.652 182.613 157.678C182.753 157.671 182.933 157.55 182.917 157.397C182.799 157.191 182.51 157.128 182.318 156.988C180.456 155.847 178.413 155.03 176.22 154.896C173.47 154.679 170.753 155.263 168.16 154.642C167.474 154.514 166.797 154.341 166.134 154.124C167.101 153.669 168.074 153.198 169.012 152.677C170.593 151.792 172.052 150.662 173.55 149.619C175.727 148.058 178.033 146.67 180.017 144.821C180.309 144.573 181.02 143.864 180.235 143.942C179.221 144.234 178.225 144.624 177.197 144.856C171.112 145.727 165.497 148.615 161.249 153.058C160.65 153.696 160.075 154.36 159.597 155.095C159.563 155.136 159.535 155.182 159.515 155.232C158.528 155.496 157.566 155.788 156.582 156.091C156.546 156.096 156.525 156.107 156.489 156.113C156.123 156.225 155.756 156.337 155.406 156.455C155.667 156.049 155.945 155.594 156.164 155.358C156.847 154.529 157.502 154.131 158.295 153.432C160.223 151.693 161.915 149.541 162.845 147.053C163.705 144.815 164.65 142.883 166.01 140.893C166.659 138.968 159.198 146.342 158.841 146.677C157.151 148.224 156.056 150.343 155.163 152.477C154.74 153.598 154.401 154.877 153.891 155.802C153.669 156.295 153.32 156.707 153.057 157.167C153.056 157.192 153.059 157.218 153.066 157.243C152.286 157.506 151.51 157.807 150.739 158.091C150.718 158.102 150.703 158.097 150.682 158.108C150.326 158.242 149.969 158.376 149.622 158.531C149.639 158.482 149.641 158.428 149.658 158.378C149.728 158.102 149.832 157.836 149.967 157.585C151.542 155.026 153.548 152.763 155.25 150.284C156.149 148.979 157.045 147.636 157.629 146.148C158.055 145.065 158.263 143.667 158.715 142.758C159.275 141.74 159.946 140.796 160.626 139.875C160.72 139.705 161.388 139.018 161.561 138.618C161.648 137.969 160.747 138.631 160.49 138.725C158.159 140.086 156.097 141.963 154.44 144.163C153.337 145.508 152.269 146.902 151.526 148.5C150.164 151.243 149.626 154.639 148.372 157.217C147.998 157.966 147.54 158.67 147.008 159.317C146.895 159.443 146.928 159.546 147.021 159.578C146.029 160.006 145.061 160.462 144.089 160.933C144.336 159.421 145.254 157.864 146.106 156.396C147.111 154.687 147.989 152.896 148.852 151.101C149.423 149.848 149.955 148.562 150.234 147.207C150.598 145.111 150.645 143.033 151.128 141.088C151.289 140.459 151.496 139.843 151.749 139.245C151.845 138.967 152.045 138.687 151.977 138.388C151.909 138.235 151.7 138.292 151.583 138.38C151.295 138.666 151.107 139.06 150.843 139.373C150.013 140.427 148.906 141.935 148.06 143.185C146.322 145.817 144.739 148.649 144.002 151.774C143.455 154.101 143.46 156.674 143.001 158.848C142.85 159.733 142.709 160.639 142.29 161.449C142.279 161.482 142.241 161.543 142.247 161.526C142.213 161.625 142.106 161.735 142.139 161.838C142.142 161.846 142.148 161.853 142.155 161.859C142.162 161.864 142.17 161.868 142.179 161.87C140.879 162.541 139.608 163.276 138.347 164.034C138.363 163.838 138.333 163.625 138.386 163.423C138.419 163.03 138.598 162.413 138.764 161.882C139.207 160.603 139.879 159.458 140.381 158.107C141.466 155.617 141.539 152.869 141.785 150.217C142.024 147.287 141.785 144.394 141.758 141.483C141.77 140.992 141.807 140.502 141.87 140.015L141.887 139.966C141.998 139.473 142.084 138.976 142.145 138.475C142.182 138.268 141.936 138.182 141.792 138.298C141.582 138.409 141.61 138.676 141.557 138.878C141.479 139.255 141.436 139.626 141.394 139.997C141.075 141.466 140.582 143.041 140.103 144.473C139.199 146.787 137.957 148.983 137.37 151.426C136.852 153.469 137.005 155.616 137.317 157.652C137.518 158.714 137.764 159.497 137.689 160.61C137.688 161.657 137.614 162.568 137.369 163.475C137.254 163.858 137.113 164.213 136.968 164.585C136.96 164.608 136.958 164.632 136.962 164.656C136.965 164.679 136.975 164.702 136.989 164.721C137.006 164.736 137.025 164.748 137.047 164.755C137.068 164.762 137.09 164.765 137.112 164.764C136.223 165.299 135.339 165.844 134.462 166.4C134.655 166.092 134.819 165.768 134.952 165.431C135.537 164.09 135.716 162.627 135.904 161.186C136.151 159.38 136.201 157.542 135.85 155.768C135.589 154.281 135.078 152.873 134.738 151.415C134.366 149.704 134.179 147.958 134.18 146.207C134.184 146.112 134.194 146.018 134.21 145.924C134.264 145.667 134.313 145.427 134.346 145.181C133.959 144.808 133.79 145.246 133.72 145.993C133.372 147.746 132.72 149.78 132.545 151.63C132.349 154.336 132.661 157.07 133.24 159.677C133.552 161.163 134.273 162.514 134.298 163.937C134.314 164.787 134.087 165.444 133.817 166.324C133.792 166.444 133.674 166.587 133.769 166.711L133.799 166.722C133.785 166.754 133.779 166.79 133.781 166.826C129.78 169.427 125.949 172.381 122.56 175.855C122.141 176.317 121.702 176.789 121.31 177.278C121.226 177.47 121.457 177.549 121.604 177.472C122.105 177.02 122.501 176.423 122.992 175.95C126.82 172.058 131.161 168.821 135.823 165.952C137.309 167.183 138.425 168.837 139.858 170.122C142.64 172.536 146.366 173.219 149.627 174.697C149.955 174.792 150.479 175.12 150.715 174.688C150.724 174.659 150.725 174.628 150.717 174.599C150.708 174.57 150.691 174.544 150.668 174.525C150.46 174.379 150.235 174.283 150.016 174.17C148.719 173.538 147.758 172.728 146.713 171.668C146.346 171.284 145.974 170.916 145.596 170.565C146.129 170.915 146.689 171.237 147.25 171.56C148.979 172.636 151.129 173.343 152.895 173.863C154.657 174.536 156.283 175.521 157.694 176.772C158.019 176.977 158.319 177.356 158.701 177.396C159.307 177.238 158.786 176.801 158.56 176.558C156.672 174.747 155.041 172.64 152.97 171.059C151.767 170.203 150.63 169.607 149.554 168.684C148.389 167.821 147.396 166.706 146.166 165.931C144.583 164.98 142.718 164.793 141.175 164.076C140.73 163.867 140.401 163.624 140.072 163.382C141.231 162.718 142.38 162.086 143.569 161.488L144.402 162.217C145.917 163.714 147.673 164.91 149.491 165.98C150.906 166.819 152.477 167.307 153.816 168.266C156.745 170.254 159.143 173.581 162.258 175.578C163.046 176.09 163.796 176.661 164.595 177.14C164.922 177.29 165.382 177.651 165.699 177.283C165.827 177.015 165.484 176.86 165.349 176.703C164.896 176.27 164.427 175.833 164.027 175.345C161.974 172.816 160.119 170.062 157.585 168.028C154.901 165.777 152.078 163.679 148.927 162.184C147.762 161.616 146.586 160.934 145.256 160.896C145.103 160.897 144.951 160.887 144.801 160.867C145.921 160.318 147.076 159.817 148.256 159.344C148.618 159.194 148.974 159.06 149.336 158.91C150.006 159.564 150.423 160.498 151.215 161.048C153.845 163.005 156.759 164.491 159.815 165.566C164.617 167.32 169.337 169.56 174.501 169.969C174.925 169.987 175.366 170.158 175.789 170.029C176.386 169.648 175.329 169.466 175.095 169.348C174.223 169.028 173.606 168.87 172.706 168.485C171.717 167.959 170.771 167.356 169.805 166.764C167.276 165.21 164.755 163.584 162.001 162.484C159.122 161.396 156.322 160.776 153.591 159.408C152.773 159.033 151.982 158.631 151.208 158.18C152.597 157.65 153.975 157.153 155.388 156.705C155.435 156.868 155.706 156.981 155.816 157.111C156.801 157.948 158.015 158.423 159.125 159.046C160.866 160.089 162.508 161.318 164.341 162.192C167.202 163.384 169.975 164.38 173.059 165.025C174.995 165.456 176.966 165.881 178.972 165.859C179.305 165.993 180.826 165.876 180.298 165.363ZM139.086 164.088C139.096 164.11 139.111 164.115 139.121 164.137C139.131 164.158 139.4 164.527 139.305 164.402C139.786 165.303 140.446 166.083 141.118 166.83C141.237 166.981 141.363 167.117 141.488 167.252C140.321 166.506 139.038 165.957 137.693 165.626C137.395 165.541 137.158 165.478 136.928 165.398C137.636 164.945 138.353 164.514 139.086 164.088Z" fill="#0E4F55"/>
<path d="M160.638 122.424C158.741 123.809 157.008 125.031 155.07 126.219C152.59 127.79 149.86 128.855 147.34 130.331C144.89 131.709 142.761 133.528 140.439 135.095C139.208 135.978 137.669 136.811 136.305 137.801C136.576 137.324 136.855 136.824 137.143 136.336C137.329 136.037 137.508 135.726 137.678 135.438C138.197 135.157 138.699 134.852 139.193 134.536C140.3 133.841 141.406 133.111 142.44 132.309C144.79 130.445 147.076 128.486 149.147 126.344C151.28 124.057 152.676 121.524 154.58 119.269C155.22 118.526 155.978 117.823 156.619 117.149C156.721 117.028 156.766 116.825 156.639 116.772C156.394 116.782 156.128 116.996 155.876 117.097C153.605 118.164 151.439 119.523 149.672 121.304C147.421 123.516 145.796 126.048 143.359 127.953C142.811 128.427 142.082 128.971 141.432 129.428C141.824 128.419 142.208 127.399 142.53 126.387C143.065 124.676 143.323 122.963 143.677 121.254C144.157 118.751 144.866 116.215 144.982 113.75C145.018 113.397 145.025 112.494 144.487 113.185C143.936 114.162 143.473 115.167 142.867 116.13C138.996 121.458 136.792 127.495 136.92 133.063C136.944 133.842 137.007 134.612 137.196 135.331C137.201 135.376 137.214 135.42 137.237 135.459C136.686 136.402 136.174 137.336 135.655 138.292C135.631 138.325 135.623 138.347 135.6 138.38C135.406 138.736 135.213 139.091 135.034 139.436C134.928 139.042 134.797 138.611 134.786 138.324C134.682 137.392 134.88 136.67 134.957 135.702C135.114 133.331 134.782 130.978 133.617 129.119C132.589 127.427 131.854 125.797 131.391 123.792C130.437 122.413 130.313 131.869 130.294 132.314C130.173 134.402 130.934 136.239 131.86 137.914C132.382 138.755 133.085 139.594 133.394 140.423C133.595 140.823 133.64 141.295 133.786 141.715C133.818 141.728 133.826 141.74 133.85 141.741C133.455 142.509 133.092 143.29 132.72 144.06C132.713 144.082 132.697 144.093 132.689 144.115C132.519 144.472 132.349 144.829 132.203 145.187C132.179 145.152 132.139 145.126 132.115 145.091C131.96 144.912 131.838 144.708 131.753 144.488C131.025 142.057 130.848 139.393 130.277 136.89C129.979 135.57 129.65 134.236 128.975 133.101C128.484 132.274 127.592 131.493 127.252 130.719C126.911 129.808 126.711 128.836 126.536 127.866C126.479 127.714 126.47 126.855 126.301 126.537C125.879 126.183 125.692 127.225 125.568 127.482C124.82 130.027 124.665 132.57 125.06 134.914C125.234 136.423 125.47 137.923 126.108 139.239C127.135 141.572 129.279 143.496 130.265 145.666C130.547 146.32 130.73 147.013 130.807 147.721C130.816 147.87 130.92 147.887 131.013 147.824C130.582 148.841 130.189 149.85 129.805 150.87C128.856 150.007 128.383 148.562 127.927 147.21C127.405 145.626 126.726 144.113 126.031 142.611C125.523 141.588 124.96 140.585 124.154 139.763C122.854 138.548 121.328 137.608 120.233 136.358C119.883 135.952 119.576 135.51 119.319 135.039C119.183 134.837 119.125 134.548 118.848 134.475C118.682 134.466 118.565 134.666 118.543 134.802C118.539 135.168 118.692 135.497 118.728 135.853C118.889 137.006 119.182 138.59 119.479 139.842C120.138 142.44 121.065 144.996 122.854 146.97C124.188 148.438 126.126 149.55 127.412 150.878C127.962 151.389 128.536 151.9 128.827 152.602C128.843 152.626 128.86 152.684 128.852 152.672C128.9 152.744 128.901 152.881 129.004 152.898C129.024 152.898 129.044 152.891 129.059 152.878C128.576 154.259 128.164 155.645 127.775 157.031C127.64 156.932 127.457 156.865 127.345 156.733C127.075 156.535 126.747 156.117 126.474 155.748C125.849 154.821 125.498 153.761 124.864 152.754C123.817 150.763 121.806 149.51 119.999 148.154C117.978 146.683 115.621 145.628 113.413 144.388C113.057 144.168 112.717 143.924 112.394 143.657L112.37 143.622C112.082 143.313 111.773 143.025 111.445 142.759C111.318 142.638 111.067 142.807 111.045 142.978C110.968 143.203 111.19 143.295 111.302 143.427C111.528 143.649 111.767 143.857 112.019 144.049C112.882 144.954 113.69 146.05 114.404 147.073C115.457 148.835 116.164 150.83 117.554 152.381C118.697 153.702 120.427 154.505 122.195 155.127C123.146 155.419 123.921 155.552 124.701 156.098C125.487 156.552 126.116 157.01 126.612 157.609C126.804 157.871 126.981 158.144 127.141 158.427C127.155 158.444 127.174 158.457 127.195 158.464C127.216 158.471 127.239 158.472 127.26 158.468C127.309 158.452 127.353 158.422 127.386 158.383C127.113 159.357 126.852 160.335 126.602 161.315C126.519 161.024 126.4 160.745 126.246 160.484C125.682 159.412 124.718 158.627 123.778 157.844C122.607 156.854 121.264 156.015 119.664 155.539C118.348 155.113 116.901 154.932 115.547 154.584C114.03 154.175 112.572 153.573 111.208 152.793C111.141 152.749 111.077 152.7 111.017 152.645C110.873 152.492 110.722 152.346 110.563 152.209C109.988 152.372 110.189 152.703 110.698 153.086C111.751 154.138 112.785 155.567 114.042 156.516C115.928 157.854 118.22 158.779 120.62 159.424C121.974 159.806 123.538 159.788 124.626 160.384C125.277 160.74 125.598 161.215 126.054 161.824C126.126 161.896 126.144 162.057 126.309 162.032L126.341 162.011C126.355 162.037 126.377 162.058 126.404 162.071C125.321 166.555 124.633 171.049 124.67 175.399C124.699 175.95 124.721 176.523 124.789 177.065C124.87 177.218 125.105 177.059 125.159 176.902C125.2 176.286 125.052 175.694 125.069 175.078C125.05 170.179 125.915 165.134 127.299 159.98C129.353 159.268 131.444 159.049 133.499 158.405C137.426 157.119 140.77 154.29 144.358 152.196C144.679 151.962 145.324 151.665 145.177 151.279C145.158 151.258 145.132 151.243 145.103 151.238C145.075 151.232 145.045 151.236 145.019 151.248C144.752 151.36 144.508 151.507 144.257 151.642C142.796 152.455 141.458 152.909 139.867 153.327C139.3 153.468 138.741 153.62 138.19 153.785C138.858 153.489 139.526 153.159 140.194 152.829C142.316 151.846 144.481 150.35 146.213 149.093C148.028 147.921 149.989 146.993 152.045 146.331C152.446 146.147 152.958 146.06 153.279 145.757C153.621 145.18 152.897 145.427 152.542 145.511C149.747 146.309 146.924 146.763 144.162 147.815C142.605 148.451 141.293 149.147 139.782 149.649C138.248 150.252 136.656 150.601 135.139 151.297C133.222 152.211 131.665 153.695 129.954 154.678C129.517 154.92 129.062 155.128 128.594 155.302C128.976 154.041 129.374 152.804 129.827 151.547L131.007 151.165C133.283 150.544 135.517 149.59 137.701 148.529C139.406 147.706 140.967 146.601 142.705 145.894C146.424 144.299 150.747 143.732 154.614 141.985C155.597 141.546 156.596 141.165 157.563 140.702C157.924 140.493 158.546 140.264 158.51 139.838C158.405 139.615 158.028 139.835 157.807 139.88C157.138 140.073 156.453 140.276 155.783 140.4C152.322 141.025 148.843 141.386 145.388 142.629C141.658 143.903 137.937 145.361 134.42 147.356C133.108 148.086 131.701 148.777 130.662 149.876C130.546 150.005 130.424 150.128 130.295 150.245C130.733 149.067 131.234 147.882 131.775 146.687C131.937 146.318 132.107 145.961 132.269 145.592C133.269 145.314 134.289 145.369 135.303 144.944C138.772 143.587 142.102 141.788 145.232 139.692C150.198 136.425 155.467 133.437 159.697 129.284C160.033 128.936 160.496 128.641 160.72 128.23C160.887 127.564 159.948 128.371 159.681 128.517C158.779 129.109 158.191 129.557 157.218 130.145C156.071 130.747 154.899 131.279 153.72 131.833C150.631 133.279 147.495 134.688 144.575 136.521C141.571 138.464 138.978 140.543 135.875 142.24C134.973 142.763 134.069 143.252 133.142 143.706C133.799 142.311 134.472 140.94 135.208 139.561C135.367 139.592 135.657 139.413 135.838 139.378C137.216 138.914 138.494 138.103 139.807 137.441C141.913 136.434 144.084 135.59 146.134 134.431C149.203 132.549 152.058 130.656 154.885 128.349C156.679 126.912 158.496 125.443 160.003 123.751C160.357 123.53 161.426 122.204 160.638 122.424ZM128.377 156.435C128.401 156.436 128.417 156.425 128.44 156.427C128.464 156.428 128.945 156.362 128.78 156.388C129.822 156.375 130.91 156.16 131.981 155.92C132.186 155.886 132.383 155.839 132.58 155.793C131.12 156.456 129.743 157.288 128.475 158.271C128.185 158.484 127.958 158.655 127.723 158.813C127.92 158.023 128.141 157.234 128.377 156.435Z" fill="#0E4F55"/>
<path d="M44.9013 166.428C44.5996 165.072 45.1353 163.515 46.1271 162.581L46.4218 162.333C46.1812 162.166 45.9044 161.997 45.7061 161.761C45.3396 161.365 45.1861 160.823 45.1772 160.294C45.19 159.904 45.3383 159.53 45.5966 159.237C45.819 158.983 46.1271 158.791 46.3991 158.596C46.8345 158.196 47.4021 157.954 47.9549 158.093C48.2305 157.224 48.9678 156.705 50.1913 156.884C51.145 157.021 52.085 157.74 52.0696 158.759C52.1115 159.327 51.8383 159.959 52.0175 160.412C52.2238 160.976 53.0141 161.318 53.3102 160.633C53.5576 160.09 53.3352 159.506 52.922 159.015C52.0929 158.068 50.9289 157.202 51.3435 155.781C52.0274 153.562 55.7296 153.099 56.7416 155.3C56.7872 155.39 56.8218 155.485 56.8447 155.583C56.8644 155.566 56.8644 155.566 56.9005 155.569C56.8953 155.381 56.9177 155.192 56.9671 155.01C57.0967 154.566 57.312 154.184 57.3464 153.786C57.3973 153.408 57.2746 153.142 57.0433 152.867C56.6076 152.429 55.8266 151.978 55.6919 151.22C55.6281 150.904 55.6987 150.51 55.9676 150.351C56.2167 150.209 56.6508 150.246 56.7113 150.598C56.7319 150.782 56.5912 150.933 56.4403 150.993C56.3648 151.023 56.2233 150.974 56.2326 150.866C56.2555 150.813 56.3309 150.783 56.3505 150.767L56.3898 150.734C56.5006 150.506 56.3291 150.382 56.1161 150.528C55.7955 150.864 55.9724 151.554 56.3919 151.973C56.6231 152.248 57.0581 152.486 57.3192 152.837C57.5143 153.108 57.667 153.45 57.6192 153.792C57.5786 154.262 57.2588 154.799 57.2078 155.177C57.2025 155.28 57.1875 155.383 57.1631 155.483C57.3494 155.411 57.5433 155.361 57.741 155.333C58.638 155.283 59.5801 155.765 60.0207 156.569C60.2637 156.976 60.4347 157.422 60.526 157.888C60.986 157.836 61.508 157.699 61.9915 157.796C62.0277 157.799 62.0804 157.822 62.1165 157.825C62.0536 157.71 62.0071 157.615 61.9442 157.5C60.6496 154.564 59.9588 151.389 58.6085 148.466C58.4723 148.145 58.3165 147.84 58.1639 147.498C58.1246 147.531 58.0656 147.581 58.0625 147.617C57.7418 147.954 57.4313 148.382 56.9786 148.562C56.7467 148.643 56.4975 148.664 56.2555 148.62C56.0134 148.577 55.7867 148.472 55.5974 148.315C55.3599 148.112 55.2175 147.863 55.0192 147.627C54.7549 147.313 54.3758 147.061 54.0101 146.866C53.4668 146.618 52.8283 146.417 52.5101 145.88C52.2686 145.513 52.1419 145.083 52.0678 144.675C50.9452 145.015 49.7163 145.109 48.7537 144.443C48.6783 144.473 48.5831 144.519 48.58 144.556C48.1286 144.846 47.6496 145.091 47.15 145.288C45.3718 146.045 43.3862 145.199 42.9145 143.281C42.8908 143.134 42.8506 142.966 42.827 142.818C41.9724 142.799 41.5947 142.11 41.3546 141.306C41.2475 140.86 41.2685 140.406 41.1811 139.943C41.1472 139.703 41.0802 139.424 41.0164 139.109C40.4466 139.588 39.7968 140.57 38.9694 140.025C37.6898 139.021 37.5756 136.971 38.5235 135.705C38.3304 135.645 38.1337 135.597 37.9345 135.562C37.7568 135.511 37.1129 135.582 36.774 135.498C36.0011 135.377 36.0927 134.528 36.4093 134.028C36.949 133.073 37.773 132.31 38.7665 131.845C38.8223 131.831 38.8616 131.798 38.9174 131.785C38.871 131.69 38.8276 131.559 38.7977 131.483C38.7307 131.205 38.756 130.913 38.8698 130.651C39.5343 129.288 41.4948 129.585 42.8698 129.904C42.8067 129.533 42.8263 129.152 42.927 128.79C43.0276 128.427 43.207 128.091 43.4523 127.805C44.254 126.963 45.5753 126.221 46.6889 126.828C47.1514 126.54 47.7326 126.554 48.2464 126.726C48.6475 126.853 49.0248 127.046 49.3631 127.296C49.4323 127.339 49.4818 127.397 49.5511 127.44C49.2716 126.669 49.0284 125.901 48.7293 125.146C48.654 125.136 48.5855 125.098 48.5382 125.038C48.2565 124.504 47.9208 124.384 47.4332 124.123C46.5571 123.719 45.8597 123.568 44.8658 123.263C43.8883 122.978 42.9337 122.64 41.9822 122.266C41.5995 122.689 41.1735 122.98 40.797 123.33C40.4763 123.667 40.3633 124.13 40.1782 124.588C39.8851 125.237 39.464 125.893 38.8013 126.182C38.3279 126.394 37.8024 126.463 37.2902 126.379C37.2541 126.376 37.2375 126.356 37.2179 126.373C37.2137 126.411 37.1978 126.448 37.1723 126.478C36.8856 127.054 36.4903 127.622 35.9031 127.88C35.3882 128.145 34.5501 128.146 34.1232 128.237C33.417 128.394 32.959 128.846 32.2271 129.093C31.5872 129.329 30.8246 129.299 30.2379 128.921C29.7008 128.601 29.4151 127.902 29.6129 127.3C29.6918 127.073 29.8087 126.861 29.9586 126.674C29.7505 126.518 29.5582 126.343 29.3844 126.15C28.8661 125.613 28.751 124.838 29.2413 124.225C29.4441 123.987 29.8237 123.601 29.9148 123.39C30.2936 122.804 30.0471 122.072 30.1821 121.355C30.4176 120.318 31.2161 119.513 32.1641 119.085C31.7668 118.413 32.0891 117.639 32.4149 117.029C32.5971 116.608 32.5789 116.187 32.3798 115.751C32.1445 115.312 31.9557 114.967 32.2598 114.611C32.1214 114.526 32.0026 114.425 31.8477 114.32C31.3665 113.987 31.0415 113.321 31.2723 112.758C31.4121 112.406 31.7069 112.158 31.9655 111.907C32.2662 111.561 32.4827 111.149 32.5979 110.705C32.711 110.241 32.7745 109.718 33.1406 109.276C34.0665 108.263 36.0138 107.867 36.9688 109.043C37.4116 109.609 37.3861 110.536 38.0804 110.724C38.1541 110.736 38.2296 110.73 38.3005 110.706C37.7451 109.966 37.4421 109.047 36.6808 108.58C36.1106 108.221 35.3235 107.843 34.8703 107.185C34.632 106.781 34.5177 106.207 34.7558 105.772C34.9679 105.426 35.3649 105.26 35.7288 105.054L35.7878 105.005C35.5762 104.791 35.3638 104.579 35.1507 104.367L35.131 104.383C34.9535 104.507 34.7352 104.558 34.5211 104.526C34.307 104.494 34.1133 104.381 33.9799 104.211C33.8147 104.014 33.7321 103.916 33.5606 103.792C33.5207 103.76 33.4706 103.742 33.4191 103.743C33.166 103.721 32.9592 103.795 32.6504 103.786C31.7234 103.76 31.5155 102.795 31.887 102.08C32.0175 101.836 32.214 101.671 32.427 101.526C32.2783 101.349 32.11 101.189 31.9613 101.012C31.922 101.045 31.8465 101.075 31.8073 101.108C31.3419 101.432 31.1936 102.093 31.0649 102.738C30.9393 103.346 30.5905 104.009 29.9538 104.209C29.0906 104.498 28.1453 104.052 27.6033 103.367C27.243 102.899 27.0337 102.371 26.51 102.107C26.3385 101.983 25.7692 101.824 25.4923 101.654C25.1759 101.477 24.9351 101.191 24.8151 100.849C24.7533 100.677 24.7257 100.495 24.7338 100.313L24.6945 100.346C24.4419 100.633 24.2729 100.984 24.2059 101.361C24.1518 101.775 24.3344 102.192 24.5098 102.48C24.8111 102.998 25.442 103.709 24.9911 104.289C24.7459 104.596 24.348 104.561 23.9997 104.586C23.9801 104.602 23.9997 104.586 24.0359 104.589C23.6184 104.571 23.2678 104.832 23.2234 105.138C23.1818 105.408 23.527 105.419 23.7793 105.241L23.8579 105.175C23.9106 105.198 23.7494 105.166 23.7329 105.146C23.6306 105.064 23.7485 104.965 23.857 104.974C24.0214 104.97 24.2486 105.081 24.141 105.272C24.0137 105.48 23.7511 105.566 23.531 105.584C22.8344 105.633 22.7791 105.009 23.2672 104.632C23.6406 104.318 24.2688 104.427 24.5283 104.377C25.0338 104.22 24.8896 103.57 24.6316 103.183C24.195 102.544 23.6985 101.754 24.0402 100.964C24.1769 100.647 24.3363 100.279 24.661 100.106C24.6534 100.095 24.6432 100.085 24.6312 100.077C24.6192 100.07 24.6058 100.065 24.5918 100.064C24.3511 99.8973 24.2489 99.8156 24.002 99.7213C23.4586 99.4739 22.5106 99.902 21.6488 99.7545C20.7642 99.6597 19.9488 98.7692 20.1911 97.8607C20.3693 97.2749 20.8803 96.8454 21.4148 96.5637C20.7455 96.0867 19.8515 96.1005 19.1421 95.4561C18.6403 94.9389 19.5396 94.6523 19.9005 94.4831C20.1858 94.3439 20.7855 93.9403 21.2588 93.9448C21.3146 93.9314 21.3673 93.9542 21.4231 93.9408L21.4066 93.9212C21.3696 93.7176 21.3553 93.4612 21.4991 93.2733C22.0971 92.4687 24.2021 92.7784 25.145 93.4613L25.1285 93.4417C24.8622 92.945 24.7827 92.3692 24.9046 91.8189C25.0984 91.294 25.457 90.8459 25.9267 90.5417C26.3964 90.2375 26.952 90.0936 27.5103 90.1314L27.5465 90.1345C27.3633 89.9893 27.1882 89.8343 27.0218 89.6701C26.7378 89.4163 26.4272 89.194 26.0954 89.0069C24.9653 88.3807 23.62 88.1367 22.5975 87.3194C22.36 87.1167 22.0327 86.6876 22.3306 86.4036C22.5829 86.225 22.9218 86.309 23.2112 86.334C23.8033 86.4399 24.5133 86.4466 25.058 86.2571C25.7113 86.0767 26.3441 85.7124 27.0478 85.7916C27.1218 85.7297 27.1839 85.6548 27.231 85.5706C27.9435 84.7031 29.1364 84.6059 30.1978 84.5518C30.9305 84.5059 31.528 84.3393 32.1018 84.0243C33.3446 83.3484 34.5031 82.1733 35.9985 82.157C36.3317 82.1565 36.66 82.2377 36.9546 82.3934C37.2492 82.5491 37.5012 82.7746 37.6885 83.0502C38.1416 83.7089 38.001 84.6989 37.194 84.9752C36.2223 85.2555 35.7469 84.0119 34.944 83.8149C34.8551 83.7889 34.5855 83.7474 34.4541 83.7907C34.2805 83.8523 34.1186 83.943 33.9755 84.059C33.779 84.2242 33.6155 84.4287 33.4056 84.538C33.4551 84.597 33.4851 84.6724 33.4002 84.8109C33.1157 85.1506 32.6228 85.1626 32.2588 85.368C31.8029 85.5835 31.2661 86.1019 30.874 86.6328C30.5243 87.0944 30.2353 87.9078 29.9123 88.4808C29.6482 88.9659 29.2823 89.388 28.8396 89.7183C28.7568 89.782 28.6665 89.8354 28.5708 89.8772C28.5726 90.2782 28.594 90.6627 28.5988 91.0272C28.6185 91.0107 28.6546 91.0139 28.6743 90.9974C28.8418 90.9399 29.0015 90.8619 29.1498 90.7652C29.6123 90.4773 30.0145 90.0384 30.553 89.921C30.8682 89.8572 31.2103 89.905 31.4675 90.0912C31.7081 90.2579 31.9197 90.5494 31.9308 90.8419C31.9955 91.3577 31.682 91.8225 31.4078 92.2544C31.2773 92.4982 31.1831 92.7451 31.2233 92.9125C31.2758 93.0448 31.3776 93.1516 31.5072 93.2104C31.7211 93.2654 31.964 93.1953 32.3154 93.1346C32.3876 93.1184 32.4617 93.1126 32.5356 93.1172L32.5481 92.9726C32.5776 92.2101 33.1372 91.6389 33.8999 91.6685C35.4905 91.606 36.6551 94.1479 34.622 94.4821C34.3264 94.5294 33.9946 94.5736 33.7053 94.5485C33.7353 94.7434 33.7548 94.9397 33.7637 95.1366C33.8734 95.1934 33.9718 95.2698 34.0539 95.3621C34.3213 95.6404 34.3427 96.0246 34.3114 96.3865C34.2673 96.9058 34.023 97.3877 33.6301 97.7302C33.1782 98.1102 32.6489 98.119 32.3221 98.528C32.1815 98.6798 32.1368 98.9857 32.1738 99.1893C32.2408 99.4684 32.3604 99.7705 32.3715 100.063C32.3856 100.252 32.363 100.441 32.3049 100.622L32.8005 101.211L32.8595 101.162C33.2369 100.908 33.6011 100.636 33.9504 100.345C34.6441 99.6946 35.0852 99.0222 35.4691 98.1627C35.5603 97.9519 35.6514 97.7412 35.7229 97.547C34.9706 96.1336 36.3951 95.6739 36.3166 94.2642C36.3028 93.9674 36.2674 93.6721 36.2109 93.3805C35.9984 93.1017 35.8693 92.7683 35.8386 92.4191C35.8204 91.9984 35.9271 91.6066 35.7941 91.2492C35.6808 90.875 35.4558 90.5275 35.4902 90.1297C35.5041 89.5479 36.184 89.4792 36.6253 89.6449C37.4777 89.9009 38.1706 90.5257 38.6372 91.2402C38.9416 91.7221 39.151 92.2503 39.1929 92.8187C39.1898 92.8549 39.2063 92.8745 39.1866 92.891C39.3951 92.8507 39.5971 92.7824 39.7873 92.688C39.8234 92.6911 40.1543 92.4464 40.3185 92.4424C40.569 92.418 40.8204 92.4783 41.0325 92.6136C41.5603 93.0419 41.7178 93.7478 41.9932 94.3547C42.4543 95.3422 42.9092 96.4017 42.7563 97.5363C42.747 97.6448 42.721 97.7337 42.7116 97.8422C42.9975 97.8272 43.2839 97.8582 43.56 97.9338C43.9485 98.0767 44.3338 98.2559 44.5981 98.5702C44.708 98.7509 44.7694 98.9567 44.7767 99.168C44.7839 99.3792 44.7366 99.5888 44.6395 99.7765C44.3559 100.317 43.9 100.532 43.5368 100.938C43.059 101.407 43.079 102.229 42.661 102.848C42.3672 103.297 42.004 103.702 41.5418 103.99C41.5025 104.023 41.427 104.053 41.3878 104.086C41.4208 104.126 41.4341 104.181 41.4672 104.221C41.557 104.447 41.66 104.729 41.7489 104.755C42.0516 104.836 42.5563 104.479 43.0595 104.559C43.849 104.7 44.4601 105.427 44.4998 106.232C44.493 106.942 44.0191 107.575 43.7221 108.06C43.6286 108.201 43.5541 108.354 43.5006 108.514C44.5568 108.733 45.5381 109.183 46.3497 109.909C46.8546 110.39 47.4226 110.986 47.4488 111.735C47.3996 112.514 46.5631 112.915 46.1813 113.538C46.0116 113.815 45.9513 114.302 46.0481 114.656C46.1832 115.343 46.414 116.007 46.7337 116.629C47.0886 117.37 47.552 118.121 47.4965 118.972C47.4743 119.252 47.3949 119.525 47.2633 119.772C47.2405 119.825 47.1981 119.894 47.1753 119.947C47.59 120.839 47.9882 121.712 48.3636 122.637C48.9948 124.186 49.534 125.745 50.0897 127.323C50.1325 127.329 50.176 127.326 50.2179 127.316C51.3679 127.288 52.897 128.149 52.5641 129.469C52.5036 129.819 52.3756 130.154 52.1871 130.456C52.1675 130.473 52.1446 130.525 52.125 130.542C52.4169 130.744 52.6781 130.988 52.9005 131.265C53.4166 132.038 53.5035 133.139 53.0502 133.956C52.9503 134.112 52.8401 134.26 52.7201 134.401L52.6416 134.467C52.8643 135.051 53.087 135.635 53.3291 136.203C54.3441 136.054 54.6298 136.753 55.2173 137.332C55.5013 137.63 55.8205 137.73 56.0501 137.605C56.3747 137.432 56.4091 137.034 56.2833 136.805C55.986 136.451 55.3215 136.339 54.8308 136.114C54.4258 135.951 54.0333 135.644 53.8508 135.228C53.6744 134.74 53.6504 134.211 53.782 133.709C53.9107 133.065 54.7026 131.493 55.5117 131.618C55.5845 131.32 55.7406 131.049 55.9617 130.837C56.6753 130.17 57.8443 129.925 58.711 130.437C58.9548 130.567 59.1955 130.734 59.341 130.947C59.5012 131.222 59.599 131.529 59.6275 131.846C59.6469 131.899 59.6483 131.957 59.6315 132.011C59.7467 132.006 59.8621 132.01 59.9767 132.022C60.4965 132.122 61.1916 132.51 61.5636 132.633C62.0078 132.763 62.4948 132.823 62.8705 133.111C63.7907 133.847 63.8518 135.036 63.3104 136.028C63.2224 136.202 63.1179 136.357 63.033 136.496C63.6455 136.786 64.2386 137.092 64.8511 137.382C66.034 138.031 66.6324 138.902 66.1408 139.953C67.1365 140.659 67.836 142.049 67.1902 143.196C66.56 144.162 65.2597 144.45 64.576 145.192C64.275 145.513 63.9905 145.852 63.61 146.038C63.295 146.166 62.9523 146.212 62.6147 146.17C62.5754 146.204 62.533 146.273 62.4936 146.306C62.1203 146.62 61.5943 146.592 61.1499 146.463C60.4721 146.295 60.0056 145.58 59.4653 145.297C59.3073 145.228 59.0675 145.262 58.9134 145.358C58.6084 145.514 58.3168 145.726 57.9821 145.806C58.4 146.662 58.8146 147.554 59.1932 148.443C60.527 151.347 61.1816 154.518 62.5155 157.422C62.9405 158.406 63.5588 159.261 64.2432 160.195C64.2848 159.925 64.3625 159.659 64.5456 159.438C64.9118 158.996 65.374 158.708 65.6152 158.237C65.9609 157.611 65.9016 156.822 66.3527 156.242C67.1306 155.252 68.6965 155.479 69.5181 156.297C69.9766 156.683 70.1168 157.169 70.1453 157.681C71.017 157.083 71.9218 156.523 72.9698 156.414C73.8535 156.308 74.9724 156.642 75.3345 157.511C75.4723 158.234 74.9623 158.863 74.6724 159.476C74.4571 159.858 74.3504 160.25 74.2599 160.661L74.2961 160.664C75.0556 160.73 75.8348 160.779 76.6038 160.736C77.3695 160.73 78.243 160.532 78.9547 160.94C79.4422 161.201 79.7012 161.788 79.4568 162.295C78.9193 163.451 77.3731 163.846 76.1867 163.87C74.9117 163.869 73.9121 163.837 72.9068 164.716C72.5893 165.016 72.099 165.63 71.6832 166.013C71.1857 166.498 70.6355 166.961 69.9895 167.269C69.9211 167.289 69.8567 167.32 69.7992 167.362C70.7211 168.499 71.64 169.671 72.4833 170.874C72.5958 171.048 72.7445 171.224 72.8373 171.415C72.8641 171.526 72.7297 171.606 72.618 171.633C72.2863 171.677 72.1698 171.339 72.0243 171.126C71.6207 170.526 71.1613 169.94 70.7185 169.373C69.2443 167.46 67.6883 165.649 66.2338 163.719C64.9806 161.989 63.5765 160.319 62.4971 158.477C62.2448 158.655 61.9625 158.758 61.7268 158.956C61.3762 159.218 60.922 159.834 60.9143 160.344C60.8123 161.1 61.0163 161.901 61.331 162.475C61.6489 163.013 62.0248 163.3 62.5736 163.275C62.6821 163.285 62.9345 163.106 62.8548 162.972C62.7723 162.873 62.7196 162.851 62.5552 162.855C62.4633 162.865 62.3838 162.73 62.4789 162.684C62.574 162.638 62.6629 162.664 62.7548 162.653C63.1661 162.744 63.3321 163.141 62.9124 163.36C62.5485 163.565 62.068 163.432 61.7186 163.256C60.9801 162.737 60.6606 161.798 60.6076 160.937C60.5603 160.533 60.6216 160.123 60.7852 159.749C60.9487 159.376 61.2087 159.053 61.5384 158.813C61.7711 158.651 62.0006 158.526 62.2498 158.383C61.7662 158.287 61.2411 158.46 60.6365 158.499C60.5083 158.506 60.3833 158.477 60.2552 158.484L60.2882 158.523C60.3543 158.602 60.5628 158.929 60.5998 159.133C60.9069 160.216 59.6726 160.583 58.8314 160.62C57.9508 160.689 57.1408 160.364 56.4223 160.666C56.1481 160.76 55.8943 160.905 55.6748 161.094C55.9351 161.244 56.2151 161.377 56.4754 161.527C57.3121 161.964 58.1426 162.473 58.6162 163.316C59.189 164.276 59.4898 165.432 59.1954 166.518C59.0408 167.252 58.6103 168.016 57.8556 168.315C57.2581 168.482 56.8563 168.283 56.5816 167.877C56.7418 169.184 56.4987 170.73 55.5629 171.651C54.8855 172.321 53.8329 172.904 52.8879 172.458C52.4524 172.262 52.0866 171.938 51.8387 171.529C51.5538 171.031 51.4664 170.568 51.0409 170.221C50.731 170.012 50.4189 170.04 50.0471 169.917C49.8197 169.826 49.616 169.684 49.4517 169.503C49.2874 169.321 49.1669 169.104 49.0993 168.869C49.0458 168.646 49.0088 168.442 48.9748 168.202C48.6957 168.269 48.397 168.353 48.0456 168.413C47.3393 168.571 46.8081 167.978 46.2346 167.655C45.8916 167.407 45.0816 167.082 44.9013 166.428ZM38.6201 121.538L38.6594 121.505C38.7513 121.495 38.8135 121.409 38.859 121.304C39.0108 121.04 39.1216 120.755 39.1875 120.458C39.2903 119.902 39.235 119.277 38.9109 118.812C38.5868 118.347 38.0866 118.231 37.5883 118.515C37.244 118.704 36.6103 118.868 36.7112 119.387C36.9866 119.994 37.6487 120.343 38.0028 120.883C38.1094 121.008 38.2015 121.144 38.2773 121.29C38.3733 121.444 38.43 121.631 38.6202 121.538H38.6201ZM37.6457 105.22C37.8578 104.874 38.412 104.576 38.625 104.43C38.864 104.196 39.0305 103.955 39.1083 103.689C38.314 103.183 37.2352 103.017 36.4961 103.135C36.0889 103.209 35.8571 103.571 35.6285 103.898C36.216 104.477 36.8005 105.092 37.3683 105.688C37.4358 105.519 37.5294 105.361 37.6458 105.22H37.6457ZM35.4152 105.519C34.7958 105.939 34.984 106.921 35.5777 107.428C36.063 107.925 36.9846 108.224 37.5329 108.836C37.8829 109.213 38.0623 109.665 38.3534 110.091C38.4164 110.206 38.565 110.383 38.6445 110.517C38.7182 110.462 38.7794 110.391 38.8241 110.31C38.8688 110.229 38.896 110.14 38.904 110.048C38.9119 109.956 38.9005 109.863 38.8703 109.776C38.8402 109.689 38.7921 109.608 38.729 109.541C38.6471 109.437 38.5422 109.353 38.4223 109.296C38.4871 109.411 38.5258 109.538 38.5357 109.67C38.555 109.723 38.5564 109.781 38.5396 109.834C38.4776 109.92 38.2606 109.901 38.27 109.793C38.2423 109.481 38.0566 109.1 37.753 108.819C37.3928 108.35 36.1655 108.007 36.3324 107.129C36.3999 106.77 36.6058 106.497 36.8612 106.282L37.0184 106.15C36.7014 105.813 36.3844 105.475 36.084 105.158C35.8745 105.267 35.6119 105.354 35.4153 105.519L35.4152 105.519ZM25.7219 93.9487C25.958 94.5886 25.8829 95.4567 26.42 95.7765C26.5781 95.8448 26.6071 95.7198 26.5598 95.4242C26.5353 95.0759 26.3331 94.6757 26.0688 94.3614C25.9728 94.2073 25.8375 94.0863 25.7219 93.9487ZM39.2351 98.0152C39.0739 97.9831 38.798 98.0139 38.7791 98.2309C38.751 98.5564 38.759 98.885 38.8983 99.1704C38.9612 99.2851 39.0013 99.4526 39.1491 99.4289L39.1688 99.4124C39.1822 99.4682 39.2711 99.4942 39.3268 99.4808C39.455 99.4737 39.4841 99.3486 39.51 99.2598C39.6073 98.9767 39.711 98.6213 39.5717 98.3359C39.5573 98.2535 39.5168 98.1778 39.4562 98.1201C39.3957 98.0624 39.3181 98.0256 39.2351 98.0152ZM44.6732 132.648C44.8165 133.097 45.2924 133.703 45.7264 133.741C46.2256 133.657 45.936 132.793 45.6087 132.364C45.4002 132.036 44.9189 131.703 44.5729 131.491C44.5746 131.892 44.5763 132.293 44.6732 132.648ZM52.2023 134.702C51.799 134.941 51.2998 135.025 50.846 135.004C50.8754 135.717 50.8686 136.427 50.5394 137.073C50.1088 137.837 49.1845 138.413 48.5135 137.535C48.4143 137.417 48.3349 137.283 48.2523 137.185C47.8812 137.262 47.4999 137.247 47.2176 137.35C46.5683 137.695 46.7102 138.581 47.3983 138.842C47.892 139.03 48.4284 139.149 48.8115 139.565C49.0427 139.84 49.215 140.165 49.466 140.423L49.5485 140.522L49.5517 140.485C49.5303 140.101 49.229 139.583 49.2696 139.113C49.3935 138.103 50.3603 137.458 51.1801 137.037C51.6364 136.822 51.9434 136.429 52.4323 136.253C52.544 136.226 52.6753 136.183 52.7869 136.156C52.5776 135.627 52.3817 135.155 52.2023 134.702ZM67.8267 164.896C67.9623 165.051 68.0882 165.214 68.2035 165.384L68.2759 165.39C68.4732 165.426 68.6541 165.441 68.7657 165.415C69.0055 165.381 69.3891 165.159 69.4079 164.942C69.4516 164.436 68.8163 164.198 68.343 164.194C68.2345 164.184 67.8768 164.317 67.7618 164.38C67.6863 164.41 67.6273 164.46 67.5322 164.506C67.6205 164.643 67.719 164.774 67.8267 164.896V164.896Z" fill="#0E4F55"/>
<path fill-rule="evenodd" clip-rule="evenodd" d="M90.0663 54.8781C90.1663 54.7233 90.3756 54.5389 90.6121 54.3448C91.3126 53.7746 92.3134 53.1692 92.4089 53.1045C93.9281 52.1026 95.5247 51.1834 97.0577 50.1928C97.7217 49.7611 98.3768 49.3164 99.009 48.845C99.2137 48.6893 100.578 47.7595 100.874 47.0956C100.948 46.9399 100.968 46.7643 100.933 46.5956C100.908 46.5053 100.865 46.4213 100.805 46.349C100.746 46.2768 100.671 46.218 100.587 46.1764C100.269 46.0031 99.8278 45.9525 99.3457 45.9894C98.4405 46.0581 97.367 46.4223 96.8165 46.5701C94.9895 47.069 93.1902 47.6646 91.4264 48.3544C89.6523 49.0391 87.9147 49.7936 86.2044 50.5677C81.3373 52.7731 76.5429 55.1523 71.9032 57.7369C67.1998 60.3592 62.6557 63.194 58.3662 66.279C56.4057 67.6861 54.245 69.1888 52.3847 70.8813C51.0746 72.075 49.9147 73.3643 49.0732 74.7776C49.0428 74.829 49.0228 74.8859 49.0143 74.945C49.0059 75.0041 49.0092 75.0642 49.024 75.1221C49.0388 75.1799 49.0649 75.2342 49.1007 75.282C49.1365 75.3297 49.1814 75.37 49.2328 75.4004C49.2842 75.4308 49.341 75.4508 49.4001 75.4592C49.4592 75.4677 49.5194 75.4644 49.5772 75.4495C49.6351 75.4347 49.6894 75.4087 49.7371 75.3728C49.7849 75.337 49.8251 75.2921 49.8555 75.2408C50.647 73.8957 51.743 72.6702 52.9805 71.5306C54.8046 69.8503 56.9289 68.3574 58.853 66.9578C63.106 63.8681 67.6092 61.0251 72.2717 58.3945C76.8796 55.7966 81.6467 53.4064 86.4865 51.1865C88.1786 50.4115 89.9026 49.6553 91.6629 48.9689C93.4041 48.2812 95.1806 47.6866 96.9849 47.1876C97.4444 47.0634 98.2768 46.7771 99.0592 46.6591C99.5322 46.5873 99.9825 46.5653 100.283 46.7292C100.369 46.7755 100.301 46.85 100.246 46.9354C100.12 47.1213 99.9703 47.29 99.8006 47.4374C99.3366 47.8656 98.7589 48.2534 98.6361 48.3471C98.0174 48.8114 97.3716 49.2499 96.7211 49.6753C95.1882 50.6702 93.5961 51.5921 92.0769 52.5976C91.9495 52.6816 90.3938 53.6325 89.757 54.3031C89.6272 54.4309 89.5237 54.5829 89.4522 54.7505C89.3567 55.0156 89.4249 55.2226 89.666 55.3587C90.13 55.614 90.9488 55.6168 91.8904 55.4583C93.6007 55.1693 95.7431 54.3952 96.5392 54.1896C100.269 53.2316 103.999 52.268 107.775 51.4521C110.272 50.9113 112.792 50.436 115.339 50.0678C124.305 48.778 133.948 48.4596 143.468 49.238C153.025 50.0199 162.459 51.9077 170.947 55.0143C171.003 55.0346 171.063 55.0437 171.123 55.0409C171.182 55.0382 171.241 55.0237 171.295 54.9984C171.349 54.973 171.398 54.9373 171.438 54.8932C171.478 54.8491 171.509 54.7974 171.53 54.7413C171.55 54.6851 171.559 54.6255 171.556 54.5659C171.553 54.5062 171.539 54.4477 171.514 54.3936C171.488 54.3395 171.452 54.291 171.408 54.2507C171.364 54.2105 171.313 54.1793 171.256 54.159C162.687 51.0733 153.166 49.2231 143.527 48.4799C133.952 47.7424 124.255 48.0964 115.243 49.4299C112.687 49.8076 110.153 50.2943 107.638 50.8436C103.863 51.6699 100.124 52.6393 96.389 53.6051C95.6022 53.809 93.4824 54.5784 91.7903 54.8639C91.0806 54.9828 90.4574 55.0319 90.0663 54.8781ZM189.984 167.395C192.695 166.965 195.469 166.066 198.039 164.776C200.609 163.484 202.975 161.801 204.839 159.762C206.604 157.872 207.882 155.495 209.529 153.472C210.216 152.626 210.971 151.846 211.858 151.193C212.745 150.537 213.732 150.101 214.769 149.803C215.815 149.502 216.916 149.346 218.012 149.254C218.132 149.242 218.242 149.183 218.319 149.091C218.395 148.998 218.431 148.878 218.42 148.758C218.409 148.639 218.35 148.528 218.258 148.452C218.165 148.375 218.046 148.338 217.926 148.349C216.775 148.473 215.624 148.668 214.528 149.011C213.414 149.36 212.354 149.86 211.403 150.593C210.484 151.301 209.706 152.14 208.992 153.044C207.387 155.081 206.136 157.454 204.398 159.352C202.561 161.311 200.245 162.931 197.725 164.14C195.238 165.328 192.582 166.122 189.851 166.495C189.791 166.502 189.733 166.522 189.68 166.552C189.628 166.582 189.582 166.622 189.545 166.671C189.508 166.719 189.481 166.774 189.466 166.833C189.451 166.891 189.448 166.953 189.456 167.013C189.465 167.073 189.486 167.13 189.517 167.182C189.549 167.234 189.59 167.279 189.639 167.315C189.688 167.35 189.744 167.376 189.803 167.39C189.862 167.403 189.923 167.405 189.983 167.395L189.984 167.395Z" fill="#0E4F55"/>
<path fill-rule="evenodd" clip-rule="evenodd" d="M115.364 127.495C119.929 138.895 135.597 157.007 149.674 157.004C170.008 157.005 191.775 103.756 191.775 103.756C199.994 98.1594 194.962 90.3888 191.249 83.8735L185.591 97.8387C185.591 97.8387 161.115 132.072 150.565 130.53C140.014 128.991 128.156 89.1047 122.289 88.5984C116.423 88.0922 110.801 116.093 115.364 127.495Z" fill="#FB9C9A"/>
<mask id="mask0_1095_3040" style="mask-type:luminance" maskUnits="userSpaceOnUse" x="113" y="83" width="84" height="75">
<path d="M115.364 127.495C119.929 138.895 135.597 157.007 149.674 157.004C170.008 157.005 191.775 103.756 191.775 103.756C199.994 98.1594 194.962 90.3888 191.249 83.8735L185.591 97.8387C185.591 97.8387 161.115 132.072 150.565 130.53C140.014 128.991 128.156 89.1047 122.289 88.5984C116.423 88.0922 110.801 116.093 115.364 127.495Z" fill="white"/>
</mask>
<g mask="url(#mask0_1095_3040)">
<path fill-rule="evenodd" clip-rule="evenodd" d="M174.811 99.2055C164.053 85.3251 157.621 65.5367 139.54 59.361C126.854 55.0275 115.45 61.584 108.263 72.0702C97.073 88.3995 93.4566 111.83 99.9478 130.595C109.268 157.538 140.827 166.64 165.65 156.168C173.342 152.923 180.988 148.062 185.25 140.656C188.434 135.123 191.441 124.183 185.842 118.892C183.995 117.146 180.883 117.882 179.3 115.869C178.095 114.34 178.686 112.305 177.986 110.598C176.844 107.798 172.518 107.174 169.875 107.511L174.811 99.2055Z" fill="#009245"/>
</g>
<path fill-rule="evenodd" clip-rule="evenodd" d="M113.544 142.012C120.055 134.094 129.981 100.057 124.905 90.5048C119.829 80.9529 92.9146 70.7689 83.0875 84.7001C74.4511 96.9419 80.7614 128.46 85.8375 138.012C90.2142 146.253 107.617 149.22 113.544 142.012Z" fill="#009245"/>
<path fill-rule="evenodd" clip-rule="evenodd" d="M111.47 99.4543C111.128 98.5477 110.439 97.8143 109.556 97.4152C108.673 97.0161 107.668 96.984 106.761 97.326L55.4391 116.696C54.9904 116.865 54.5794 117.122 54.2298 117.45C53.8801 117.778 53.5985 118.172 53.4011 118.61C53.2037 119.047 53.0944 119.519 53.0793 119.998C53.0643 120.478 53.1438 120.955 53.3134 121.404L83.6027 201.657C83.9445 202.563 84.6323 203.297 85.5149 203.696C86.3975 204.095 87.4025 204.128 88.309 203.786L139.631 184.416C140.537 184.074 141.271 183.385 141.67 182.502C142.069 181.619 142.101 180.614 141.76 179.707L111.47 99.4543Z" fill="white"/>
<path fill-rule="evenodd" clip-rule="evenodd" d="M72.7365 124.63C72.6468 124.393 72.4666 124.201 72.2354 124.096C72.0042 123.992 71.7409 123.983 71.5035 124.073L62.6733 127.405C62.436 127.495 62.244 127.675 62.1395 127.906C62.035 128.138 62.0266 128.401 62.1161 128.638L62.1164 128.639C62.2061 128.876 62.3863 129.068 62.6175 129.173C62.8487 129.277 63.1119 129.286 63.3493 129.196L72.1796 125.864C72.4169 125.774 72.6088 125.594 72.7133 125.362C72.8178 125.131 72.8262 124.868 72.7367 124.631L72.7365 124.63ZM71.3489 120.954C71.2592 120.716 71.079 120.524 70.8478 120.42C70.6167 120.315 70.3534 120.307 70.116 120.396L61.2857 123.729C61.0484 123.819 60.8564 123.999 60.752 124.23C60.6475 124.461 60.6391 124.725 60.7286 124.962V124.963C60.8183 125.2 60.9985 125.392 61.2297 125.497C61.4609 125.601 61.7241 125.609 61.9615 125.52L70.792 122.187C71.0293 122.098 71.2213 121.918 71.3258 121.686C71.4303 121.455 71.4387 121.192 71.3492 120.955L71.3489 120.954Z" fill="#E3E3FE"/>
<path fill-rule="evenodd" clip-rule="evenodd" d="M111.317 99.0487C111.168 98.6531 110.942 98.2908 110.653 97.9824C110.364 97.6741 110.016 97.4258 109.631 97.2517C109.246 97.0776 108.83 96.9811 108.407 96.9677C107.985 96.9543 107.564 97.0243 107.168 97.1737L55.036 116.849C54.6404 116.999 54.2781 117.224 53.9697 117.514C53.6613 117.803 53.413 118.15 53.2388 118.535C53.0646 118.921 52.968 119.336 52.9546 119.759C52.9411 120.182 53.011 120.603 53.1604 120.998V120.999C53.3096 121.395 53.5354 121.757 53.8247 122.065C54.1141 122.374 54.4613 122.622 54.8466 122.796C55.2319 122.97 55.6478 123.067 56.0704 123.08C56.493 123.093 56.9141 123.023 57.3097 122.874L109.442 103.198C109.837 103.049 110.2 102.823 110.508 102.534C110.816 102.245 111.065 101.898 111.239 101.512C111.413 101.127 111.51 100.711 111.523 100.289C111.537 99.866 111.467 99.4449 111.317 99.0493V99.0487Z" fill="white"/>
<path fill-rule="evenodd" clip-rule="evenodd" d="M97.5759 145.479C97.5426 145.483 97.5091 145.475 97.4806 145.458C97.452 145.44 97.4301 145.414 97.4182 145.382L91.0837 128.599C90.8058 127.864 90.2472 127.269 89.5307 126.945C88.8142 126.621 87.9984 126.595 87.2627 126.872L87.2604 126.873C86.8961 127.01 86.5625 127.218 86.2786 127.485C85.9948 127.751 85.7662 128.071 85.606 128.426C85.4458 128.78 85.3571 129.163 85.345 129.552C85.3328 129.941 85.3975 130.329 85.5354 130.693L91.9213 147.613V147.613L91.9189 147.614L91.6408 147.719C91.564 147.749 91.4789 147.749 91.4021 147.719C91.3253 147.69 91.2622 147.633 91.225 147.559C90.4362 146.026 86.4305 138.231 84.3937 134.269C84.2374 133.965 84.0227 133.694 83.7618 133.472C83.5008 133.251 83.1988 133.083 82.873 132.978C82.5472 132.874 82.2039 132.834 81.8628 132.862C81.5217 132.89 81.1895 132.985 80.885 133.141C80.8827 133.142 80.8827 133.142 80.8828 133.143C80.5782 133.299 80.3074 133.514 80.0859 133.775C79.8643 134.036 79.6964 134.338 79.5916 134.664C79.4869 134.99 79.4473 135.334 79.4753 135.675C79.5033 136.016 79.5983 136.348 79.7547 136.653C81.1017 139.273 83.3318 143.612 85.065 146.985C86.7299 150.226 88.2093 153.56 89.4959 156.969C89.4959 156.969 87.0812 154.51 85.1908 152.583C84.602 151.984 83.7993 151.643 82.9593 151.635C82.1193 151.628 81.3106 151.954 80.7111 152.542V152.543C80.4148 152.834 80.1791 153.181 80.0175 153.563C79.856 153.946 79.7718 154.357 79.7698 154.772C79.7678 155.187 79.8481 155.599 80.006 155.983C80.1639 156.367 80.3963 156.716 80.6898 157.009C82.8074 159.132 86.0823 162.408 88.9488 165.28C90.7138 167.047 92.9513 168.267 95.3928 168.794C97.8342 169.321 100.376 169.132 102.712 168.25C109.484 165.694 112.902 158.134 110.346 151.363L109.248 148.454C109.248 148.454 108.149 137.109 107.642 131.871C107.575 131.183 107.238 130.549 106.704 130.11C106.17 129.67 105.483 129.461 104.795 129.528V129.527C104.107 129.594 103.473 129.931 103.033 130.465C102.593 130.999 102.384 131.686 102.45 132.374C102.83 136.286 103.504 143.242 103.504 143.242L103.452 143.262C103.398 143.268 103.345 143.255 103.3 143.225C103.256 143.194 103.223 143.149 103.209 143.098C102.817 141.594 100.623 133.191 99.4377 128.653C99.236 127.881 98.7363 127.222 98.0485 126.818C97.3606 126.415 96.5408 126.302 95.7693 126.503L95.767 126.504C95.3849 126.603 95.0263 126.777 94.7115 127.016C94.3967 127.254 94.132 127.552 93.9325 127.893C93.733 128.233 93.6026 128.61 93.5488 129.001C93.4949 129.392 93.5187 129.79 93.6187 130.172C94.9613 135.313 97.6114 145.467 97.6114 145.467L97.5759 145.479Z" fill="#22AF5E"/>
<path fill-rule="evenodd" clip-rule="evenodd" d="M130.864 166.25L133.143 172.288C133.484 173.19 133.452 174.19 133.055 175.068C132.658 175.946 131.929 176.63 131.027 176.971L124.653 179.377L124.059 177.803L130.434 175.397C130.674 175.307 130.894 175.17 131.081 174.995C131.268 174.819 131.419 174.609 131.525 174.375C131.63 174.142 131.689 173.889 131.697 173.633C131.706 173.377 131.664 173.121 131.573 172.881L129.294 166.843L130.864 166.25ZM84.2687 183.837L86.5475 189.875C86.6378 190.115 86.7744 190.335 86.9497 190.522C87.1249 190.709 87.3353 190.859 87.5688 190.965C87.8023 191.07 88.0543 191.129 88.3104 191.137C88.5666 191.145 88.8218 191.103 89.0615 191.012L95.4358 188.606L96.0296 190.18L89.6552 192.586C88.7537 192.926 87.754 192.894 86.8759 192.497C85.9979 192.1 85.3135 191.371 84.9731 190.469L82.694 184.431L84.2687 183.837ZM73.3099 129.982L73.9039 131.556L67.5296 133.962C67.2898 134.052 67.0702 134.189 66.8833 134.364C66.6964 134.54 66.5458 134.75 66.4404 134.984C66.3349 135.217 66.2764 135.469 66.2685 135.725C66.2605 135.981 66.3031 136.237 66.3938 136.476L68.6728 142.515L67.0986 143.109L64.8196 137.07C64.4794 136.169 64.5113 135.169 64.9081 134.291C65.3049 133.413 66.0342 132.728 66.9356 132.388L73.3099 129.982ZM101.933 119.179L108.307 116.773C109.209 116.433 110.209 116.465 111.087 116.862C111.965 117.259 112.649 117.988 112.99 118.89L115.269 124.928L113.698 125.521L111.419 119.483C111.328 119.243 111.191 119.023 111.016 118.836C110.84 118.649 110.629 118.499 110.396 118.393C110.162 118.288 109.909 118.23 109.653 118.222C109.397 118.214 109.141 118.256 108.901 118.347L102.527 120.753L101.933 119.179Z" fill="#E3E3FE"/>
<path d="M88.6262 177.526C88.9322 177.411 89.2131 177.43 89.4691 177.583C89.7732 177.764 90.0387 178.155 90.2654 178.756C90.4915 179.355 90.5472 179.826 90.4396 180.166C90.3516 180.446 90.1527 180.645 89.8467 180.76C89.7049 180.818 89.5512 180.842 89.3983 180.829C89.2455 180.816 89.0979 180.767 88.9679 180.685C88.6866 180.521 88.4352 180.133 88.2058 179.525C87.9808 178.929 87.9221 178.461 88.0296 178.121C88.1213 177.84 88.3202 177.642 88.6262 177.526ZM88.8161 178.029C88.7434 178.056 88.6825 178.108 88.6436 178.175C88.6019 178.27 88.5887 178.374 88.6057 178.476C88.6245 178.649 88.7021 178.921 88.8424 179.293C88.9826 179.665 89.0974 179.913 89.1867 180.038C89.2797 180.162 89.3589 180.237 89.4352 180.261C89.5073 180.286 89.5858 180.284 89.6567 180.256C89.7281 180.23 89.7879 180.179 89.8254 180.113C89.8703 180.019 89.8835 179.913 89.8629 179.811C89.8485 179.639 89.7676 179.368 89.6272 178.997C89.4869 178.625 89.3723 178.377 89.283 178.252C89.1937 178.127 89.1107 178.052 89.0377 178.026C88.9658 178.001 88.8873 178.002 88.8161 178.029ZM91.0852 176.598C91.3912 176.482 91.6721 176.502 91.928 176.655C92.2322 176.836 92.4977 177.227 92.7244 177.828C92.9505 178.427 93.0099 178.896 92.9024 179.237C92.8107 179.518 92.6118 179.716 92.3057 179.832C92.1638 179.89 92.0102 179.913 91.8574 179.9C91.7046 179.887 91.5571 179.839 91.4269 179.758C91.1494 179.591 90.8942 179.206 90.6648 178.598C90.4398 178.001 90.3811 177.533 90.4923 177.192C90.5803 176.912 90.7792 176.713 91.0852 176.598ZM91.2751 177.101C91.2033 177.127 91.1433 177.178 91.1064 177.245C91.0616 177.34 91.0471 177.445 91.0649 177.548C91.0836 177.721 91.1649 177.992 91.3052 178.364C91.4455 178.735 91.5602 178.983 91.6495 179.108C91.7388 179.234 91.8216 179.308 91.8944 179.333C91.9666 179.357 92.0448 179.355 92.116 179.328C92.1871 179.301 92.2467 179.25 92.2847 179.185C92.3294 179.09 92.3439 178.984 92.3261 178.881C92.3079 178.71 92.2307 178.439 92.0904 178.067C91.9502 177.696 91.8354 177.447 91.7461 177.322C91.6531 177.199 91.5738 177.122 91.4971 177.098C91.4251 177.072 91.3462 177.073 91.275 177.101H91.2751ZM95.2715 178.651L94.6669 178.879L93.8035 176.591C93.6577 176.885 93.4489 177.144 93.1919 177.348L92.984 176.797C93.1461 176.658 93.2831 176.492 93.3889 176.307C93.5147 176.113 93.5815 175.887 93.581 175.656L94.0714 175.471L95.2715 178.651ZM97.4909 177.813L96.8826 178.043L96.0192 175.755C95.8734 176.049 95.6646 176.307 95.4076 176.511L95.1997 175.961C95.3618 175.822 95.4988 175.656 95.6045 175.471C95.7304 175.277 95.7972 175.051 95.7967 174.82L96.2905 174.633L97.4909 177.813ZM99.7066 176.977L99.0983 177.206L98.2349 174.919C98.0891 175.213 97.8803 175.471 97.6233 175.675L97.4154 175.124C97.5781 174.985 97.7161 174.819 97.8239 174.633C97.9473 174.439 98.0127 174.213 98.0124 173.983L98.5062 173.797L99.7066 176.977ZM100.438 173.068C100.744 172.952 101.025 172.971 101.281 173.125C101.585 173.306 101.851 173.697 102.078 174.298C102.304 174.897 102.363 175.366 102.255 175.706C102.164 175.988 101.965 176.186 101.659 176.302C101.517 176.36 101.363 176.383 101.211 176.37C101.058 176.357 100.91 176.308 100.78 176.228C100.503 176.061 100.247 175.675 100.018 175.068C99.7929 174.471 99.7342 174.003 99.8454 173.662C99.9334 173.382 100.132 173.183 100.438 173.068ZM100.628 173.571C100.557 173.598 100.497 173.649 100.459 173.715C100.414 173.809 100.401 173.915 100.422 174.017C100.437 174.191 100.518 174.462 100.658 174.833C100.798 175.205 100.913 175.453 101.002 175.578C101.092 175.703 101.175 175.778 101.247 175.803C101.319 175.828 101.398 175.826 101.469 175.799C101.541 175.772 101.602 175.72 101.641 175.653C101.683 175.559 101.696 175.454 101.679 175.352C101.661 175.181 101.584 174.909 101.443 174.537C101.303 174.166 101.188 173.918 101.099 173.793C101.01 173.668 100.927 173.593 100.85 173.568C100.778 173.542 100.699 173.543 100.628 173.571ZM102.901 172.138C103.207 172.023 103.488 172.042 103.744 172.196C104.048 172.377 104.31 172.769 104.537 173.37C104.763 173.969 104.822 174.438 104.714 174.778C104.626 175.058 104.428 175.257 104.122 175.372C103.98 175.43 103.826 175.454 103.673 175.441C103.52 175.428 103.373 175.379 103.243 175.298C102.961 175.133 102.71 174.746 102.481 174.138C102.256 173.542 102.197 173.074 102.304 172.734C102.396 172.452 102.591 172.255 102.901 172.138ZM103.091 172.642C103.018 172.669 102.957 172.72 102.918 172.787C102.877 172.882 102.864 172.987 102.881 173.089C102.899 173.261 102.977 173.534 103.117 173.905C103.257 174.277 103.372 174.525 103.461 174.65C103.551 174.775 103.634 174.85 103.71 174.874C103.782 174.899 103.861 174.897 103.931 174.869C104.003 174.842 104.063 174.791 104.1 174.725C104.145 174.631 104.158 174.525 104.138 174.423C104.123 174.251 104.042 173.981 103.902 173.609C103.762 173.237 103.647 172.989 103.558 172.864C103.468 172.739 103.385 172.664 103.313 172.638C103.241 172.613 103.162 172.614 103.091 172.642ZM105.36 171.21C105.666 171.095 105.947 171.114 106.203 171.268C106.507 171.449 106.772 171.84 106.999 172.44C107.225 173.039 107.285 173.509 107.177 173.849C107.086 174.13 106.887 174.329 106.581 174.444C106.439 174.503 106.285 174.526 106.132 174.513C105.979 174.5 105.832 174.451 105.702 174.37C105.424 174.204 105.169 173.818 104.94 173.21C104.715 172.614 104.656 172.146 104.767 171.804C104.855 171.524 105.054 171.326 105.36 171.21ZM105.55 171.714C105.478 171.74 105.418 171.791 105.381 171.858C105.336 171.952 105.322 172.058 105.34 172.161C105.358 172.333 105.436 172.606 105.576 172.977C105.717 173.349 105.831 173.597 105.924 173.721C106.014 173.846 106.096 173.921 106.169 173.946C106.241 173.97 106.32 173.968 106.391 173.941C106.462 173.914 106.521 173.863 106.559 173.797C106.604 173.703 106.619 173.597 106.601 173.494C106.583 173.323 106.505 173.052 106.365 172.68C106.225 172.308 106.11 172.06 106.017 171.937C105.928 171.812 105.848 171.735 105.772 171.711C105.7 171.685 105.621 171.686 105.55 171.714H105.55ZM109.546 173.263L108.942 173.491L108.078 171.204C107.933 171.498 107.724 171.756 107.467 171.96L107.259 171.409C107.421 171.27 107.558 171.105 107.664 170.919C107.788 170.725 107.855 170.499 107.856 170.268L108.346 170.083L109.546 173.263ZM111.762 172.427L111.157 172.655L110.294 170.367C110.148 170.661 109.939 170.92 109.682 171.124L109.475 170.573C109.637 170.434 109.774 170.268 109.879 170.083C110.005 169.889 110.072 169.663 110.072 169.432L110.562 169.247L111.762 172.427ZM113.981 171.589L113.373 171.819L112.51 169.531C112.364 169.825 112.155 170.083 111.898 170.287L111.69 169.737C111.852 169.598 111.989 169.432 112.095 169.247C112.221 169.053 112.287 168.827 112.287 168.596L112.781 168.409L113.981 171.589ZM116.197 170.753L115.589 170.982L114.725 168.695C114.58 168.989 114.371 169.247 114.114 169.451L113.906 168.9C114.069 168.761 114.207 168.595 114.314 168.409C114.438 168.215 114.503 167.989 114.503 167.759L114.997 167.573L116.197 170.753ZM116.929 166.844C117.238 166.727 117.516 166.748 117.772 166.901C118.076 167.082 118.341 167.473 118.568 168.074C118.794 168.673 118.853 169.143 118.746 169.483C118.654 169.764 118.459 169.961 118.149 170.078C118.007 170.136 117.854 170.159 117.701 170.146C117.548 170.134 117.401 170.085 117.271 170.004C116.993 169.838 116.738 169.452 116.508 168.844C116.283 168.248 116.225 167.779 116.336 167.438C116.424 167.158 116.623 166.96 116.929 166.844ZM117.119 167.347C117.047 167.374 116.987 167.425 116.95 167.491C116.905 167.585 116.892 167.691 116.912 167.793C116.927 167.967 117.008 168.238 117.149 168.61C117.289 168.981 117.404 169.229 117.493 169.354C117.582 169.48 117.665 169.554 117.738 169.579C117.81 169.603 117.888 169.602 117.959 169.574C118.032 169.548 118.093 169.496 118.132 169.429C118.174 169.334 118.187 169.229 118.169 169.127C118.151 168.956 118.074 168.685 117.934 168.313C117.794 167.942 117.679 167.693 117.59 167.568C117.5 167.443 117.417 167.368 117.341 167.344C117.269 167.318 117.19 167.319 117.119 167.347ZM119.391 165.915C119.697 165.799 119.978 165.818 120.234 165.972C120.539 166.153 120.804 166.544 121.031 167.144C121.257 167.744 121.312 168.214 121.205 168.555C121.117 168.835 120.918 169.033 120.612 169.148C120.47 169.207 120.316 169.23 120.164 169.217C120.011 169.204 119.863 169.155 119.733 169.074C119.452 168.909 119.201 168.522 118.971 167.914C118.746 167.318 118.687 166.85 118.795 166.51C118.887 166.228 119.085 166.03 119.391 165.915ZM119.581 166.418C119.509 166.445 119.448 166.496 119.409 166.563C119.367 166.658 119.354 166.763 119.371 166.865C119.39 167.037 119.467 167.31 119.608 167.682C119.748 168.053 119.863 168.301 119.952 168.426C120.041 168.551 120.124 168.626 120.201 168.65C120.273 168.675 120.351 168.673 120.422 168.645C120.493 168.618 120.553 168.568 120.591 168.501C120.636 168.407 120.649 168.301 120.628 168.199C120.614 168.027 120.533 167.757 120.393 167.385C120.252 167.014 120.138 166.765 120.048 166.64C119.959 166.515 119.876 166.44 119.803 166.415C119.731 166.389 119.652 166.391 119.581 166.418H119.581ZM121.85 164.986C122.156 164.871 122.437 164.89 122.693 165.044C122.998 165.225 123.263 165.616 123.49 166.216C123.716 166.815 123.775 167.285 123.668 167.625C123.576 167.906 123.377 168.105 123.071 168.22C122.929 168.279 122.776 168.302 122.623 168.29C122.47 168.277 122.322 168.227 122.192 168.146C121.915 167.98 121.66 167.594 121.43 166.986C121.205 166.39 121.146 165.922 121.258 165.58C121.346 165.3 121.544 165.102 121.85 164.986ZM122.04 165.49C121.969 165.516 121.909 165.567 121.872 165.634C121.827 165.728 121.812 165.834 121.83 165.937C121.849 166.109 121.926 166.382 122.067 166.753C122.207 167.125 122.325 167.372 122.415 167.497C122.504 167.622 122.587 167.696 122.66 167.722C122.732 167.747 122.81 167.745 122.881 167.717C122.953 167.691 123.013 167.64 123.05 167.573C123.095 167.479 123.109 167.373 123.091 167.27C123.073 167.099 122.996 166.828 122.855 166.456C122.715 166.084 122.601 165.836 122.508 165.713C122.418 165.588 122.335 165.513 122.262 165.487C122.19 165.461 122.112 165.462 122.04 165.49ZM92.2904 185.639L91.6822 185.869L90.8188 183.581C90.673 183.875 90.4642 184.133 90.2072 184.337L89.9993 183.786C90.1614 183.648 90.2983 183.482 90.4041 183.297C90.53 183.103 90.5968 182.877 90.5964 182.645L91.0901 182.459L92.2904 185.639ZM94.5062 184.803L93.8979 185.032L93.0345 182.745C92.8892 183.038 92.6818 183.295 92.4266 183.5L92.2187 182.949C92.3801 182.81 92.517 182.644 92.6236 182.459C92.7484 182.266 92.8139 182.04 92.8121 181.809L93.3059 181.623L94.5062 184.803ZM96.7219 183.966L96.1136 184.196L95.2502 181.909C95.1049 182.201 94.8974 182.459 94.6422 182.664L94.4344 182.113C94.5958 181.973 94.7326 181.808 94.8392 181.623C94.9636 181.429 95.0302 181.203 95.0314 180.972L95.5217 180.787L96.7219 183.966ZM97.4572 180.056C97.7632 179.941 98.0442 179.96 98.3001 180.113C98.6007 180.296 98.8662 180.687 99.0929 181.287C99.3189 181.887 99.3782 182.356 99.2707 182.696C99.1827 182.976 98.9839 183.175 98.6778 183.29C98.5353 183.348 98.3811 183.372 98.2278 183.359C98.0744 183.346 97.9262 183.298 97.7952 183.217C97.5178 183.051 97.2663 182.664 97.0369 182.056C96.8119 181.459 96.7531 180.991 96.8607 180.651C96.9487 180.372 97.1475 180.173 97.4572 180.056ZM97.6472 180.559C97.5745 180.586 97.5135 180.638 97.4747 180.705C97.4297 180.799 97.4164 180.905 97.4368 181.007C97.4556 181.179 97.5332 181.452 97.6735 181.823C97.8137 182.195 97.9284 182.443 98.0178 182.568C98.1072 182.693 98.19 182.768 98.2627 182.793C98.3362 182.817 98.4156 182.815 98.4877 182.787C98.5588 182.76 98.6184 182.709 98.6564 182.643C98.698 182.548 98.711 182.443 98.6939 182.341C98.6758 182.17 98.5986 181.899 98.4583 181.527C98.3181 181.155 98.2033 180.907 98.114 180.782C98.0247 180.657 97.9417 180.582 97.8687 180.556C97.7967 180.532 97.7185 180.533 97.6472 180.559ZM99.9162 179.128C100.222 179.013 100.503 179.032 100.759 179.185C101.063 179.367 101.329 179.757 101.556 180.358C101.782 180.957 101.841 181.427 101.73 181.768C101.642 182.048 101.443 182.247 101.137 182.362C100.995 182.42 100.841 182.444 100.688 182.431C100.536 182.418 100.388 182.369 100.258 182.287C99.9805 182.121 99.7253 181.735 99.4959 181.128C99.2709 180.531 99.2121 180.063 99.3197 179.723C99.4114 179.442 99.6103 179.244 99.9162 179.128ZM100.106 179.631C100.034 179.657 99.9744 179.709 99.9374 179.776C99.8926 179.87 99.8781 179.976 99.8959 180.078C99.9147 180.251 99.9923 180.523 100.133 180.895C100.273 181.267 100.388 181.515 100.477 181.64C100.57 181.764 100.649 181.839 100.725 181.863C100.797 181.888 100.876 181.886 100.947 181.858C101.019 181.833 101.079 181.781 101.116 181.715C101.16 181.621 101.174 181.515 101.153 181.413C101.139 181.241 101.061 180.969 100.921 180.597C100.781 180.226 100.662 179.979 100.573 179.854C100.484 179.728 100.401 179.654 100.328 179.628C100.256 179.603 100.177 179.604 100.106 179.631L100.106 179.631ZM102.375 178.2C102.681 178.084 102.962 178.104 103.218 178.257C103.522 178.438 103.788 178.829 104.014 179.43C104.24 180.029 104.3 180.498 104.192 180.839C104.101 181.12 103.902 181.318 103.596 181.434C103.454 181.492 103.3 181.515 103.147 181.502C102.994 181.489 102.847 181.441 102.717 181.36C102.439 181.193 102.184 180.808 101.955 180.2C101.73 179.603 101.671 179.135 101.782 178.794C101.87 178.514 102.069 178.316 102.375 178.2ZM102.565 178.703C102.493 178.73 102.434 178.781 102.396 178.847C102.351 178.941 102.338 179.047 102.358 179.149C102.373 179.323 102.455 179.594 102.595 179.966C102.735 180.337 102.85 180.585 102.939 180.71C103.029 180.836 103.111 180.91 103.184 180.935C103.256 180.96 103.335 180.958 103.405 180.931C103.478 180.904 103.539 180.852 103.578 180.785C103.62 180.691 103.633 180.586 103.616 180.484C103.597 180.313 103.52 180.041 103.38 179.669C103.24 179.298 103.125 179.05 103.036 178.925C102.946 178.8 102.863 178.725 102.787 178.7C102.715 178.674 102.636 178.675 102.565 178.703L102.565 178.703ZM106.565 180.251L105.957 180.481L105.094 178.193C104.948 178.487 104.739 178.746 104.482 178.95L104.274 178.399C104.436 178.26 104.573 178.094 104.679 177.909C104.805 177.715 104.872 177.489 104.871 177.258L105.365 177.071L106.565 180.251ZM108.781 179.415L108.173 179.645L107.31 177.357C107.164 177.651 106.955 177.909 106.698 178.113L106.49 177.563C106.652 177.424 106.789 177.258 106.895 177.073C107.021 176.879 107.088 176.653 107.087 176.422L107.581 176.235L108.781 179.415ZM110.997 178.579L110.388 178.808L109.525 176.521C109.38 176.814 109.172 177.072 108.917 177.276L108.709 176.725C108.871 176.586 109.007 176.42 109.114 176.235C109.239 176.042 109.304 175.816 109.303 175.585L109.796 175.399L110.997 178.579ZM113.212 177.743L112.604 177.972L111.741 175.685C111.596 175.978 111.388 176.235 111.133 176.44L110.925 175.889C111.086 175.75 111.223 175.584 111.33 175.399C111.454 175.205 111.521 174.979 111.522 174.748L112.012 174.563L113.212 177.743ZM113.948 173.832C114.254 173.717 114.535 173.736 114.791 173.889C115.095 174.071 115.357 174.463 115.583 175.064C115.809 175.663 115.869 176.132 115.761 176.472C115.673 176.752 115.474 176.951 115.168 177.066C115.026 177.124 114.872 177.148 114.718 177.135C114.565 177.123 114.417 177.074 114.286 176.993C114.008 176.827 113.757 176.44 113.527 175.832C113.302 175.236 113.244 174.768 113.351 174.427C113.443 174.146 113.638 173.949 113.948 173.832ZM114.138 174.336C114.065 174.363 114.004 174.414 113.965 174.481C113.924 174.576 113.91 174.681 113.927 174.783C113.946 174.955 114.024 175.228 114.164 175.599C114.304 175.971 114.419 176.219 114.508 176.344C114.598 176.469 114.68 176.544 114.757 176.567C114.829 176.592 114.907 176.591 114.978 176.563C115.049 176.536 115.109 176.485 115.147 176.419C115.192 176.325 115.205 176.219 115.184 176.117C115.17 175.945 115.089 175.675 114.949 175.303C114.809 174.931 114.694 174.683 114.605 174.558C114.515 174.433 114.432 174.358 114.359 174.332C114.287 174.308 114.209 174.309 114.137 174.336H114.138ZM116.407 172.904C116.713 172.789 116.994 172.808 117.25 172.961C117.554 173.143 117.819 173.534 118.046 174.134C118.272 174.733 118.331 175.203 118.22 175.544C118.132 175.824 117.933 176.023 117.627 176.138C117.485 176.196 117.332 176.22 117.179 176.207C117.026 176.194 116.879 176.145 116.748 176.064C116.471 175.898 116.216 175.512 115.986 174.904C115.761 174.308 115.703 173.839 115.81 173.499C115.902 173.218 116.101 173.02 116.407 172.904ZM116.597 173.407C116.525 173.434 116.465 173.485 116.428 173.552C116.383 173.646 116.369 173.752 116.386 173.855C116.405 174.027 116.483 174.3 116.623 174.671C116.763 175.043 116.878 175.291 116.971 175.415C117.06 175.54 117.14 175.616 117.216 175.64C117.288 175.665 117.366 175.663 117.437 175.635C117.509 175.609 117.569 175.558 117.606 175.491C117.651 175.397 117.665 175.291 117.647 175.188C117.629 175.017 117.552 174.746 117.412 174.374C117.271 174.002 117.157 173.754 117.064 173.63C116.974 173.505 116.891 173.43 116.818 173.405C116.747 173.379 116.668 173.38 116.597 173.407ZM120.593 174.957L119.988 175.185L119.125 172.898C118.978 173.191 118.77 173.449 118.513 173.654L118.306 173.103C118.468 172.964 118.605 172.799 118.71 172.613C118.835 172.419 118.901 172.193 118.903 171.962L119.393 171.777L120.593 174.957ZM122.809 174.121L122.204 174.349L121.341 172.061C121.195 172.355 120.986 172.614 120.729 172.818L120.521 172.267C120.683 172.128 120.82 171.962 120.926 171.777C121.052 171.583 121.119 171.357 121.118 171.126L121.609 170.941L122.809 174.121ZM123.544 170.21C123.85 170.095 124.131 170.114 124.387 170.268C124.691 170.449 124.957 170.84 125.183 171.44C125.41 172.039 125.469 172.509 125.358 172.85C125.27 173.13 125.071 173.329 124.765 173.444C124.623 173.502 124.469 173.526 124.316 173.513C124.163 173.5 124.016 173.451 123.886 173.37C123.608 173.204 123.353 172.818 123.124 172.21C122.899 171.614 122.84 171.146 122.948 170.806C123.039 170.524 123.238 170.326 123.544 170.21ZM123.734 170.714C123.662 170.74 123.602 170.791 123.565 170.858C123.521 170.952 123.506 171.058 123.524 171.161C123.543 171.333 123.62 171.606 123.76 171.977C123.901 172.349 124.015 172.597 124.105 172.722C124.198 172.846 124.277 172.922 124.353 172.946C124.425 172.971 124.504 172.969 124.575 172.941C124.647 172.915 124.707 172.864 124.743 172.797C124.788 172.703 124.803 172.597 124.785 172.494C124.767 172.323 124.686 172.053 124.546 171.681C124.405 171.31 124.291 171.062 124.201 170.936C124.112 170.811 124.029 170.736 123.956 170.711C123.884 170.685 123.805 170.686 123.734 170.714Z" fill="#35363B"/>
<path fill-rule="evenodd" clip-rule="evenodd" d="M103.666 163.866C102.944 164.316 102.133 164.603 101.29 164.708C101.227 164.715 101.166 164.735 101.111 164.765C101.055 164.796 101.007 164.838 100.967 164.887C100.928 164.937 100.899 164.994 100.882 165.055C100.865 165.116 100.861 165.179 100.869 165.242C100.876 165.305 100.897 165.366 100.928 165.42C100.96 165.475 101.002 165.523 101.052 165.562C101.102 165.6 101.16 165.629 101.221 165.645C101.282 165.661 101.346 165.665 101.408 165.656C102.389 165.534 103.332 165.2 104.171 164.677C104.277 164.609 104.353 164.503 104.381 164.38C104.409 164.257 104.387 164.128 104.321 164.021C104.254 163.914 104.148 163.838 104.025 163.809C103.903 163.78 103.773 163.8 103.666 163.866ZM106.499 160.044C106.24 160.869 105.844 161.644 105.325 162.336C105.288 162.386 105.26 162.443 105.244 162.504C105.228 162.565 105.225 162.628 105.234 162.69C105.242 162.752 105.263 162.812 105.295 162.867C105.327 162.921 105.369 162.968 105.42 163.006C105.47 163.044 105.527 163.071 105.588 163.087C105.649 163.103 105.712 163.106 105.774 163.098C105.836 163.089 105.896 163.068 105.95 163.036C106.005 163.004 106.052 162.962 106.09 162.912C106.671 162.133 107.117 161.262 107.409 160.335C107.446 160.215 107.434 160.085 107.376 159.974C107.318 159.862 107.218 159.778 107.098 159.74C106.978 159.701 106.848 159.712 106.736 159.769C106.623 159.826 106.538 159.925 106.499 160.044ZM99.0306 164.571C98.1905 164.366 97.3912 164.021 96.6664 163.549C96.5595 163.481 96.4298 163.458 96.3058 163.485C96.1818 163.512 96.0737 163.588 96.0053 163.694C95.9369 163.801 95.9137 163.931 95.9409 164.055C95.9681 164.179 96.0435 164.287 96.1504 164.356C96.966 164.881 97.863 165.268 98.8049 165.501C98.9281 165.531 99.0579 165.51 99.166 165.444C99.274 165.378 99.3515 165.272 99.3814 165.149C99.4112 165.026 99.3911 164.896 99.3253 164.788C99.2596 164.679 99.1536 164.602 99.0306 164.571V164.571ZM106.733 155.147C106.901 156.007 106.962 156.885 106.914 157.761C106.907 157.887 106.951 158.012 107.035 158.106C107.12 158.201 107.238 158.258 107.365 158.265C107.491 158.272 107.615 158.229 107.71 158.145C107.805 158.06 107.862 157.942 107.87 157.816C107.921 156.861 107.853 155.903 107.668 154.964C107.657 154.902 107.633 154.843 107.599 154.79C107.565 154.738 107.52 154.692 107.468 154.657C107.416 154.621 107.357 154.596 107.296 154.584C107.234 154.571 107.17 154.571 107.108 154.583C107.047 154.595 106.988 154.619 106.935 154.654C106.883 154.689 106.838 154.734 106.803 154.786C106.768 154.839 106.744 154.898 106.732 154.96C106.72 155.021 106.72 155.085 106.733 155.147ZM94.8819 162.061C94.2808 161.422 93.7617 160.71 93.3367 159.943C93.3065 159.888 93.2659 159.839 93.217 159.8C93.1681 159.761 93.112 159.732 93.0519 159.715C92.9918 159.697 92.9288 159.692 92.8666 159.699C92.8045 159.706 92.7443 159.726 92.6896 159.756C92.5789 159.818 92.4971 159.921 92.462 160.042C92.4269 160.164 92.4414 160.295 92.5024 160.406C92.9646 161.243 93.5297 162.019 94.1846 162.716C94.2712 162.808 94.3909 162.862 94.5173 162.866C94.6437 162.87 94.7665 162.824 94.8588 162.738C94.9503 162.65 95.004 162.531 95.0083 162.404C95.0126 162.278 94.9672 162.155 94.8819 162.061ZM104.743 150.625C105.266 151.331 105.703 152.097 106.046 152.905C106.071 152.963 106.106 153.015 106.151 153.059C106.196 153.103 106.248 153.138 106.307 153.161C106.365 153.185 106.427 153.197 106.489 153.196C106.552 153.196 106.614 153.183 106.672 153.158C106.729 153.134 106.782 153.098 106.826 153.054C106.87 153.009 106.904 152.956 106.928 152.898C106.951 152.84 106.963 152.778 106.963 152.715C106.962 152.653 106.949 152.591 106.925 152.533C106.552 151.655 106.078 150.823 105.512 150.054C105.436 149.955 105.323 149.89 105.199 149.872C105.074 149.855 104.948 149.887 104.848 149.962C104.747 150.037 104.68 150.148 104.66 150.272C104.641 150.396 104.671 150.523 104.743 150.625H104.743ZM92.4181 157.785C92.1586 156.946 91.9999 156.079 91.9455 155.203C91.9418 155.14 91.9259 155.079 91.8985 155.023C91.8711 154.966 91.8329 154.916 91.7861 154.874C91.7392 154.833 91.6846 154.801 91.6254 154.78C91.5662 154.76 91.5035 154.751 91.4409 154.755C91.3783 154.758 91.3171 154.774 91.2607 154.802C91.2043 154.829 91.1538 154.867 91.1122 154.914C91.0706 154.961 91.0386 155.016 91.018 155.075C90.9975 155.134 90.9888 155.197 90.9925 155.259C91.0505 156.212 91.2227 157.155 91.5055 158.067C91.5439 158.188 91.6285 158.289 91.7411 158.348C91.8536 158.407 91.9849 158.419 92.1062 158.381C92.1659 158.363 92.2214 158.333 92.2694 158.293C92.3174 158.253 92.357 158.203 92.386 158.148C92.415 158.093 92.4327 158.032 92.4382 157.97C92.4436 157.907 92.4368 157.845 92.4179 157.785L92.4181 157.785ZM100.939 147.567C101.741 147.904 102.485 148.362 103.147 148.925C103.195 148.965 103.251 148.996 103.31 149.015C103.37 149.033 103.433 149.04 103.496 149.035C103.558 149.029 103.619 149.012 103.674 148.983C103.73 148.954 103.779 148.914 103.82 148.866C103.86 148.818 103.891 148.763 103.909 148.703C103.928 148.643 103.935 148.58 103.93 148.518C103.924 148.455 103.907 148.395 103.878 148.339C103.849 148.283 103.809 148.234 103.761 148.194C103.024 147.57 102.197 147.061 101.308 146.685C101.191 146.636 101.059 146.636 100.942 146.684C100.825 146.732 100.732 146.825 100.683 146.942C100.634 147.059 100.633 147.19 100.682 147.308C100.73 147.425 100.823 147.518 100.939 147.567ZM92.0813 152.875C92.2276 152.021 92.5059 151.194 92.9063 150.425C92.9361 150.369 92.9547 150.308 92.9609 150.246C92.9672 150.183 92.9609 150.12 92.9426 150.059C92.9242 149.999 92.8941 149.943 92.854 149.894C92.8139 149.846 92.7646 149.806 92.7088 149.776C92.6531 149.747 92.5921 149.729 92.5294 149.723C92.4666 149.717 92.4034 149.724 92.3432 149.743C92.2831 149.761 92.2273 149.792 92.179 149.832C92.1307 149.873 92.0909 149.923 92.0618 149.978C91.6165 150.836 91.3051 151.756 91.1383 152.708C91.1164 152.833 91.145 152.961 91.2177 153.065C91.2905 153.169 91.4015 153.24 91.5264 153.262C91.6513 153.284 91.7798 153.256 91.8839 153.184C91.988 153.111 92.059 153 92.0815 152.875H92.0813ZM96.1585 147.425L96.2279 147.399C97.0246 147.1 97.8761 146.975 98.7249 147.034C98.8504 147.04 98.9734 146.997 99.0673 146.914C99.1613 146.83 99.2185 146.713 99.2268 146.588C99.235 146.462 99.1935 146.339 99.1112 146.244C99.029 146.149 98.9127 146.09 98.7874 146.08C97.8338 146.015 96.877 146.149 95.9778 146.473L95.8903 146.505C95.053 146.821 94.2857 147.299 93.6317 147.91C93.539 147.996 93.4845 148.116 93.48 148.242C93.4756 148.369 93.5216 148.492 93.608 148.585C93.6944 148.678 93.8141 148.732 93.9407 148.737C94.0674 148.741 94.1906 148.695 94.2833 148.609C94.8282 148.1 95.4644 147.698 96.1583 147.425L96.1585 147.425ZM101.593 160.427C101.468 160.491 101.34 160.548 101.209 160.597C99.7935 161.132 98.2363 160.756 97.0343 159.77C96.9859 159.73 96.9301 159.7 96.8703 159.682C96.8104 159.664 96.7475 159.658 96.6852 159.664C96.6229 159.67 96.5624 159.688 96.5073 159.718C96.4521 159.747 96.4032 159.788 96.3636 159.836C96.3239 159.884 96.2941 159.94 96.276 160C96.2578 160.06 96.2516 160.123 96.2578 160.185C96.2639 160.247 96.2823 160.308 96.3118 160.363C96.3413 160.418 96.3814 160.467 96.4298 160.507C97.8986 161.715 99.8111 162.146 101.546 161.491C101.71 161.43 101.87 161.359 102.026 161.279C102.083 161.251 102.133 161.212 102.175 161.164C102.216 161.116 102.247 161.061 102.267 161.001C102.287 160.941 102.295 160.878 102.29 160.815C102.286 160.752 102.268 160.691 102.24 160.634C102.211 160.578 102.172 160.528 102.124 160.487C102.076 160.446 102.02 160.415 101.96 160.396C101.9 160.377 101.836 160.37 101.773 160.375C101.71 160.38 101.649 160.398 101.593 160.427V160.427ZM103.406 154.154C103.434 154.221 103.461 154.289 103.487 154.358C104.099 155.982 103.934 157.686 103.163 158.949C103.13 159.002 103.109 159.062 103.099 159.124C103.089 159.186 103.092 159.249 103.107 159.31C103.121 159.371 103.148 159.429 103.185 159.479C103.222 159.53 103.269 159.573 103.322 159.606C103.376 159.638 103.436 159.66 103.498 159.67C103.56 159.679 103.623 159.677 103.684 159.662C103.745 159.647 103.802 159.621 103.853 159.584C103.904 159.546 103.947 159.5 103.979 159.446C104.89 157.953 105.106 155.94 104.381 154.02C104.351 153.941 104.321 153.861 104.286 153.784C104.262 153.726 104.227 153.673 104.182 153.629C104.138 153.584 104.085 153.549 104.027 153.525C103.968 153.501 103.906 153.489 103.843 153.489C103.78 153.489 103.718 153.502 103.66 153.526C103.602 153.551 103.549 153.586 103.505 153.631C103.461 153.676 103.426 153.729 103.403 153.787C103.379 153.846 103.367 153.908 103.368 153.971C103.369 154.034 103.382 154.096 103.406 154.154ZM95.6405 158.021C95.5394 157.826 95.4502 157.626 95.3733 157.42C94.8196 155.953 94.9036 154.42 95.4921 153.206C95.5474 153.091 95.5551 152.96 95.5135 152.84C95.4719 152.721 95.3845 152.622 95.2704 152.567C95.1563 152.512 95.0249 152.504 94.9052 152.546C94.7854 152.587 94.6871 152.675 94.6318 152.789C93.9366 154.221 93.8258 156.028 94.4788 157.758C94.5687 157.997 94.6723 158.23 94.7891 158.457C94.8476 158.568 94.9478 158.652 95.0679 158.69C95.1879 158.729 95.3182 158.718 95.4303 158.66C95.5424 158.603 95.6274 158.504 95.6668 158.384C95.7061 158.264 95.6967 158.134 95.6405 158.021ZM97.603 151.2L97.6542 151.18C99.1993 150.597 100.915 151.099 102.149 152.299C102.24 152.386 102.362 152.434 102.488 152.432C102.614 152.429 102.735 152.377 102.823 152.287C102.911 152.196 102.959 152.075 102.958 151.949C102.957 151.822 102.906 151.702 102.816 151.613C101.331 150.172 99.2693 149.592 97.404 150.254L97.3169 150.286C96.9867 150.411 96.6715 150.572 96.377 150.766C96.3247 150.801 96.2797 150.845 96.2447 150.898C96.2097 150.95 96.1853 151.008 96.1729 151.07C96.1605 151.131 96.1603 151.195 96.1724 151.256C96.1845 151.318 96.2087 151.377 96.2434 151.429C96.2782 151.481 96.3229 151.526 96.375 151.561C96.4271 151.596 96.4856 151.621 96.5472 151.633C96.6087 151.645 96.6721 151.646 96.7337 151.633C96.7954 151.621 96.854 151.597 96.9063 151.562C97.1251 151.417 97.3586 151.296 97.6029 151.2L97.603 151.2ZM100.361 155.854C100.102 155.997 99.833 156.12 99.5562 156.224C99.2131 156.355 98.8583 156.454 98.4967 156.519C98.4348 156.53 98.3756 156.552 98.3225 156.586C98.2694 156.619 98.2234 156.663 98.1871 156.714C98.1508 156.765 98.1249 156.823 98.111 156.884C98.0971 156.945 98.0953 157.008 98.1058 157.07C98.1164 157.132 98.139 157.191 98.1724 157.244C98.2058 157.298 98.2493 157.344 98.3005 157.38C98.3517 157.416 98.4095 157.442 98.4707 157.456C98.5319 157.47 98.5952 157.472 98.657 157.461C99.0791 157.386 99.4931 157.271 99.8935 157.117C100.214 156.997 100.525 156.854 100.825 156.689C100.935 156.627 101.017 156.524 101.052 156.403C101.087 156.281 101.072 156.15 101.011 156.039C100.949 155.929 100.846 155.847 100.724 155.812C100.603 155.777 100.472 155.792 100.361 155.854L100.361 155.854ZM99.1932 155.597L99.3035 155.554C99.9881 155.296 100.637 155.174 101.07 155.215C101.133 155.221 101.197 155.215 101.257 155.197C101.318 155.178 101.374 155.148 101.423 155.108C101.471 155.068 101.512 155.019 101.541 154.963C101.571 154.908 101.589 154.847 101.595 154.784C101.601 154.721 101.594 154.657 101.575 154.597C101.557 154.537 101.526 154.481 101.486 154.433C101.445 154.384 101.396 154.344 101.34 154.315C101.284 154.286 101.222 154.268 101.159 154.263C100.637 154.215 99.8635 154.333 99.0456 154.631L98.9662 154.661C98.2542 154.929 97.6537 155.279 97.2625 155.615C97.2144 155.656 97.1748 155.706 97.1461 155.762C97.1173 155.818 97.1 155.88 97.0951 155.943C97.0902 156.006 97.0978 156.069 97.1175 156.129C97.1371 156.189 97.1685 156.244 97.2097 156.292C97.251 156.34 97.3012 156.379 97.3577 156.407C97.4141 156.435 97.4756 156.452 97.5386 156.457C97.6015 156.461 97.6647 156.453 97.7245 156.433C97.7843 156.412 97.8395 156.38 97.8869 156.339C98.1895 156.078 98.6515 155.812 99.1932 155.597Z" fill="#0E4F55"/>
<path fill-rule="evenodd" clip-rule="evenodd" d="M67.9673 88.6905C58.5855 94.4842 37.7978 112.678 40.7935 126.431C45.1238 146.299 65.6474 167.257 65.6474 167.257C66.4349 174.129 72.3049 175.708 73.5364 176.15C74.6003 176.531 70.4351 166.874 70.8843 166.1C72.3307 163.614 75.1781 167.376 75.838 164.946C76.2561 163.411 72.617 160.599 69.3811 160.958C69.3811 160.958 54.7614 133.591 58.92 121.304C63.0818 109.016 92.3363 109.936 94.3419 87.2339C94.8779 81.167 92.4768 73.555 67.9673 88.6905Z" fill="#FB9C9A"/>
<mask id="mask1_1095_3040" style="mask-type:luminance" maskUnits="userSpaceOnUse" x="40" y="79" width="55" height="98">
<path d="M67.9673 88.6905C58.5855 94.4842 37.7978 112.678 40.7935 126.431C45.1238 146.299 65.6474 167.257 65.6474 167.257C66.4349 174.129 72.3049 175.708 73.5364 176.15C74.6003 176.531 70.4351 166.874 70.8843 166.1C72.3307 163.614 75.1781 167.376 75.838 164.946C76.2561 163.411 72.617 160.599 69.3811 160.958C69.3811 160.958 54.7614 133.591 58.92 121.304C63.0818 109.016 92.3363 109.936 94.3419 87.2339C94.8779 81.167 92.4768 73.555 67.9673 88.6905Z" fill="white"/>
</mask>
<g mask="url(#mask1_1095_3040)">
<path fill-rule="evenodd" clip-rule="evenodd" d="M78.5309 146.117C89.663 132.535 107.519 121.852 109.507 102.849C110.903 89.5162 101.969 79.8619 90.1439 75.194C71.7303 67.9271 48.0829 69.6267 31.238 80.1386C7.05161 95.2323 5.21605 128.026 20.9591 149.889C25.838 156.663 32.2819 163.033 40.4521 165.536C46.5554 167.406 57.8906 167.898 61.7994 161.26C63.0894 159.07 61.6786 156.201 63.2878 154.209C64.5094 152.693 66.6253 152.816 68.133 151.752C70.608 150.015 70.2514 145.659 69.3344 143.158L78.5309 146.117Z" fill="#009245"/>
</g>
<path fill-rule="evenodd" clip-rule="evenodd" d="M231.007 72.1586C231.007 72.1586 219.396 68.7406 211.199 59.9001C201.99 68.1805 190 72.1586 190 72.1586V90.8313C190 94.4781 190.93 98.0648 192.701 101.253C194.472 104.44 197.027 107.124 200.123 109.051C200.459 109.262 200.798 109.47 201.131 109.679C203.873 111.385 207.034 112.297 210.264 112.315C213.493 112.333 216.664 111.455 219.425 109.78C222.961 107.635 225.884 104.615 227.912 101.012C229.941 97.4081 231.007 93.3426 231.007 89.2073V72.1586Z" fill="#009245"/>
<path fill-rule="evenodd" clip-rule="evenodd" d="M225.577 76.198C225.577 76.198 217.041 73.6727 211.014 67.1411C204.245 73.2588 195.431 76.198 195.431 76.198V90.0195C195.431 92.7072 196.114 95.3508 197.417 97.7018C198.719 100.053 200.598 102.034 202.877 103.459C203.12 103.609 203.362 103.761 203.603 103.912C205.62 105.174 207.948 105.849 210.327 105.862C212.706 105.875 215.042 105.226 217.073 103.987H217.075C219.671 102.404 221.817 100.179 223.306 97.5269C224.794 94.8749 225.576 91.8847 225.577 88.8434V76.198Z" fill="white"/>
<path fill-rule="evenodd" clip-rule="evenodd" d="M202.043 90.9034L207.684 98.4607C208.155 99.0901 208.873 99.4442 209.619 99.4161C209.997 99.3981 210.365 99.289 210.691 99.0981C211.017 98.9071 211.293 98.6401 211.493 98.3196L222.028 82.0115C222.775 80.8532 222.508 79.2601 221.429 78.4559C220.349 77.6516 218.87 77.9404 218.119 79.0987L209.401 92.5946L205.753 87.7075C204.935 86.6075 203.437 86.4301 202.414 87.312C201.387 88.1939 201.225 89.8033 202.043 90.9034Z" fill="#102C42"/>
<path fill-rule="evenodd" clip-rule="evenodd" d="M187.981 90.5557C188.323 88.6245 189.421 86.6504 190.07 86.4238C194.401 84.9172 196.694 89.2466 192.23 90.5891C190.07 91.2391 187.906 96.8145 187.906 96.8145C187.906 96.8145 187.722 92.0367 187.981 90.5557Z" fill="#FB9C9A"/>
<path fill-rule="evenodd" clip-rule="evenodd" d="M107.928 55.4131C102.187 55.4131 98.0011 60.6844 98.8178 67.8396C99.3977 72.9102 105.805 78.3623 111.056 78.8766C115.385 79.3 117.08 74.9078 117.08 67.7065C117.08 60.5052 113.666 55.4131 107.928 55.4131Z" fill="#FB9C9A"/>
<path fill-rule="evenodd" clip-rule="evenodd" d="M110.122 74.0424C110.231 73.542 110.654 73.0981 111 72.7438C111.304 72.4322 111.623 72.1297 112 71.9091C112.225 71.7685 112.468 71.6615 112.724 71.5916C114.211 71.234 114.921 72.495 116.076 73.1068C116.522 73.3433 116.999 73.3856 117.495 73.4034C118.905 75.5534 116.403 77.9065 114.57 78.6735C113.656 79.0569 111.268 82.0919 108.357 78.603C107.697 77.8142 104.122 78.053 105.241 74.0438C105.532 72.9949 105.109 71.6585 105.032 70.5786C104.918 68.9952 105.045 67.1536 103.499 66.1827C103.254 66.031 102.995 65.9049 102.725 65.8065C102.534 65.736 102.316 65.585 102.134 65.671C100.792 66.2946 102.998 68.75 99.6913 69.7589C99.9051 70.8547 98.8543 71.6239 97.89 71.7695C96.3798 71.9978 94.7605 71.3423 93.7598 70.1952C92.8363 69.1353 91.7174 67.4855 91.5263 66.1168C91.2943 64.441 91.3763 60.8052 92.9319 58.6532C94.1464 56.973 95.9386 55.6675 98.0765 55.7985C98.0538 55.3741 98.3358 54.9506 98.5541 54.611C99.0677 53.813 99.7174 53.1114 100.474 52.5381C101.688 51.6284 103.189 50.951 104.713 50.8364C106.755 50.6827 108.939 51.8135 109.826 53.6949C110.213 53.28 110.799 53.1467 111.336 53.0407C112.651 52.781 113.888 52.9452 115.057 53.6207C117.591 55.0868 118.464 57.9447 117.395 60.592C117.013 60.4688 116.567 60.466 116.171 60.4087C115.216 60.2723 118.496 62.3025 111.836 63.4741C110.103 63.7789 107.533 62.4543 106.282 64.0837C105.464 65.1467 106.032 66.4153 106.201 67.5837C106.351 68.629 106.273 69.6975 106.469 70.7359C106.746 72.2134 107.879 74.0234 109.467 74.3547L110.122 74.0424Z" fill="#263238"/>
</svg>
